STARTFONT 2.1
FONT -HP-Sung-Medium-R-Normal--34-340-75-75-C-340-CNS11643.1992-3
SIZE 34 75 75
FONTBOUNDINGBOX 34 34 0 -2

STARTPROPERTIES 23
FONTNAME_REGISTRY ""
FOUNDRY "HP"
FAMILY_NAME "Sung"
WEIGHT_NAME "Medium"
SLANT "R"
SETWIDTH_NAME "Normal"
ADD_STYLE_NAME ""
PIXEL_SIZE 34
POINT_SIZE 340
RESOLUTION_X 75
RESOLUTION_Y 75
SPACING "C"
AVERAGE_WIDTH 340
CHARSET_REGISTRY "CNS11643.1992"
CHARSET_ENCODING "3"
COPYRIGHT "Copyright (c) 1994 Hewlett-Packard Company."
_HP_ASXVERSION "@(#) ASX 3.00 $Revision: 13.9 $ sungX34n3"
WEIGHT 10
X_HEIGHT 18
QUAD_WIDTH 34
DEFAULT_CHAR 25159
FONT_DESCENT 2
FONT_ASCENT 32
ENDPROPERTIES

CHARS 6149

STARTCHAR cns3_2121
ENCODING 8481
SWIDTH 960 0
DWIDTH 34 0
BBX 34 34 0 -2
BITMAP
0000000000
0000E00000
0000C00000
0000C00000
0000C00000
0000C00000
0000C00000
0000C00000
0000C00000
0000C00000
0000C00000
0000C00000
0000C00000
0000C00000
0000C00000
0000C00000
0000C00000
0000C00000
0000C00000
0000C00000
0000C00000
0000C00000
0000C00000
0000C00000
0000C00000
0000C00000
0000C00000
0000C00000
0000C00000
0000C00000
0000C00000
0000C00000
0000C00000
0000000000
ENDCHAR

STARTCHAR cns3_2122
ENCODING 8482
SWIDTH 960 0
DWIDTH 34 0
BBX 34 34 0 -2
BITMAP
0000000000
0000000000
0000000000
0000000000
0000000000
0000000000
0000000000
0000000000
0000000000
0000000000
0000000000
0000000000
0000000000
0000000000
0003000000
0001C00000
0000E00000
0000F00000
0000700000
0000700000
0000200000
0000000000
0000000000
0000000000
0000000000
0000000000
0000000000
0000000000
0000000000
0000000000
0000000000
0000000000
0000000000
0000000000
ENDCHAR

STARTCHAR cns3_2123
ENCODING 8483
SWIDTH 960 0
DWIDTH 34 0
BBX 34 34 0 -2
BITMAP
0000000000
0000000000
0000000000
0000380000
0000300000
0000300000
0000300000
0000300000
0000300000
0000300000
0000300000
0000300000
0000600000
0000600000
0000600000
0000600000
0000600000
0000600000
0000600000
0000C00000
0000C00000
0000C00000
0001800000
0003800000
0003000000
0006000000
000E000000
000C000000
0018000000
0030000000
00E0000000
0180000000
0000000000
0000000000
ENDCHAR

STARTCHAR cns3_2124
ENCODING 8484
SWIDTH 960 0
DWIDTH 34 0
BBX 34 34 0 -2
BITMAP
0000000000
0000380000
0000300000
0000300000
0000300000
0000300000
0000300000
0000300000
0000300000
0000300000
0000300000
0000300000
0000300000
0000300000
0000300000
0000300000
0000300000
0000300000
0000300000
0000300000
0000300000
0000300000
0000300000
0000300000
0000300000
0000300000
0000300000
0000300000
0000300000
0000700000
000FF00000
0001E00000
0000C00000
0000000000
ENDCHAR

STARTCHAR cns3_2125
ENCODING 8485
SWIDTH 960 0
DWIDTH 34 0
BBX 34 34 0 -2
BITMAP
0000000000
0000000000
0000000000
0000000300
7FFFFFFF80
0001800000
0001800000
0001800000
0001800000
0001800000
0001800000
0001800000
0001800000
0001800000
0001800000
0001800000
0001800000
0001800000
0001800000
0001800000
0001800000
0001800000
0001800000
0001800000
0001800000
0001800000
0001800000
0001800000
0001800000
0001800000
0001800000
0001800000
0001800000
0000000000
ENDCHAR

STARTCHAR cns3_2126
ENCODING 8486
SWIDTH 960 0
DWIDTH 34 0
BBX 34 34 0 -2
BITMAP
0000000000
0000700000
0000600000
0000600000
0000600000
0000600000
0000600000
0000600000
0000600000
0000600000
0000600000
0000600000
0000600000
0000600000
0000600000
0000600000
0000600000
0000600000
0000600000
0000600000
0000600000
0000600000
0000600000
0000600000
0000600000
0000600000
0000600000
0000600000
0000600000
0000600300
7FFFFFFF80
0000000000
0000000000
0000000000
ENDCHAR

STARTCHAR cns3_2127
ENCODING 8487
SWIDTH 960 0
DWIDTH 34 0
BBX 34 34 0 -2
BITMAP
0000000000
0000000000
1000000C00
1FFFFFFE00
1800000C00
1800000C00
1800000C00
1800000C00
1800000C00
1800000C00
1800000C00
1800000C00
1800000C00
1800000C00
1800000C00
1800000C00
1800000C00
1800000C00
1800000C00
1800000C00
1800000C00
1800000C00
1800000C00
1800000C00
1800000C00
1800000C00
1800000C00
1800000C00
1800000C00
1800001C00
180003FC00
1800007800
1800003000
0000000000
ENDCHAR

STARTCHAR cns3_2128
ENCODING 8488
SWIDTH 960 0
DWIDTH 34 0
BBX 34 34 0 -2
BITMAP
0000000000
0000000000
0000000000
0000000000
0000000000
0000000000
0000000000
0000000000
0000000000
0000000000
0000000000
0000000000
0400000300
07FFFFFF80
0E00000700
0C00000E00
1C00001800
3800003000
3800000000
0000000000
0000000000
0000000000
0000000000
0000000000
0000000000
0000000000
0000000000
0000000000
0000000000
0000000000
0000000000
0000000000
0000000000
0000000000
ENDCHAR

STARTCHAR cns3_2129
ENCODING 8489
SWIDTH 960 0
DWIDTH 34 0
BBX 34 34 0 -2
BITMAP
0000000000
0000000000
0000000000
0000000000
0000000300
7FFFFFFF80
0600000000
0600000000
0600000000
0600000000
0600000000
0600000000
0600000000
0600000000
0600000000
0600000000
0600000000
0600000000
0600000000
0600000000
0600000000
0600000000
0600000000
0600000000
0600000000
0600000000
0600000000
0600000000
0700000300
07FFFFFF80
03FFFFFF80
0000000000
0000000000
0000000000
ENDCHAR

STARTCHAR cns3_212A
ENCODING 8490
SWIDTH 960 0
DWIDTH 34 0
BBX 34 34 0 -2
BITMAP
0000000000
0000000000
0020030000
003FFF8000
0030030000
0030030000
0030030000
0030030000
0030030000
0030030000
0030030000
0030030000
0030030000
0030030000
0030030000
0030030000
0030030000
0030030000
0030030000
0030030000
0030030000
0030070000
0030FF0000
00301E0000
00300C0000
0030000000
0030000000
0030000000
0030000000
0030000000
0030000000
0030000000
0030000000
0000000000
ENDCHAR

STARTCHAR cns3_212B
ENCODING 8491
SWIDTH 960 0
DWIDTH 34 0
BBX 34 34 0 -2
BITMAP
0000000000
0000000000
0000000000
0000000000
0000000000
0000000000
0000000000
0003800000
0003000000
0003000000
0003000000
0003000000
0003000000
0006000000
0006000000
0006000000
0006000000
000C000000
000C010000
000C018000
000C00C000
000C007000
0018003800
001807FC00
1FFFFE0E00
1FFC000700
0000000700
0000000300
0000000000
0000000000
0000000000
0000000000
0000000000
0000000000
ENDCHAR

STARTCHAR cns3_212C
ENCODING 8492
SWIDTH 960 0
DWIDTH 34 0
BBX 34 34 0 -2
BITMAP
0000000000
0000E00000
0001C00000
0001C00000
0003C00000
0007600000
0006300000
000C180000
00180C0000
0030070000
0060038000
00C001E000
0180E0F800
0700C03E00
0C00C00F80
1800C00300
2000C00000
0000C00000
0000C00000
0000C00000
0000C00000
0000C00000
0000C00000
0000C00000
0000C00000
0000C00000
0000C00000
0000C00000
0000C00000
0000C00000
0000C00000
0000C00000
0000C00000
0000000000
ENDCHAR

STARTCHAR cns3_212D
ENCODING 8493
SWIDTH 960 0
DWIDTH 34 0
BBX 34 34 0 -2
BITMAP
0000000000
001C000000
0038000000
0030000000
0030000000
0060000000
0060000C00
00FFFFFE00
00C0600000
0180600000
0300600000
0300600000
0600600000
0C00600000
1800600000
0000600000
0000600000
0000600000
0000600000
0000600000
0000600000
0000600000
0000600000
0000600000
0000600000
0000600000
0000600000
0000600000
0000600000
0000600000
0000E00000
0007E00000
0000C00000
0000000000
ENDCHAR

STARTCHAR cns3_212E
ENCODING 8494
SWIDTH 960 0
DWIDTH 34 0
BBX 34 34 0 -2
BITMAP
0000000000
0000000000
0000000000
0000007000
010200E000
010300C000
018180C000
0081C18000
00C0C18000
0040E30000
0060E30000
0020660000
0030060000
0010060000
00180C0000
000C180000
000C180000
0006300000
0003600000
0001E00000
0001C00000
0001C00000
0003600000
0006380000
000C1C0000
00380E0000
0070078000
00C001E000
038000FC00
0E00003F80
1800000E00
7000000000
0000000000
0000000000
ENDCHAR

STARTCHAR cns3_212F
ENCODING 8495
SWIDTH 960 0
DWIDTH 34 0
BBX 34 34 0 -2
BITMAP
0000000000
0000000000
0000380000
0000700000
0000E00000
0001800000
0003000000
000E000000
0000000000
00100C0000
001FFE0000
00180C0000
00180C0000
00180C0000
00180C0000
00180C0000
00180C0000
00180C0000
00180C0000
00300C0000
00300C0000
00300C0000
00300C0000
00300C0200
00600C0200
00600C0200
00C00C0300
01800C0300
03000E0700
06000FFF00
0C0007FE00
3800000000
0000000000
0000000000
ENDCHAR

STARTCHAR cns3_2130
ENCODING 8496
SWIDTH 960 0
DWIDTH 34 0
BBX 34 34 0 -2
BITMAP
0000000000
0000000000
0070700000
0060600000
0060600000
0060600000
00C0600000
00C0600000
00C0600000
00C0600000
0180600000
0180C00000
0180C00000
0180C00000
0FFFC00000
0003C00000
0001C00000
0001E00000
0001600000
0003300000
0003300000
0003180000
0006180000
00060C0000
000C060000
0018060000
0018030000
0030018000
00E001E000
008000F800
0180003F80
0700001C00
1C00000000
0000000000
ENDCHAR

STARTCHAR cns3_2131
ENCODING 8497
SWIDTH 960 0
DWIDTH 34 0
BBX 34 34 0 -2
BITMAP
0000000000
0000000000
0000003000
07FFFFF800
0000000000
0000000000
0000000000
0000000000
0000000000
0000000000
0000000C00
1FFFFFFE00
000C000000
0018000000
0018000000
0018000000
0030006000
003FFFF000
0070006000
0060006000
00C0006000
0000006000
0000006000
0000006000
0000006000
000000C000
000000C000
000000C000
0000018000
00007F8000
00000F0000
0000060000
0000000000
0000000000
ENDCHAR

STARTCHAR cns3_2132
ENCODING 8498
SWIDTH 960 0
DWIDTH 34 0
BBX 34 34 0 -2
BITMAP
0000000000
0000000000
0001800000
0001C00000
0001800000
0001800000
0003C00000
0007400000
0006600000
000E300000
000C300000
0018180000
00100C0000
00300E0000
0060060000
0060070000
00C0038000
018001C000
030000E000
0600007000
1C00003C00
3800001E00
6000000FC0
0000000380
0000000000
0000000000
0000000000
0000000000
0000000000
0000000C00
1FFFFFFE00
0000000000
0000000000
0000000000
ENDCHAR

STARTCHAR cns3_2133
ENCODING 8499
SWIDTH 960 0
DWIDTH 34 0
BBX 34 34 0 -2
BITMAP
0000000000
0E00000000
0C00000000
0C00000000
0C00000000
0C00E00000
0C00C00000
0C00C00000
0C00C00000
0C00C00000
0C00C00000
0C00C00000
0C00C00000
0C00E00000
0C01A00000
0C01B00000
0C01900000
0C03180000
0C03080000
0C060C0000
0C06060000
0C0C030000
0C0C030000
0C3801C000
0C3000F000
0C60007E00
0CE0003800
0D80000000
0C00000000
0E00000300
0FFFFFFF80
07FFFFFF80
0000000000
0000000000
ENDCHAR

STARTCHAR cns3_2134
ENCODING 8500
SWIDTH 960 0
DWIDTH 34 0
BBX 34 34 0 -2
BITMAP
0000000000
0E00000000
0C00000000
0C00000000
0C00300000
0C1FF80000
0C00300000
0C00300000
0C00300000
0C00300000
0C00300000
0C00300000
0C00700000
0C00700000
0C00F00000
0C00D80000
0C01880000
0C018C0000
0C030C0000
0C07060000
0C06030000
0C0E030000
0C18018000
0C3001C000
0C3000E000
0CE0007C00
0D80003F80
0F00001E00
0C00000000
0E00000300
0FFFFFFF80
07FFFFFF80
0000000000
0000000000
ENDCHAR

STARTCHAR cns3_2135
ENCODING 8501
SWIDTH 960 0
DWIDTH 34 0
BBX 34 34 0 -2
BITMAP
0000000000
0001C00000
0001800000
0001800000
0001800000
0001800000
0001800000
00118C0000
001FFE0000
00180C0000
00180C0000
00180C0000
00180C0000
00180C0000
00180C0000
00180C0000
00180C0000
00180C0000
00300C0000
00300C0000
00300C0000
00300C0000
00300C0000
00300C0000
00600C0200
00600C0200
00C00C0200
01C00C0300
03800E0700
0F000FFF00
1C0007FE00
7800000000
0000000000
0000000000
ENDCHAR

STARTCHAR cns3_2136
ENCODING 8502
SWIDTH 960 0
DWIDTH 34 0
BBX 34 34 0 -2
BITMAP
0000000000
0000000000
0000003000
01FFFFF800
0000603000
0000603000
0000603000
0000603000
0000603000
0000603000
0060603000
0030603000
0018603000
000CC03000
0007C03000
0003803000
0001803000
0001C03000
0001E03000
0003706000
0003386000
00031E6000
000607E000
000C03E000
000C01F800
001800FE00
003000DFC0
006000C700
01C001C000
07007F8000
1C000F0000
0000060000
0000000000
0000000000
ENDCHAR

STARTCHAR cns3_2137
ENCODING 8503
SWIDTH 960 0
DWIDTH 34 0
BBX 34 34 0 -2
BITMAP
0000000000
00700E0000
00600C0000
00600C0000
00600C0000
00600C0000
00600C0000
00600C0000
00600C0000
00618C0000
0FFFCC0000
00618C0000
00618C0000
00618C0000
00618C0000
00C18C0000
00C18C0000
00C18C0000
00C18C0000
00C18C0000
00C18C0000
00C18C0000
01818C0000
01818C0000
01818C0200
03018C0200
03018C0200
06030C0300
06030C0300
0C070C0700
19FE0FFF00
303C07FE00
0018000000
0000000000
ENDCHAR

STARTCHAR cns3_2138
ENCODING 8504
SWIDTH 960 0
DWIDTH 34 0
BBX 34 34 0 -2
BITMAP
0000000000
001C070000
0018060000
0018060000
0018060000
0018060000
0018060000
0018060000
0018060000
0018060000
0018060000
0018060000
0018060000
0018060300
7FFFFFFF80
0018060000
0018060000
0018060000
0018060000
0018060000
0018060000
0018060000
0018060000
0018060000
0018060000
0018060000
0018060000
0018060000
0018060000
0018060000
0018060000
0018060000
0018060000
0000000000
ENDCHAR

STARTCHAR cns3_2139
ENCODING 8505
SWIDTH 960 0
DWIDTH 34 0
BBX 34 34 0 -2
BITMAP
0000000000
0000000000
0000000000
0007000000
000E000000
000E000000
001C018000
001FFFC000
003003C000
0078038000
00C8070000
038C0F0000
06060C0000
1C071C0000
0001B80000
0001F00000
0003FC0000
000F0FC000
003803FF00
01E000FC00
0F00001800
1800000000
0000000000
0000000000
0000000000
0000000000
0000000000
0000000000
0000000000
0000000000
0000000000
0000000000
0000000000
0000000000
ENDCHAR

STARTCHAR cns3_213A
ENCODING 8506
SWIDTH 960 0
DWIDTH 34 0
BBX 34 34 0 -2
BITMAP
0000000000
0000000000
0003800000
0007000000
008E000000
00D8018000
007FFFC000
0030038000
0070038000
01D8030000
0198060000
030C0E0000
0E06180000
1803B80000
0001F00000
0001F80000
00039F0000
000E07FF00
003801FE00
01E0001C00
0700000000
0000000000
0000000000
0000000000
0000000000
0000000000
0000000000
0000000000
0000000000
0000000000
0000000000
0000000000
0000000000
0000000000
ENDCHAR

STARTCHAR cns3_213B
ENCODING 8507
SWIDTH 960 0
DWIDTH 34 0
BBX 34 34 0 -2
BITMAP
0000000000
0000000000
0000000000
0000000000
0000000000
0000000000
0000000000
0000E00000
0000C00000
0000C00000
0400C00600
0FFFFFFF00
1C00000E00
1800000C00
3800001800
7000001000
7000000000
0000000000
0000000000
0000000000
0000000000
0000000000
0000000000
0000000000
0000000000
0000000000
0000000000
0000000000
0000000000
0000000000
0000000000
0000000000
0000000000
0000000000
ENDCHAR

STARTCHAR cns3_213C
ENCODING 8508
SWIDTH 960 0
DWIDTH 34 0
BBX 34 34 0 -2
BITMAP
0000000000
0000000000
0000000000
000E387000
001C70E000
001C70E000
001860C000
0030C18000
0030C18000
0061830000
0061830000
0061830000
00C3060000
00C3060000
01860C0000
01860C0000
030C180000
030C180000
01860C0000
01860C0000
00C3060000
00C3060000
0061830000
0061830000
0030C18000
0030C18000
001860C000
001860C000
000C306000
000C306000
000C306000
0000000000
0000000000
0000000000
ENDCHAR

STARTCHAR cns3_213D
ENCODING 8509
SWIDTH 960 0
DWIDTH 34 0
BBX 34 34 0 -2
BITMAP
0000000000
0003800000
0003000000
0007000000
0006000000
000C000000
000C000000
0018000000
0018000000
0030000000
0030000000
06600E0000
03C00C0000
00C0180000
0060380000
0030300000
0018700000
001C600000
000CC00000
0004C00000
0001800000
0003000000
0003000000
0006008000
000C00C000
0018006000
0030006000
0030003000
00601FF800
07FFF81C00
07FC001C00
0000000C00
0000000000
0000000000
ENDCHAR

STARTCHAR cns3_213E
ENCODING 8510
SWIDTH 960 0
DWIDTH 34 0
BBX 34 34 0 -2
BITMAP
0000000000
0000700000
0000600000
0000600000
0000600000
0800600300
0FFFFFFF80
0C00000000
0C00000000
0C00000000
0C00000000
0C00000000
0C00000000
0C00000000
0C00000000
0C00000000
0C00000000
0C00000000
0C00000000
0C00000000
0C00000000
0C00000000
0C00000000
1800000000
1800000000
1800000000
1800000000
1800000000
3000000000
3000000000
6000000000
4000000000
0000000000
0000000000
ENDCHAR

STARTCHAR cns3_213F
ENCODING 8511
SWIDTH 960 0
DWIDTH 34 0
BBX 34 34 0 -2
BITMAP
0000000000
0000000000
0060000000
3FF0000000
0060000000
00C0000000
00C0000000
0180000000
0180000000
0300000000
0300000000
0600000000
0618000000
07FC000000
0C18000000
0830000000
0030000000
0430000000
0C60000000
1E60000000
1A60000000
3260000000
7360000000
31C0000000
01C0000000
01C0000000
01E0000000
0330000000
061E000000
1C07FFFF80
38003FFE00
6000007800
0000000000
0000000000
ENDCHAR

STARTCHAR cns3_2140
ENCODING 8512
SWIDTH 960 0
DWIDTH 34 0
BBX 34 34 0 -2
BITMAP
0000000000
0000000000
0000000000
0000000000
0000000000
0000000000
0000006000
00FFFFF000
0000006000
0000006000
0000006000
0000006000
0000006000
0000006000
01FFFFE000
0000006000
0000006000
0000006000
0000006000
0000006000
0000006000
0000006000
0000006300
7FFFFFFF80
0000000000
0000000000
0000000000
0000000000
0000000000
0000000000
0000000000
0000000000
0000000000
0000000000
ENDCHAR

STARTCHAR cns3_2141
ENCODING 8513
SWIDTH 960 0
DWIDTH 34 0
BBX 34 34 0 -2
BITMAP
0000000000
0000000000
0003800000
0007000000
0007000000
0006000000
0006000000
000C000000
000C000000
000C000000
001800C000
001FFFE000
001800C000
003000C000
0030018000
0030018000
0060018000
0060018000
0060018000
00E0030000
00C0030000
00FFFE0000
00C0060000
0180060000
0180060000
0000060000
00000C0000
00000C0000
00000C0000
00000C0300
7FFFFFFF80
0000000000
0000000000
0000000000
ENDCHAR

STARTCHAR cns3_2142
ENCODING 8514
SWIDTH 960 0
DWIDTH 34 0
BBX 34 34 0 -2
BITMAP
0000000000
0000000000
0000070000
00000E0000
00000E0000
0000180000
0000380000
0000E00000
0001800000
0007000000
001C00E000
00F001C000
000003C000
0000070000
00000C0000
0000380000
0000700000
0001C00000
0007000000
000C003800
0078007000
01C000E000
000001E000
0000038000
00000F0000
00001C0000
0000780000
0000E00000
0007800000
001C000000
00F0000000
0780000000
0000000000
0000000000
ENDCHAR

STARTCHAR cns3_2143
ENCODING 8515
SWIDTH 960 0
DWIDTH 34 0
BBX 34 34 0 -2
BITMAP
0000000000
00100C0000
001FFE0000
00181C0000
00181C0000
0018180000
0018380000
0018300000
0018300000
0018300000
0018600000
0018C00000
0018C00000
0018600000
0018600000
0018300000
0018180000
0018180000
00180C0000
00180C0000
00180C0000
00180C0000
0018180000
001BF80000
0018700000
0018000000
0018000000
0018000000
0018000000
0018000000
0018000000
0018000000
0018000000
0000000000
ENDCHAR

STARTCHAR cns3_2144
ENCODING 8516
SWIDTH 960 0
DWIDTH 34 0
BBX 34 34 0 -2
BITMAP
0000000000
0000380000
0000300000
0000318000
000030C000
0000306000
0000306000
0000306000
0000300300
7FFFFFFF80
0000300000
0020300000
0030300000
0050300000
0058300000
0098600000
0198600000
0318600000
030C600000
010CC00000
0006C00000
0006C00000
0003800000
0003C00000
0007600000
000E380000
00180E0000
0030078000
00E001F800
038000FF80
0E00003F00
7800000C00
0000000000
0000000000
ENDCHAR

STARTCHAR cns3_2145
ENCODING 8517
SWIDTH 960 0
DWIDTH 34 0
BBX 34 34 0 -2
BITMAP
0000000000
001C0E0000
00180C0000
00380C0000
00300C0000
00300C0000
00600C0000
00600C0000
00C00C0000
00C00C0000
01800C0000
09838C0000
0F030C0000
06060C0000
03060C0000
01860C0000
018C0C0000
00CC0C0000
00D80C0000
00580C0000
00300C0000
00300C0000
00600C0000
00620C0000
00C30C0200
00C38C0200
01818C0200
0181CC0200
031FCC0300
1FF8EE0700
1F80EFFF00
000067FE00
0000000000
0000000000
ENDCHAR

STARTCHAR cns3_2146
ENCODING 8518
SWIDTH 960 0
DWIDTH 34 0
BBX 34 34 0 -2
BITMAP
0000000000
0000000000
00E0000000
00C01C0000
00C0180000
00C0180000
00C0180000
00C0180000
1CC7180000
18C6180000
18C6180000
18C6180000
18C6180000
18C6180000
18C6180000
18C6180000
18C6180000
18C6180000
18C6180000
18C6180000
18C6180000
18C6180000
18C6180000
18C6180000
18C6180000
18C6180200
1FFE180200
1806180200
0000180200
0000180300
0000180700
00001FFF00
00000FFE00
0000000000
ENDCHAR

STARTCHAR cns3_2147
ENCODING 8519
SWIDTH 960 0
DWIDTH 34 0
BBX 34 34 0 -2
BITMAP
0000000000
0000E00000
0000C00000
0000C00000
0000C00000
0000C00000
0000C00300
7FFFFFFF80
000C0C0000
000C0C0000
000C0C0000
000C0C0000
000C0C0000
000C0C0000
000C0C0000
000C0C0000
000C0C0000
000C0C0000
000C0C0000
00180C0000
00180C0000
00180C0000
00180C0000
00300C0000
00300C0000
00600C0000
00600C0000
00C00C0000
01800C0000
03000C0000
06000C0000
1C000C0000
30000C0000
0000000000
ENDCHAR

STARTCHAR cns3_2148
ENCODING 8520
SWIDTH 960 0
DWIDTH 34 0
BBX 34 34 0 -2
BITMAP
0000000000
0001C00000
0001800000
0001800000
0001800000
0001800000
0001800000
0801800C00
0FFFFFFE00
0C01800C00
0C01C00C00
0C03C00C00
0C03400C00
0C03600C00
0C06600C00
0C06300C00
0C0C180C00
0C0C180C00
0C180E0C00
0C300F0C00
0C3003CC00
0C6001EC00
0CC000CC00
0D80000C00
0C00000C00
0C00000C00
0C00000C00
0C00000C00
0C00000C00
0C00001C00
0C0003FC00
0C00007800
0C00003000
0000000000
ENDCHAR

STARTCHAR cns3_2149
ENCODING 8521
SWIDTH 960 0
DWIDTH 34 0
BBX 34 34 0 -2
BITMAP
0000000000
0038000000
0070000000
0070000000
0060001800
00C7FFFC00
00C0801800
0180801800
0180801800
0300C01800
03C0C03000
0780403000
0D80403000
0D80606000
1980606000
3180606000
618030C000
018030C000
0180318000
0180198000
01801B0000
01800E0000
01800E0000
01800E0000
01801B0000
0180318000
018060C000
0180C07000
0183807C00
0186001F80
019C000E00
01B0000000
0180000000
0000000000
ENDCHAR

STARTCHAR cns3_214A
ENCODING 8522
SWIDTH 960 0
DWIDTH 34 0
BBX 34 34 0 -2
BITMAP
0000000000
0038000000
0070000000
00700E0000
00600C0000
00C00C0000
00C00C0000
0180180000
0180180000
0300180000
03C0180000
0780180000
0D80180000
0D80180000
1980300000
3180300000
6180300000
0180600000
0180602000
0180602000
0180C03000
0180C01800
0180C01800
0181800C00
0181800C00
0181800600
0183000600
0183001F00
01833FF300
019FFF0300
019F000300
0180000100
0180000000
0000000000
ENDCHAR

STARTCHAR cns3_214B
ENCODING 8523
SWIDTH 960 0
DWIDTH 34 0
BBX 34 34 0 -2
BITMAP
0000000000
0000000000
0070038000
0060030000
0060030000
0060030000
0060030000
0060030000
0060030000
0060030000
0060030000
0060030000
0060030000
0070030000
00D0078000
00D0068000
00D0068000
00D806C000
00D806C000
00CC066000
018C0C6000
018C0C6000
01860C3000
0306183000
0303181800
0603301800
0601B00C00
0C01E00E00
0C00600700
1800C00380
3001800100
6003000000
0000000000
0000000000
ENDCHAR

STARTCHAR cns3_214C
ENCODING 8524
SWIDTH 960 0
DWIDTH 34 0
BBX 34 34 0 -2
BITMAP
0000000000
0001C00000
0001800000
0001800000
0001800000
0001800000
0001800000
0001800000
0001C00000
0003600000
0006300000
000C180000
00180E0000
0030070000
006001C000
01C1C0F800
0701803F80
1C01800E00
7001800000
0001800000
0001800000
0001800000
0003C00000
0003600000
0006300000
000C180000
00180E0000
0030070000
00E001C000
038000F800
0F00003F80
7800000E00
0000000000
0000000000
ENDCHAR

STARTCHAR cns3_214D
ENCODING 8525
SWIDTH 960 0
DWIDTH 34 0
BBX 34 34 0 -2
BITMAP
0000000000
0200003000
03FFFFF800
0300003000
0300003000
0300003000
0300003000
0300003000
0300003000
0300003300
7FFFFFFF80
0300003000
0300003000
0300003000
0300003000
0300003000
0300003000
0300003300
7FFFFFFF80
0300003000
0300003000
0300003000
0300003000
0300003000
0300003000
0300003000
0300003000
0300003000
0300003000
0300007000
03000FF000
030001E000
030000C000
0000000000
ENDCHAR

STARTCHAR cns3_214E
ENCODING 8526
SWIDTH 960 0
DWIDTH 34 0
BBX 34 34 0 -2
BITMAP
0000000000
0200003000
03FFFFF800
0300C03000
0300C03000
0300C03000
0300C03000
0300C03000
0300C03000
0300C03000
0300C03000
0300C03000
0300C03000
0300C03000
03FFFFF000
0300003000
0300003000
0300003000
0300003000
0300003000
0300003000
0300003000
0300003000
0300003000
0300003000
0300003000
0300003000
0300003000
0300003000
0300003000
03000FF000
030001E000
030000C000
0000000000
ENDCHAR

STARTCHAR cns3_214F
ENCODING 8527
SWIDTH 960 0
DWIDTH 34 0
BBX 34 34 0 -2
BITMAP
0000000000
0000000000
0000000000
0800000600
0FFFFFFF00
1800000E00
1800001C00
3000003800
3000006000
0000000000
001C0E0000
00180C0000
00180C0000
00180C0000
00180C0000
00180C0000
00180C0000
00180C0000
00180C0000
00180C0000
00300C0000
00300C0000
00300C0000
00600C0100
00600C0100
00C00C0100
00C00C0100
01800C0180
03000E0380
06000FFF80
1C0007FF00
7000000000
0000000000
0000000000
ENDCHAR

STARTCHAR cns3_2150
ENCODING 8528
SWIDTH 960 0
DWIDTH 34 0
BBX 34 34 0 -2
BITMAP
0000000000
0000000000
0000000000
0000000300
103FFFFF80
1C00018000
0E00018000
0600018000
0200018000
0040018000
0040018000
00C0018000
0080018000
0180018000
0180018000
0300018000
0300018000
0600018000
0600018000
0C00018000
0C00018000
3800018000
1800018000
0800018000
0800018000
0C00018000
0C00018000
0C00018000
0C00018000
0000018000
00007F8000
00000F0000
0000060000
0000000000
ENDCHAR

STARTCHAR cns3_2151
ENCODING 8529
SWIDTH 960 0
DWIDTH 34 0
BBX 34 34 0 -2
BITMAP
0000000000
0000000000
0400001800
07FFFFFC00
0600001800
0600001800
0600031800
067FFF9800
0608031800
0608021800
0608061800
060C061800
06040C1800
06040C1800
0604081800
0606181800
0602181800
0603301800
0C01301800
0C01E01800
0C00E01800
0C00C01800
0C01E01800
1801B00C00
1807180D00
18060E0D00
181C078D00
303003ED00
3060008700
6000000780
6000000380
4000000180
0000000000
0000000000
ENDCHAR

STARTCHAR cns3_2152
ENCODING 8530
SWIDTH 960 0
DWIDTH 34 0
BBX 34 34 0 -2
BITMAP
0000000000
0000000000
0000000000
0000018000
03FFFFC000
0003018000
0003018000
0003018000
0003018000
0003018000
0003018000
0103018000
0186018000
00E6018000
007E01B000
003E019800
001E031C00
000E030E00
000C030F00
000C030700
000C030700
0018030300
0018030000
0030060000
0060060000
0060060000
00C0060000
0180060000
01800E0000
0301FE0000
0E003C0000
3800180000
0000000000
0000000000
ENDCHAR

STARTCHAR cns3_2153
ENCODING 8531
SWIDTH 960 0
DWIDTH 34 0
BBX 34 34 0 -2
BITMAP
0000000000
0003800000
0003000000
0003000000
0003000000
0003000000
0003000000
0003000000
0003000000
0003018000
01FFFFC000
0003018000
0003018000
0003018000
0006018000
0006018000
030601B000
0606019800
0606019800
0C06018C00
1C06018E00
380C018700
380C018700
300C018300
0018018000
0018018000
0030018000
0030038000
0060030000
00C0070000
0380FF0000
06003E0000
00001C0000
0000000000
ENDCHAR

STARTCHAR cns3_2154
ENCODING 8532
SWIDTH 960 0
DWIDTH 34 0
BBX 34 34 0 -2
BITMAP
0000000000
0000070000
0000060000
0000060000
000C060000
0FFE060000
000C060000
000C060000
000C060C00
000CFFFE00
000C060C00
000C060C00
0C0C060C00
0618060C00
0218060C00
0318060C00
01980C0C00
00D80C0C00
00F80C0C00
00700C0C00
00300C0C00
0070081800
0078181800
00D8181800
00CC301800
018C301800
018E601800
0306C03000
0606803000
0C01807000
18030FF000
000601E000
000C00C000
0000000000
ENDCHAR

STARTCHAR cns3_2155
ENCODING 8533
SWIDTH 960 0
DWIDTH 34 0
BBX 34 34 0 -2
BITMAP
0000000000
0010000000
0038000000
0030000000
0070000000
0060000000
00C0000600
00FFFFFF00
0180000600
0183800600
0303000600
0603000600
0603000600
0C03000600
1803000600
3003800600
2006800600
0006800600
0006C00600
0006600600
000C300600
0018300600
0018180600
00300E0600
0060078C00
01C003EC00
0300018C00
0000000C00
0000001800
0000003800
00000FF000
000001E000
000000C000
0000000000
ENDCHAR

STARTCHAR cns3_2156
ENCODING 8534
SWIDTH 960 0
DWIDTH 34 0
BBX 34 34 0 -2
BITMAP
0000000000
0070000000
0060000000
0060000000
00E0000000
00C0000000
00C0000C00
01FFFFFE00
0180000C00
0300000C00
0300000C00
0600000C00
0600000C00
0C3C000C00
0C07E00C00
1801F00C00
1000300C00
0000001C00
0000001800
0000001800
0000001800
00001E1800
0000701800
0007C01800
007C001800
01F0001800
01C0003000
0180003000
0000003000
0000006000
00001FE000
000003C000
0000018000
0000000000
ENDCHAR

STARTCHAR cns3_2157
ENCODING 8535
SWIDTH 960 0
DWIDTH 34 0
BBX 34 34 0 -2
BITMAP
0000000000
0000000000
0000000000
0000000000
0000000300
7FFFFFFF80
0600000000
0600000000
060001C000
0600018000
0618038000
060C030000
0606060000
0603060000
06018C0000
0600CC0000
0600780000
0600300000
0600780000
06006C0000
0600C60000
0601830000
0603018000
060600C000
060C00C000
0618004000
0630000000
0660000000
0700000300
07FFFFFF80
03FFFFFF80
0000000000
0000000000
0000000000
ENDCHAR

STARTCHAR cns3_2158
ENCODING 8536
SWIDTH 960 0
DWIDTH 34 0
BBX 34 34 0 -2
BITMAP
0000000000
0070070000
0060060000
0060060000
0060060000
0060060000
0060060000
0060060000
0060060C00
0063FFFE00
0FFF060C00
0060060C00
0060060C00
0060060C00
0060060C00
0060060C00
00600C0C00
00600C0C00
00600C1800
00600C1800
00600C1800
00600C1800
0060181800
0060181800
0060301800
0060301800
0060601800
0060C03000
0060C03000
0061807000
00630FF000
006601E000
006C00C000
0000000000
ENDCHAR

STARTCHAR cns3_2159
ENCODING 8537
SWIDTH 960 0
DWIDTH 34 0
BBX 34 34 0 -2
BITMAP
0000000000
000E000000
000C000000
000C000000
000C000000
000C030000
0FFFFF8000
000C030000
000C030000
0018030000
0018030000
0018030100
0030030100
0030030100
0060030180
00C0E30380
0380C3FF80
0600C1FF00
1C00C00000
3000C00000
0000C00000
0000C00300
7FFFFFFF80
0000C00000
0000C00000
0000C00000
0000C00000
0000C00000
0000C00000
0000C00000
0000C00000
0000C00000
0000C00000
0000000000
ENDCHAR

STARTCHAR cns3_215A
ENCODING 8538
SWIDTH 960 0
DWIDTH 34 0
BBX 34 34 0 -2
BITMAP
0000000000
000E0E0000
000C0C0000
000C0C0000
000C0C0000
000C0C0000
000C0C0000
000C0C0000
000C0C0000
000C0C0000
000C0C0000
000C0C0000
000C0C0000
000C0C0000
000C0C1800
0FFC0FFC00
000C0C0000
000C0C0000
000C0C0000
000C0C0000
000C0C0000
000C0C0000
000C0C0000
000C0C0000
000C0C0000
000C0C0000
000C0C0000
000C0C0000
000C0C0000
000C0C0000
000C0C0000
000C0C0000
000C0C0000
0000000000
ENDCHAR

STARTCHAR cns3_215B
ENCODING 8539
SWIDTH 960 0
DWIDTH 34 0
BBX 34 34 0 -2
BITMAP
0000000000
0000000000
0000000000
0400000300
07FFFFFF80
0600000000
0600380000
0600300000
0600300000
0600300000
0600301800
061FFFFC00
0600301800
0600301800
0600301800
0600601800
0600601800
0600601800
0600601800
0600601800
0600C03000
0C00C03000
0C00C03000
0C01803000
0C01803000
1803003000
1807006000
300C00E000
300C1FE000
201803C000
6070018000
00C0000000
0000000000
0000000000
ENDCHAR

STARTCHAR cns3_215C
ENCODING 8540
SWIDTH 960 0
DWIDTH 34 0
BBX 34 34 0 -2
BITMAP
0000000000
0003800000
0007000000
0007000000
0007000000
0006000000
0006000000
0006000C00
0FFFFFFE00
0006000000
0006000000
0006000000
000C0E0000
000C1C0000
000C1C0000
0018180000
0018300000
0030300000
0030300000
0060600000
0060600000
00C0C00000
00C0C18000
018180C000
0301806000
0303007000
0603003800
0C0601F800
180C7F1C00
007FE00C00
007E000C00
0000000400
0000000000
0000000000
ENDCHAR

STARTCHAR cns3_215D
ENCODING 8541
SWIDTH 960 0
DWIDTH 34 0
BBX 34 34 0 -2
BITMAP
0000000000
0000000000
0001C00000
0003800000
0003000000
0007000000
0006000000
0006000000
000C008000
000C00C000
0018006000
0018003000
0030001800
0031FFFC00
1FFFE00E00
1FE0000600
0000000600
0001C00000
0003800000
0003000000
0003000000
0006000000
0006000000
000C000000
000C018000
000C00E000
0018007000
0030003800
00301FFC00
1FFFF80C00
1FC0000E00
0000000600
0000000000
0000000000
ENDCHAR

STARTCHAR cns3_215E
ENCODING 8542
SWIDTH 960 0
DWIDTH 34 0
BBX 34 34 0 -2
BITMAP
0000000000
0000000000
0000000000
000C001800
0FFEFFFC00
000C201800
000C201800
000C201800
000C301800
0018301800
0018103000
0818103000
0C18103000
0618186000
0218186000
0330186000
01B008C000
00E00CC000
00E00CC000
0060058000
0070070000
00F0030000
00D8030000
0198078000
019C06C000
030C0CC000
030E186000
0606303800
0C06601C00
0801C00E00
1807000400
0000000000
0000000000
0000000000
ENDCHAR

STARTCHAR cns3_215F
ENCODING 8543
SWIDTH 960 0
DWIDTH 34 0
BBX 34 34 0 -2
BITMAP
0000000000
0000000000
0000018000
01FFFFC000
0030038000
0010070000
0018060000
000C0C0000
0006180000
0003300000
0001E00000
0001E00000
0007380000
001C1F0000
007007F800
03C000FE00
1E00001800
0000018000
01FFFFC000
0030038000
0010070000
0018060000
000C0C0000
0006180000
0003300000
0001E00000
0001E00000
0007380000
001C1F0000
007007F800
03C000FE00
1E00001800
0000000000
0000000000
ENDCHAR

STARTCHAR cns3_2160
ENCODING 8544
SWIDTH 960 0
DWIDTH 34 0
BBX 34 34 0 -2
BITMAP
0000000000
001C000000
0018000000
0018000000
0018000000
0718000400
0618FFFE00
0618100C00
0618100C00
0618101800
0618181800
0618181800
0618181800
0618083000
0618083000
06180C3000
06180C6000
06180C6000
06180C6000
061806C000
067806C000
06D8038000
0798030000
1F18038000
3C1806C000
30180CC000
00180C6000
0018183800
0018301C00
0018600F00
0018C00700
001B800000
0018000000
0000000000
ENDCHAR

STARTCHAR cns3_2161
ENCODING 8545
SWIDTH 960 0
DWIDTH 34 0
BBX 34 34 0 -2
BITMAP
0000000000
0000E00000
0000C00000
0000C00000
0000C00000
0000C00000
0000C00000
0000C00000
0000C00000
0000C00000
0000C00000
0000C00000
0000C00000
0000C00000
0000C01800
0FFFFFFC00
0000C00000
0000C00000
0000C00000
0000C00000
0000C30000
0000C18000
0000C0C000
0000C0E000
0000C06000
0000C07000
0000C03000
0000C00000
0000C00000
0000C00300
7FFFFFFF80
0000000000
0000000000
0000000000
ENDCHAR

STARTCHAR cns3_2162
ENCODING 8546
SWIDTH 960 0
DWIDTH 34 0
BBX 34 34 0 -2
BITMAP
0000000000
0000000000
0001C00000
0001800000
0001800000
0001800000
0C01801C00
0E01801800
0C01801800
0C01801800
0C01801800
0C01801800
0C01801800
0C01801800
0C01801800
0C01801800
0C01801800
0C01801800
0FFFFFF800
0C01801800
0001800000
0001800000
0001800000
0001800000
0001800000
0001800000
0001800000
0001800000
0001800000
0001800300
7FFFFFFF80
0000000000
0000000000
0000000000
ENDCHAR

STARTCHAR cns3_2163
ENCODING 8547
SWIDTH 960 0
DWIDTH 34 0
BBX 34 34 0 -2
BITMAP
0000000000
0000000000
0000000000
0000000300
7FFFFFFF80
0000C00000
0000C00000
0000C00000
0000C00000
0000C00000
0200C01800
03FFFFFC00
0300C01800
0300C01800
0300C01800
0300C01800
0300C01800
0300C01800
0300C01800
0300C01800
0300C01800
0300C01800
0300C01800
0300C03800
0300C7F800
0300C0F000
0300C00000
0000C00000
0000C00000
0000C00000
0000C00000
0000C00000
0000C00000
0000000000
ENDCHAR

STARTCHAR cns3_2164
ENCODING 8548
SWIDTH 960 0
DWIDTH 34 0
BBX 34 34 0 -2
BITMAP
0000000000
00001C0000
0000198000
000018E000
000018F000
0000183000
0000183000
0000180000
0000180300
7FFFFFFF80
0000180000
0000180000
0000180000
0000180000
00000C0000
00000C0000
00000C0000
00000C0000
00000C0000
0001860000
0FFFC60000
0000060000
0000030000
0000030000
0000018200
000001C200
000000C200
0000006200
0000007600
0000003E00
0000001F00
0000000F00
0000000300
0000000000
ENDCHAR

STARTCHAR cns3_2165
ENCODING 8549
SWIDTH 960 0
DWIDTH 34 0
BBX 34 34 0 -2
BITMAP
0000000000
0000000000
001C000000
0007800000
0001E00000
0000F00000
0100000C00
01FFFFFE00
0180000C00
0180000C00
0180000C00
0180000C00
0180000C00
0180000C00
0180000C00
0180000C00
01FFFFFC00
0180000C00
0180000000
0180000000
0300000000
0300000000
0300000000
0300000000
0600000000
0600000000
0600000000
0600000000
0C00000000
0C00000000
1800000000
3000000000
0000000000
0000000000
ENDCHAR

STARTCHAR cns3_2166
ENCODING 8550
SWIDTH 960 0
DWIDTH 34 0
BBX 34 34 0 -2
BITMAP
0000000000
0000000000
0000001800
01FFFFFC00
0000000000
0000000000
0000000000
0000000000
0100000C00
01FFFFFE00
0180000C00
0180000C00
0180000C00
0180000C00
0180000C00
0180000C00
0180000C00
01FFFFFC00
0180000C00
0180000000
0380000000
0300000000
0300000000
0300000000
0300000000
0600000000
0600000000
0600000000
0C00000000
0C00000000
1800000000
3000000000
0000000000
0000000000
ENDCHAR

STARTCHAR cns3_2167
ENCODING 8551
SWIDTH 960 0
DWIDTH 34 0
BBX 34 34 0 -2
BITMAP
0000000000
0000000000
0001C00000
0001800000
0001800000
0001800000
0001830000
0001FF8000
0001800000
0001800000
0001800000
000180C000
07FFFFE000
002001C000
002001C000
0030038000
0010030000
0018070000
00180E0000
000C0C0000
00061C0000
0006380000
0003300000
0001E00000
0000E00000
0001F00000
0007380000
000E0E0000
0038078000
00E003F000
038000FF00
1E00003C00
0000001800
0000000000
ENDCHAR

STARTCHAR cns3_2168
ENCODING 8552
SWIDTH 960 0
DWIDTH 34 0
BBX 34 34 0 -2
BITMAP
0000000000
0000000000
0007000000
000E000000
000E000000
001C000000
0018000000
0038001800
003FFFFC00
007001C000
00F8038000
00C8030000
03CC060000
03040C0000
0F060C0000
1C03180000
7001B00000
0000E00000
0001F00000
0003BC0000
000E0F0000
003807F800
00F001FE00
0380003F80
1E00000600
7000000000
0000000000
0000000000
0000000000
0000000000
0000000000
0000000000
0000000000
0000000000
ENDCHAR

STARTCHAR cns3_2169
ENCODING 8553
SWIDTH 960 0
DWIDTH 34 0
BBX 34 34 0 -2
BITMAP
0000000000
0000000000
0000003000
07FFFFF800
0000C00000
0000C00000
0000C00000
0000C00000
0000C00000
0000C00000
0000C00000
0000C00000
0000C00300
7FFFFFFF80
0001800000
0001800000
0001800000
0001B80000
0003300000
0003300000
0003300000
0006300000
0006300000
000C300000
0018300200
0030300200
0060300200
00C0300200
0180300300
0700380700
0C003FFF00
38001FFE00
6000000000
0000000000
ENDCHAR

STARTCHAR cns3_216A
ENCODING 8554
SWIDTH 960 0
DWIDTH 34 0
BBX 34 34 0 -2
BITMAP
0000000000
0000000000
0000000000
0000003000
1FFFFFF800
0000600000
0000600000
01C0600000
0180600000
0180600000
0300600000
0300600000
0300600000
0300600000
0600600C00
07FFFFFE00
0600600000
0E04600000
0C02600000
0003E00000
0000E00000
0000700000
00007C0000
00006E0000
0000678000
000063F000
000060F800
0000607000
0000E00000
001FE00000
0007C00000
0001800000
0000000000
0000000000
ENDCHAR

STARTCHAR cns3_216B
ENCODING 8555
SWIDTH 960 0
DWIDTH 34 0
BBX 34 34 0 -2
BITMAP
0000000000
0038000000
0070000000
0070000000
00E0000000
00C0000000
01C0003000
01FFFFF800
0300C00000
0300C00000
0600C00000
0600C00000
0C00C00000
1800C00000
3000C00000
6000C00000
0000C00000
0000C00000
0000C06000
03FFFFF000
0000C00000
0000C00000
0000C00000
0000C00000
0000C00000
0000C00000
0000C00000
0000C00000
0000C00000
0000C00000
0000C00600
1FFFFFFF00
0000000000
0000000000
ENDCHAR

STARTCHAR cns3_216C
ENCODING 8556
SWIDTH 960 0
DWIDTH 34 0
BBX 34 34 0 -2
BITMAP
0000000000
0000000000
0000E00000
0000C00000
0000C00000
0380C03800
0300C03000
0300C03000
0300C03000
0300C03000
0300C03000
03FFFFF000
0300003000
0000000000
0000000000
0000000000
0000000000
0000000000
0000000000
0000006000
03FFFFF000
0000000000
0000000000
0000000000
0000000000
0000000000
0000000000
0000000000
0000000000
0000000600
3FFFFFFF00
0000000000
0000000000
0000000000
ENDCHAR

STARTCHAR cns3_216D
ENCODING 8557
SWIDTH 960 0
DWIDTH 34 0
BBX 34 34 0 -2
BITMAP
0000000000
0038000000
0070000000
0070000C00
0067FFFE00
00C00C0000
00C00C0000
01800C0000
01800C0000
03000C0000
07C00C0000
07800C0000
0D800C0000
19800C0000
31800C0600
619FFFFF00
01800C0000
01800C0000
01800C0000
01800C0000
01800C0000
01800C0000
01800C0000
01800C0000
01800C0000
01800C0000
01800C0000
01800C0000
01800C0000
01800C0000
01800C0000
01800C0000
01800C0000
0000000000
ENDCHAR

STARTCHAR cns3_216E
ENCODING 8558
SWIDTH 960 0
DWIDTH 34 0
BBX 34 34 0 -2
BITMAP
0000000000
0038000000
00700E0000
00700C0000
00600C0000
00C00C0000
00C00C0000
01800C0000
01800C0000
03000C0000
03C00C0000
07800C0C00
0D8FFFFE00
0D800C0000
19800E0000
31800E0000
61801A0000
01801B0000
01801B0000
0180390000
0180318000
0180318000
0180618000
018060C000
0180C0E000
0181807000
0181803800
0183003800
0186001C00
018C000E00
0198000F80
01B0000400
0180000000
0000000000
ENDCHAR

STARTCHAR cns3_216F
ENCODING 8559
SWIDTH 960 0
DWIDTH 34 0
BBX 34 34 0 -2
BITMAP
0000000000
0038000000
0030000000
0061006000
0061FFF000
00C1806000
00C1806000
0181806000
0181806000
0301806000
03C1806000
0781806000
0F81806000
0D81906000
1981986000
31818C6000
61818C6000
01818E6000
0181866000
0181866000
0181806000
0183006000
0183006000
0183006000
0183006000
0183006100
0183006100
0186006100
0186006100
018C006180
018C006380
0198007F80
01B0003F00
0000000000
ENDCHAR

STARTCHAR cns3_2170
ENCODING 8560
SWIDTH 960 0
DWIDTH 34 0
BBX 34 34 0 -2
BITMAP
0000000000
0001C00000
0001800000
0001800000
0001800000
0001800000
0001800000
0001801800
0001FFFC00
0001800000
0001800000
0001800000
0001800000
0001800000
0001800300
7FFFFFFF80
0000000000
0000E00000
0000C00000
0000C00000
0000C00000
0000C00000
0000C00000
0001E00000
0003300000
0006180000
000C0C0000
0038070000
007003C000
01C000F800
0700003F80
1C00000E00
0000000000
0000000000
ENDCHAR

STARTCHAR cns3_2171
ENCODING 8561
SWIDTH 960 0
DWIDTH 34 0
BBX 34 34 0 -2
BITMAP
0000000000
0038000000
0070000000
0070000C00
006FFFFE00
00C0618000
00C0618000
0180618000
0180618000
0300618000
03C0618000
07C0618000
0D80618000
0D80618000
0980618000
1980618000
3180618000
6180618000
0180618000
0180618000
0180C18000
0180C18000
0180C18000
0180C18200
0181818200
0181818200
0183018200
0183018200
0186018300
018601C700
018C01FF00
019800FE00
01B0000000
0000000000
ENDCHAR

STARTCHAR cns3_2172
ENCODING 8562
SWIDTH 960 0
DWIDTH 34 0
BBX 34 34 0 -2
BITMAP
0000000000
0038070000
0030060000
0070060000
0060060000
00C0060000
00C0060000
0180060000
0180060000
0380060000
03C0060000
0780E64000
0F81C66000
0D81862000
1981863000
1183063000
3183061800
6186061800
0186060C00
018C060E00
018C060600
018C060700
0198060300
0198060300
01B0060100
01A0060000
0180060000
0180060000
0180060000
01800E0000
0181FE0000
01803C0000
0180180000
0000000000
ENDCHAR

STARTCHAR cns3_2173
ENCODING 8563
SWIDTH 960 0
DWIDTH 34 0
BBX 34 34 0 -2
BITMAP
0000000000
00200E0000
00380C0000
00700C0000
00601C0000
00C0180000
00C0380000
0180300C00
01807FFE00
0300600C00
07C0C00C00
0781800C00
0D81801800
0983C01800
1986601800
318C303000
6198383000
01901C6000
01800C6000
01800CC000
018000C000
0180018000
0180030000
0180030000
0180060000
01800C0000
0180180000
0180700000
0180C00000
0183800000
018E000000
0198000000
0180000000
0000000000
ENDCHAR

STARTCHAR cns3_2174
ENCODING 8564
SWIDTH 960 0
DWIDTH 34 0
BBX 34 34 0 -2
BITMAP
0000000000
00380E0000
00700C0000
00701C0000
0060180000
00C0180000
00C0300000
0180300000
0180300000
0300300000
03C0300600
079FFFFF00
0D80606000
0D80C06000
1980C06000
3180C06000
618180C000
018180C000
018180C000
0183018000
0183818000
0186E18000
01863B0000
01860F0000
0180078000
01800DC000
018018E000
0180307800
0180E01C00
0181C00E00
018F000600
0198000000
0180000000
0000000000
ENDCHAR

STARTCHAR cns3_2175
ENCODING 8565
SWIDTH 960 0
DWIDTH 34 0
BBX 34 34 0 -2
BITMAP
0000000000
0000000000
0000E00000
0001C00000
0001C00000
0003E00000
0007700000
0006380000
000C1C0000
00180E0000
0070070000
00E003C000
01C0F0F000
0301E07E00
0607001F80
1C1C000600
7070000000
03C0000000
00001F0000
00003E0000
0000E00000
0003C00000
000F000000
0078000000
07C000F000
000001E000
0000078000
00001E0000
0000F80000
0007C00000
007E000000
07F0000000
0000000000
0000000000
ENDCHAR

STARTCHAR cns3_2176
ENCODING 8566
SWIDTH 960 0
DWIDTH 34 0
BBX 34 34 0 -2
BITMAP
0000000000
0003800000
0001800000
0000C00000
0000C00000
0001E00000
0003600000
0006300000
000C180000
00180C0000
0030070000
0060038000
00C000E000
0380007C00
0600001F80
1C00018E00
70FFFFC000
0000C00000
0000C00000
0000C00000
0000C00000
0000C00000
0000C00000
0000C00000
0000C00000
0000C00000
0000C00000
0000C00000
0000C00000
0000C00000
0000C00600
1FFFFFFF00
0000000000
0000000000
ENDCHAR

STARTCHAR cns3_2177
ENCODING 8567
SWIDTH 960 0
DWIDTH 34 0
BBX 34 34 0 -2
BITMAP
0000000000
0000000000
1000000C00
1FFFFFFE00
1800000C00
1800000C00
18600C0C00
187FFE0C00
18600C0C00
18600C0C00
18600C0C00
18600C0C00
18600C0C00
18600C0C00
187FFC0C00
18600C0C00
1860000C00
1860000C00
1860000C00
1860000C00
1860020C00
1860020C00
1860020C00
1870060C00
187FFF0C00
183FFE0C00
1800000C00
1800000C00
1800001C00
180003FC00
1800007800
1800003000
0000000000
0000000000
ENDCHAR

STARTCHAR cns3_2178
ENCODING 8568
SWIDTH 960 0
DWIDTH 34 0
BBX 34 34 0 -2
BITMAP
0000000000
0000000000
0000000000
0800000C00
0FFFFFFE00
0C00000C00
0C00000C00
0C00000C00
0C00000C00
0C00000C00
0C20060C00
0C3FFF0C00
0C30060C00
0C30060C00
0C30060C00
0C30060C00
0C30060C00
0C30060C00
0C30060C00
0C30060C00
0C30060C00
0C3FFE0C00
0C30060C00
0C00000C00
0C00000C00
0C00000C00
0C00000C00
0C00000C00
0C00000C00
0C00001C00
0C0003FC00
0C0000F800
0C00003000
0000000000
ENDCHAR

STARTCHAR cns3_2179
ENCODING 8569
SWIDTH 960 0
DWIDTH 34 0
BBX 34 34 0 -2
BITMAP
0000000000
0000000000
0406203000
07FF3FF800
0606303000
0606303000
0606303000
0606303000
0606303000
0606303000
0606303000
0606303000
0606303000
0606303300
7FFFFFFF80
0606303000
0606303000
0606303000
0606303000
0606303000
0606303000
0606303000
0606303000
0606303000
0606303000
0606303000
0606303000
0606303000
060E307000
06FE33F000
061C30E000
0600300000
0000000000
0000000000
ENDCHAR

STARTCHAR cns3_217A
ENCODING 8570
SWIDTH 960 0
DWIDTH 34 0
BBX 34 34 0 -2
BITMAP
0000000000
0000000000
0400000600
07FFFFFF00
0C00000E00
0C00001800
1C00001000
3838000000
0030000000
0030000000
0070000000
0060001800
007FFFFC00
00C0000000
00C0000000
00C0006000
01FFFFF000
0180006000
0300006000
0200006000
0000006000
0000006300
7FFFFFFF80
000000C000
000000C000
000000C000
000000C000
0000018000
0000018000
0000030000
00007F0000
00001E0000
00000C0000
0000000000
ENDCHAR

STARTCHAR cns3_217B
ENCODING 8571
SWIDTH 960 0
DWIDTH 34 0
BBX 34 34 0 -2
BITMAP
0000000000
0000000000
0200000600
03FFFFFF00
0300000600
0300000600
0300000600
0300000600
0300000600
0300000600
03FFFFFE00
0300000600
0304030000
0307FF8000
0306030000
0306030000
0306030000
0306030000
0306030000
0306030000
0306030000
030C030000
030C030000
030C030000
060C030200
0618030200
0618030200
0C30030200
0C30030300
1860038700
30C003FF00
618001FE00
0000000000
0000000000
ENDCHAR

STARTCHAR cns3_217C
ENCODING 8572
SWIDTH 960 0
DWIDTH 34 0
BBX 34 34 0 -2
BITMAP
0000000000
0000000000
01C0000000
0180000600
0183FFFF00
01800C0600
01800C0600
01800C0600
01800C0600
01800C0600
01980C0600
1FFC180600
0180180600
0180180600
0180180600
0180180600
0180180600
0180300C00
0180300C00
0180300C00
0186300C00
019C600C00
01F0600C00
07C0C00C00
3F00C01800
3C01801800
3003001800
0006001800
000C003800
00180FF000
003001E000
000000C000
0000000000
0000000000
ENDCHAR

STARTCHAR cns3_217D
ENCODING 8573
SWIDTH 960 0
DWIDTH 34 0
BBX 34 34 0 -2
BITMAP
0000000000
0001C00000
0003800700
000F800600
007C070600
07F0060600
0030060600
0030060600
0030060600
0030060600
0030060600
0030060600
0030C60600
3FFFE60600
0030060600
0030060600
0030060600
0030060600
0030060600
0030060600
0030060600
0030060600
0030060600
0030060600
0030060600
0030060600
0030000600
0030000600
0030000600
0030000E00
003001FE00
0030003C00
0030001800
0000000000
ENDCHAR

STARTCHAR cns3_217E
ENCODING 8574
SWIDTH 960 0
DWIDTH 34 0
BBX 34 34 0 -2
BITMAP
0000000000
0038000000
0070000000
0070000000
0060000600
00C0FFFF00
00C0060600
0180060600
0100060600
0100060600
2300060600
320E060600
1C0C060600
0C18060600
0E18060600
0730060600
0330060600
01600C0600
00600C0600
00C00C0600
00C00C0C00
01980C0C00
018C180C00
030C180C00
0606300C00
0C0F300C00
0DFB601800
3F83C01800
3800C01800
0001803800
000307F000
000600F000
000C006000
0000000000
ENDCHAR

STARTCHAR cns3_2221
ENCODING 8737
SWIDTH 960 0
DWIDTH 34 0
BBX 34 34 0 -2
BITMAP
0000000000
0000000000
0000000000
1000000C00
1FFFFFFE00
1800000C00
1801C00C00
1801800C00
1801800C00
1801800C00
1801818C00
187FFFCC00
1801818C00
1801818C00
1803818C00
1803018C00
1803018C00
1803018C00
1803018C00
1803018C00
1806018C00
1806030C00
180C030C00
1818030C00
1818030C00
1830060C00
18E1FE0C00
19803C0C00
1800180C00
1800000C00
1FFFFFFC00
1800000C00
0000000000
0000000000
ENDCHAR

STARTCHAR cns3_2222
ENCODING 8738
SWIDTH 960 0
DWIDTH 34 0
BBX 34 34 0 -2
BITMAP
0000000000
0038000000
0070000000
0060000000
0060000000
00C0000000
00C0000C00
01FFFFFE00
0180000C00
0301C00C00
0301800C00
0601800C00
0621830C00
0C3FFF8C00
0830000C00
1830000C00
3030000C00
0030001800
0030001800
0030001800
0030001800
0030001800
0030001800
0030001800
0038061800
003FFF9800
001FFFB000
0000003000
0000003000
0000007000
00001FE000
000003C000
0000018000
0000000000
ENDCHAR

STARTCHAR cns3_2223
ENCODING 8739
SWIDTH 960 0
DWIDTH 34 0
BBX 34 34 0 -2
BITMAP
0000000000
001C000000
0038000000
0030000000
0070000000
0060000000
00C0000600
01FFFFFF00
0180000600
0300000600
0600E00600
0600C00600
0C00C00600
38E0C00600
60C0C00600
00C0C00600
00C1E00600
00C1B00600
00C3980600
00C30E0600
00C6078600
00C603CC00
00CC018C00
00D8000C00
00C0018C00
00FFFFCC00
00C0000C00
0000000C00
0000001800
0000003800
000007F000
000000F000
0000006000
0000000000
ENDCHAR

STARTCHAR cns3_2224
ENCODING 8740
SWIDTH 960 0
DWIDTH 34 0
BBX 34 34 0 -2
BITMAP
0000000000
001C000000
0038000000
0038000000
0070000000
0060000000
00E0000600
00FFFFFF00
01C0000600
0183800600
0303000600
0703000600
0606000600
0C06060600
180FFF0600
301C060600
6018060600
00300E0600
00700C0600
00C81C0600
018C180C00
0306380C00
0006700C00
0000E00C00
0001C00C00
0007800C00
000E000C00
003C000C00
0070001800
01C0003800
030007F000
000000F000
0000006000
0000000000
ENDCHAR

STARTCHAR cns3_2225
ENCODING 8741
SWIDTH 960 0
DWIDTH 34 0
BBX 34 34 0 -2
BITMAP
0000000000
001C000000
0038000000
0038000000
0030000000
0070000000
0060000000
00C0000600
00FFFFFF00
0181830600
0381830600
0301830600
0703030600
0663060C00
0C33060C00
0C1E060C00
180E0C0C00
30070C0C00
600D8C0C00
000DF80C00
0018780C00
0038380C00
00707E0C00
00E06F9800
0180C3F800
0300C0F800
0001807C00
0003803F00
0007003780
000C007300
00380FF000
006001E000
000000C000
0000000000
ENDCHAR

STARTCHAR cns3_2226
ENCODING 8742
SWIDTH 960 0
DWIDTH 34 0
BBX 34 34 0 -2
BITMAP
0000000000
0000000000
2000000C00
3FFFFFFE00
3000000000
3000000000
3000000000
3000000000
3000006000
30FFFFF000
3000C00000
3000C00000
3000C00000
3000C00000
3000C00000
3000C00000
3000C00000
3000C00000
3000C00000
3000C00000
3000C00000
3000C00000
3000C00000
3000C03000
33FFFFF800
3000000000
3000000000
3000000000
3000000300
3FFFFFFF80
3000000000
0000000000
0000000000
0000000000
ENDCHAR

STARTCHAR cns3_2227
ENCODING 8743
SWIDTH 960 0
DWIDTH 34 0
BBX 34 34 0 -2
BITMAP
0000000000
00001C0000
0000180000
0000180000
0000180000
1018180000
1FFC180000
1818180000
1818180000
1818180000
1818180000
1818180000
1818180000
18181F0000
18181B8000
181818E000
1818187800
1818183C00
1818181E00
1818180E00
1FF8180600
1818180000
0000180000
0000180000
0000180000
0000180000
0000180000
0000180000
0000180000
0000180000
0000180000
0000180000
0000180000
0000000000
ENDCHAR

STARTCHAR cns3_2228
ENCODING 8744
SWIDTH 960 0
DWIDTH 34 0
BBX 34 34 0 -2
BITMAP
0000000000
0000000000
0000080300
00030FFF80
3FFF8C0300
00C00C0300
00C00C0300
00C00C0300
00C00C0300
00C00C0300
00C00C0300
00C00C0300
00C00C0300
00C00C0300
00C00C0300
00C00C0300
00C00C0300
00C00C0300
00C00C0300
00C00C0300
00C18C0300
00CE0C0300
00F80C0700
07C00CFF00
3E000C1E00
38000C0C00
30000C0000
00000C0000
00000C0000
00000C0000
00000C0000
00000C0000
00000C0000
0000000000
ENDCHAR

STARTCHAR cns3_2229
ENCODING 8745
SWIDTH 960 0
DWIDTH 34 0
BBX 34 34 0 -2
BITMAP
0000000000
0000000000
0000000000
0400000300
07FFFFFF80
0600000000
0600000000
0600003000
063FFFFC00
0601800000
0601800000
0601800000
0601800000
0601800000
0601806000
0601FFF000
0601806000
0601806000
0601806000
0601806000
060300C000
060300C000
060300C000
0C0600C000
0C0600C000
0C0C00C000
0C1C00C000
0C18018000
1830038000
18607F8000
30C00F0000
6380060000
0000000000
0000000000
ENDCHAR

STARTCHAR cns3_222A
ENCODING 8746
SWIDTH 960 0
DWIDTH 34 0
BBX 34 34 0 -2
BITMAP
0000000000
0001C00000
0001800000
0003800000
0003000000
0007000000
0006000300
7FFFFFFF80
000C180000
00180C0000
0018060000
0030030000
0070018000
00C380E000
01C3007800
0703001E00
1C06000F80
7006000300
0006000000
0006000000
000C000000
000C000000
000C030000
0018018000
0018018000
003000C000
003000E000
00603FF000
0FFFF07800
0FF0003800
0000003800
0000001800
0000000000
0000000000
ENDCHAR

STARTCHAR cns3_222B
ENCODING 8747
SWIDTH 960 0
DWIDTH 34 0
BBX 34 34 0 -2
BITMAP
0000000000
0000007000
000000E000
00001FE000
0007FC0000
03FE000000
0006000000
0006000000
0006000000
0006000000
0006000C00
0FFFFFFE00
000C000000
000C000000
000C000000
000C018000
000FFFE000
000C01C000
000E018000
001A018000
001B030000
0031860000
0060860000
00C0CC0000
00C0780000
0180300000
0300780000
0300CE0000
0E03838000
180E01F000
3038007F00
00E0001800
0000000000
0000000000
ENDCHAR

STARTCHAR cns3_222C
ENCODING 8748
SWIDTH 960 0
DWIDTH 34 0
BBX 34 34 0 -2
BITMAP
0000000000
00001C0000
0000180000
0000180000
0000180000
1030180000
1FF8180000
1830180000
1830180000
1830180000
1830180000
1830180000
1830180000
18301C0000
18303C0000
1830360000
1830360000
1830360000
1830660000
1830630000
1FF0630000
1830C18000
0000C18000
000180C000
000180C000
0003006000
0003007000
0006003800
000E003F00
0018001F80
0038000300
00E0000000
0000000000
0000000000
ENDCHAR

STARTCHAR cns3_222D
ENCODING 8749
SWIDTH 960 0
DWIDTH 34 0
BBX 34 34 0 -2
BITMAP
0000000000
0000070000
0000060000
0000060000
0000060000
1030060000
1FF8060000
1830060000
1830060000
1830060000
1830060000
1830060000
1830060300
1837FFFF80
1830060000
1830060000
1830060000
1830060000
1830060000
1830060000
1FF0060000
1830060000
0000060000
0000060000
0000060000
0000060000
0000060000
0000060000
0000060000
0000060000
0000060000
0000060000
0000060000
0000000000
ENDCHAR

STARTCHAR cns3_222E
ENCODING 8750
SWIDTH 960 0
DWIDTH 34 0
BBX 34 34 0 -2
BITMAP
0000000000
0000000000
008000C000
00FFFFE000
00C000C000
00C000C000
00C000C000
00C000C000
00C000C000
00C000C000
00FFFFC000
00C000C000
0000000000
0000001800
0FFFFFFC00
0038000000
0030000000
0070000000
0060000000
00E000C000
00FFFFE000
018000C000
030000C000
0000018000
0000018000
0000018000
0000018000
0000030000
0000030000
0000070000
0000FE0000
00001E0000
00000C0000
0000000000
ENDCHAR

STARTCHAR cns3_222F
ENCODING 8751
SWIDTH 960 0
DWIDTH 34 0
BBX 34 34 0 -2
BITMAP
0000000000
0000000000
0000000000
0000000000
0000001800
1037FFFC00
1FF8801800
1830801800
1830801800
1830C01800
1830C03000
1830403000
1830403000
1830606000
1830606000
1830206000
183030C000
183030C000
1830118000
1830198000
1FF00B0000
18300F0000
00000E0000
00000E0000
00001F0000
0000318000
000060C000
0000C07000
0003807C00
0006001F80
001C000E00
0070000000
0000000000
0000000000
ENDCHAR

STARTCHAR cns3_2230
ENCODING 8752
SWIDTH 960 0
DWIDTH 34 0
BBX 34 34 0 -2
BITMAP
0000000000
0000380000
0000300000
0000300000
0000300000
2060300000
3FF0300000
3060300000
3060300000
3060300000
306030C000
306FFFE000
306030C000
306030C000
306030C000
306030C000
306030C000
306030C000
306030C000
306060C000
306060C000
3FE060C000
306060C000
0000C0C100
0000C0C100
000180C100
000180C100
000300C180
000300C380
000600FF80
001C007F00
0030000000
0000000000
0000000000
ENDCHAR

STARTCHAR cns3_2231
ENCODING 8753
SWIDTH 960 0
DWIDTH 34 0
BBX 34 34 0 -2
BITMAP
0000000000
000E000000
000C000000
000C000000
000C000000
000C030000
0FFFFF8000
000C030000
000C030000
0018030000
0018030000
0018030100
0030030100
0030030100
0060030180
00C0030380
038003FF80
060001FF00
1C00000000
7080003000
00FFFFF800
00C0003000
00C0003000
00C0003000
00C0003000
00C0003000
00C0003000
00C0003000
00C0003000
00FFFFF000
00C0003000
0000000000
0000000000
0000000000
ENDCHAR

STARTCHAR cns3_2232
ENCODING 8754
SWIDTH 960 0
DWIDTH 34 0
BBX 34 34 0 -2
BITMAP
0000000000
0000000000
0000000000
1000000C00
1FFFFFFE00
1800000C00
1800000C00
1800060C00
187FFF0C00
1808060C00
1808060C00
1808060C00
18080C0C00
180C0C0C00
1804180C00
1804180C00
1806100C00
1802300C00
1803600C00
1801600C00
1801C00C00
1801C00C00
1801E00C00
1803300C00
1806180C00
180C0E0C00
1818078C00
1870018C00
19C0000C00
1800000C00
1FFFFFFC00
1800000C00
0000000000
0000000000
ENDCHAR

STARTCHAR cns3_2233
ENCODING 8755
SWIDTH 960 0
DWIDTH 34 0
BBX 34 34 0 -2
BITMAP
0000000000
01C0070000
0180060000
0180060000
0180060000
0180060000
0180060000
0180060000
0180060000
0180060600
0198FFFF00
1FFC060600
0180060600
0180060600
01800C0600
01800C0600
01800C0600
01800C0600
01800C0600
01800C0600
0186180600
019C180600
01F0180600
03C0300600
1F00300C00
3C00600C00
3000C00C00
0000C00C00
0001800C00
0003001C00
000603F800
000C007800
0018003000
0000000000
ENDCHAR

STARTCHAR cns3_2234
ENCODING 8756
SWIDTH 960 0
DWIDTH 34 0
BBX 34 34 0 -2
BITMAP
0000000000
00E00E0000
00C00C0000
00C00C0000
00C00C0000
00C00C0000
00C00C0000
00C00C0000
00C00C0000
00C00C0000
00CC0C0000
1FFE0C0000
00C00C0000
00C00F8000
00C00DE000
00C00C7000
00C00C3C00
00C00C1E00
00C00C0F00
00C00C0700
00C30C0300
00CE0C0000
00F80C0000
03E00C0000
1F800C0000
3E000C0000
38000C0000
00000C0000
00000C0000
00000C0000
00000C0000
00000C0000
00000C0000
0000000000
ENDCHAR

STARTCHAR cns3_2235
ENCODING 8757
SWIDTH 960 0
DWIDTH 34 0
BBX 34 34 0 -2
BITMAP
0000000000
0000000000
0000000000
0070000000
006001C000
0060018000
00C0018000
00C0018000
0181830000
01FFC30000
0181830000
0383878000
038306C000
06830E6000
06C60C6000
0C460C3000
0C66181800
186C181C00
303C300E00
6018300700
003C600380
0036000000
0063800000
0060F80000
01C01FF800
018003FF00
0300007800
0E00000000
1800000000
7000000000
0000000000
0000000000
0000000000
0000000000
ENDCHAR

STARTCHAR cns3_2236
ENCODING 8758
SWIDTH 960 0
DWIDTH 34 0
BBX 34 34 0 -2
BITMAP
0000000000
0038000000
0070000000
0060100600
00C01FFF00
00C0180600
00C3180600
00FF980600
0187180600
0183180600
0303180600
0303180600
0603180600
0606180600
0F06180600
1986180600
31CC180600
60CC180600
006C180600
0038180600
0018180E00
003019FE00
0030183C00
0060181800
00C0180000
00C0180000
0180180000
0300180000
0600180000
0C00180000
1800180000
7000180000
0000180000
0000000000
ENDCHAR

STARTCHAR cns3_2237
ENCODING 8759
SWIDTH 960 0
DWIDTH 34 0
BBX 34 34 0 -2
BITMAP
0000000000
0000E00000
0000C00000
0000C00000
0000C00000
0000C00000
0001800000
0001800300
7FFFFFFF80
0003C00000
0003400000
0006600000
0006200000
000C300000
0018180000
0019CC0000
0031860000
0061870000
0061838000
00C181C000
018180F000
0301807800
0301803E00
0E01861F80
38FFFF0600
0001800000
0001800000
0001800000
0001800000
0001800000
0001800000
0001800000
0001800000
0000000000
ENDCHAR

STARTCHAR cns3_2238
ENCODING 8760
SWIDTH 960 0
DWIDTH 34 0
BBX 34 34 0 -2
BITMAP
0000000000
0001C00000
0001800000
0003800000
0003000000
0006000300
7FFFFFFF80
000C180000
00180C0000
0018060000
0030030000
0060018000
00C000E000
0180007800
0738039E00
1C30030F80
7030030000
0030030000
0030030000
0030030000
0030030000
0030030000
0030030000
0030030000
0060030000
0060030000
0060030000
00C0030000
00C0030000
00C0030000
0180030000
0300030000
0600030000
0000000000
ENDCHAR

STARTCHAR cns3_2239
ENCODING 8761
SWIDTH 960 0
DWIDTH 34 0
BBX 34 34 0 -2
BITMAP
0000000000
0000E00000
00C0C00000
0070C00000
0038C00000
001CC00000
000CC00000
000CC00000
0000C00000
0380C00000
01E0C00000
0078C00000
0038C00000
0018C00000
0000C00300
7FFFFFFF80
0000C00000
0001E00000
0001A00000
0003300000
0003180000
0006080000
00060C0000
000C060000
000C030000
0018038000
003001C000
006000E000
01C0007C00
0300003F80
0E00000E00
3800000000
0000000000
0000000000
ENDCHAR

STARTCHAR cns3_223A
ENCODING 8762
SWIDTH 960 0
DWIDTH 34 0
BBX 34 34 0 -2
BITMAP
0000000000
0001C00000
0001800000
0001800000
0003800000
0003000000
0003000300
7FFFFFFF80
0006180000
000C0C0000
0018060000
0018030000
0030018000
006001C000
00C000F000
0180003800
0700001E00
1C00000F80
71C0007000
0180006000
0180006000
0180006000
0180006000
0180006000
0180006000
0180006000
0180006000
0180006000
0180006000
0180006000
01FFFFE000
0180006000
0000000000
0000000000
ENDCHAR

STARTCHAR cns3_223B
ENCODING 8763
SWIDTH 960 0
DWIDTH 34 0
BBX 34 34 0 -2
BITMAP
0000000000
00E0000000
00C0000000
01C0000300
0181FFFF80
0180006000
0180006000
0180006000
030C006000
3FFE006000
030C006000
030C006000
030C006000
060C006000
0618006000
0618006000
0C18006000
0C18006000
0C30006000
1830006000
1830006000
1C30006000
0F60006000
03E0006000
00E0006000
00F0006000
00F0006000
0198006000
0388006000
070000E000
1C001FE000
700003C000
0000018000
0000000000
ENDCHAR

STARTCHAR cns3_223C
ENCODING 8764
SWIDTH 960 0
DWIDTH 34 0
BBX 34 34 0 -2
BITMAP
0000000000
0000E00000
0000C00000
0000C00000
0000C00000
0800C00300
0FFFFFFF80
1800000700
1800000600
3000000C00
700000C800
67FFFFE000
006000C000
002001C000
0020018000
0030018000
0010030000
0018030000
000C030000
0006060000
0006060000
00030C0000
00018C0000
0001D80000
0000F80000
0000700000
0000700000
0000DC0000
00038F0000
000607E000
001C01FF00
0070007C00
01C0000000
0000000000
ENDCHAR

STARTCHAR cns3_223D
ENCODING 8765
SWIDTH 960 0
DWIDTH 34 0
BBX 34 34 0 -2
BITMAP
0000000000
0000E00000
0000C00000
0000C00000
0000C00000
0800C00600
1FFFFFFF00
1800000E00
3800000C00
7000001800
701C0E1000
00180C0000
00180C0000
00180C0000
00180C0000
00180C0000
00180C0000
00180C0000
00180C0000
00180C0000
00380C0000
00300C0000
00300C0000
00300C0100
00600C0100
00600C0100
00600C0100
00C00C0180
03800C0380
06000FFF80
1C0007FF00
7000000000
0000000000
0000000000
ENDCHAR

STARTCHAR cns3_223E
ENCODING 8766
SWIDTH 960 0
DWIDTH 34 0
BBX 34 34 0 -2
BITMAP
0000000000
000000E000
000000C000
000000C000
000C00C000
0FFE00C000
000C00C000
000C00C000
000C00C000
000C00CC00
000DFFFE00
000C00C000
0C1800C000
041800C000
061800C000
021800C000
0318C0C000
01B060C000
00F030C000
006038C000
006018C000
007018C000
00D008C000
00D800C000
019800C000
018C00C000
030C00C000
060E00C000
0C0601C000
18003FC000
3000078000
0000030000
0000000000
0000000000
ENDCHAR

STARTCHAR cns3_223F
ENCODING 8767
SWIDTH 960 0
DWIDTH 34 0
BBX 34 34 0 -2
BITMAP
0000000000
0038000000
0070000000
0060000000
0060000000
00C0000000
00C0000000
0180000C00
01FFFFFE00
0300600C00
0600601800
0600601000
0C00600000
1800600000
3000600000
0000600000
0070600000
0060604000
00E0606000
00C0603000
00C0603000
0180601800
0180601800
0180601C00
0300600C00
0200600C00
0600600C00
0C00600C00
0000600000
0000600000
001FE00000
0003C00000
0001800000
0000000000
ENDCHAR

STARTCHAR cns3_2240
ENCODING 8768
SWIDTH 960 0
DWIDTH 34 0
BBX 34 34 0 -2
BITMAP
0000000000
0000000000
0200000600
03FFFFFF00
0300000600
0300000600
0300000600
0300000600
0300000600
03FFFFFE00
0300000600
0300000000
0300003000
033FFFF800
0306003000
0302006000
0302006000
030300C000
030100C000
0301018000
0301818000
0300830000
0600C30000
0600660000
06003C0000
06001C0000
0C003E0000
0C00E70000
180183C000
180700F800
301C003F80
6070000E00
0000000000
0000000000
ENDCHAR

STARTCHAR cns3_2241
ENCODING 8769
SWIDTH 960 0
DWIDTH 34 0
BBX 34 34 0 -2
BITMAP
0000000000
0380806000
0300FFF000
0300C06000
0300C06000
0300C06000
331CC06000
3318C06000
3318C06000
3318C06000
3318C06000
3318C06000
3318C06000
3318C06000
3318C06000
3318C06000
3318C06000
3319806000
3319806000
3319806000
3319806000
3319806000
3319806000
331B006000
3FFB006000
301B006100
0003006100
0003006100
0006006180
0006006380
000C007F80
0018003F00
0000000000
0000000000
ENDCHAR

STARTCHAR cns3_2242
ENCODING 8770
SWIDTH 960 0
DWIDTH 34 0
BBX 34 34 0 -2
BITMAP
0000000000
0000000000
0000E00000
0000C00000
0000C00000
0380C03800
0300C03000
0300C03000
0300C03000
0300C03000
0300C03000
03FFFFF000
0300003000
0000000000
0000E00000
0000C00000
0000C00000
0000C00000
0000C00000
0000C00000
0000C00000
0001E00000
0001600000
0003300000
0006180000
000C0C0000
0018070000
0070038000
00C001E000
0380007800
0E00001F80
3800000600
0000000000
0000000000
ENDCHAR

STARTCHAR cns3_2243
ENCODING 8771
SWIDTH 960 0
DWIDTH 34 0
BBX 34 34 0 -2
BITMAP
0000000000
0000E00000
0000C00000
0380C03800
0300C03000
0300C03000
0300C03000
0300C03000
0300C03000
0300C03000
0300C03000
03FFFFF000
0300003000
0000C00000
00FFE00000
0000C00000
0000C00000
0000C00000
0000C00000
0001C00000
0001E00000
0003600000
0002300000
0006100000
000C180000
00180C0000
0030060000
0060030000
00C001C000
038000F000
0600003C00
1C00001F80
7000000000
0000000000
ENDCHAR

STARTCHAR cns3_2244
ENCODING 8772
SWIDTH 960 0
DWIDTH 34 0
BBX 34 34 0 -2
BITMAP
0000000000
0000E00000
0000C00000
0380C03800
0300C03000
0300C03000
0300C03000
0300C03000
0300C03000
03FFFFF000
0300003000
0300003000
0000030000
1FFFFF8000
000C030000
000C030000
000C030000
000C060000
000C060000
0018060C00
00180FFE00
00180C0C00
0030180C00
0030000C00
0030000C00
0060000C00
00C0001800
00C0001800
0180001800
0700003000
0C000FF000
380001E000
000000C000
0000000000
ENDCHAR

STARTCHAR cns3_2245
ENCODING 8773
SWIDTH 960 0
DWIDTH 34 0
BBX 34 34 0 -2
BITMAP
0000000000
0000000000
0000000000
0000018000
00FFFFC000
0000018000
0000018000
0000018000
0000018000
0000018000
0000018000
0000018000
0100018000
01FFFF8000
0180018000
0180000000
0180000000
0180000000
0180000000
0180006000
01FFFFF000
0180006000
0180006000
0180006000
0180006000
0180006000
0180006000
0180006000
0180006000
01FFFFE000
0180006000
0000000000
0000000000
0000000000
ENDCHAR

STARTCHAR cns3_2246
ENCODING 8774
SWIDTH 960 0
DWIDTH 34 0
BBX 34 34 0 -2
BITMAP
0000000000
01C0700000
0180600000
0180600000
0180600000
0180600000
0180600000
0180600000
218C600000
3FFE600000
318C600000
318C600000
318C600000
318C600000
318C600000
318C600000
318C600800
318C7FF800
318C600000
318C600000
318C600000
318C600000
318C600000
318C600000
31FC600000
31B8600200
0180600200
0180600200
0180600200
0180600300
0180600700
01807FFF00
01803FFE00
0000000000
ENDCHAR

STARTCHAR cns3_2247
ENCODING 8775
SWIDTH 960 0
DWIDTH 34 0
BBX 34 34 0 -2
BITMAP
0000000000
0000700000
0000600000
0000600000
0800600300
0FFFFFFF80
0C00000000
0C00000000
0C00000C00
0C7FFFFE00
0C00180000
0C00180000
0C00180000
0C00180000
0C00180000
0C00180000
0C00180000
0C00180000
0C00180000
0C00180000
0C00180000
0C00180000
1800180000
1800180000
1800180000
1800180000
1800180000
1800180000
3000180000
3000380000
3007F80000
6000F00000
0000600000
0000000000
ENDCHAR

STARTCHAR cns3_2248
ENCODING 8776
SWIDTH 960 0
DWIDTH 34 0
BBX 34 34 0 -2
BITMAP
0000000000
0000700000
0000600000
0000600000
0000600000
0800600600
0FFFFFFF80
0C00000000
0C00000000
0C00000000
0C00300000
0C00600000
0C00600000
0C00600000
0C00600000
0C00C00000
0C00C00000
0C00C00000
0C01800000
0C01800000
0C03000000
0C03000000
1806008000
180600C000
180C006000
180C003000
1818003800
30307FF800
31FFF01C00
31F8001C00
3000000C00
6000000000
0000000000
0000000000
ENDCHAR

STARTCHAR cns3_2249
ENCODING 8777
SWIDTH 960 0
DWIDTH 34 0
BBX 34 34 0 -2
BITMAP
0000000000
00000E0000
00000CC000
00000C7000
00000C3000
00000C3800
00000C1800
00000C0000
00000C0300
7FFFFFFF80
00000C0000
00000C0000
00000C0000
00000C0000
00000E0000
0003060000
07FF860000
0000060000
0000060000
0000070000
0000030000
0000030000
0000018000
0000618100
3FFFF0C100
000000C100
0000006300
0000007300
0000003B00
0000001F80
0000000F80
0000000780
0000000000
0000000000
ENDCHAR

STARTCHAR cns3_224A
ENCODING 8778
SWIDTH 960 0
DWIDTH 34 0
BBX 34 34 0 -2
BITMAP
0000000000
0070000000
0060000C00
0067FFFE00
0060000C00
0060000C00
0060000C00
0060000C00
1860000C00
0C60000C00
0C60000C00
0660000C00
0660000C00
0660000C00
0660000C00
0060000C00
0060000C00
0067FFFC00
0060000C00
0060000C00
0060000C00
00C0000C00
00C0000C00
00C0000C00
00C0000C00
0180000C00
0180000C00
0300000C00
0300000C00
0600000C00
0C00000C00
1807FFFC00
3000000000
0000000000
ENDCHAR

STARTCHAR cns3_224B
ENCODING 8779
SWIDTH 960 0
DWIDTH 34 0
BBX 34 34 0 -2
BITMAP
0000000000
0070000000
0060000000
00E0000600
00C7FFFF00
0180018000
0300018000
0600018000
0C40018000
3870018000
00E0018000
00C0018000
0180018000
0180018000
0300018000
0700018000
0F00018000
0B00018000
1B00018000
3300018000
2300018000
0300018000
0300018000
0300018000
0300018000
0300018000
0300018000
0300018000
0300018000
0300038000
03007F8000
03000F0000
0300060000
0000000000
ENDCHAR

STARTCHAR cns3_224C
ENCODING 8780
SWIDTH 960 0
DWIDTH 34 0
BBX 34 34 0 -2
BITMAP
0000000000
01C0000000
0180000000
0180000600
0187FFFF00
0180018000
0180018000
01A0018000
09B0018000
1998018000
1998018000
3198018000
3180018000
3180018000
3180018000
0180018000
0180018000
0180018000
0180018000
0180018000
0180018000
0180018000
0180018000
0180018000
0180018000
0180018000
0180018000
0180018000
0180018000
0180038000
01807F8000
01800F0000
0180060000
0000000000
ENDCHAR

STARTCHAR cns3_224D
ENCODING 8781
SWIDTH 960 0
DWIDTH 34 0
BBX 34 34 0 -2
BITMAP
0000000000
01C00E0000
01800C0000
01800C0000
01800C0000
01800C0000
01800C0000
01800C0000
31A00C0000
19B00C0600
199BFFFF00
19980C0600
39980C0600
39800C0600
3180180600
0180180600
0180180600
0180180C00
0180180C00
0180180C00
0180300C00
0180300C00
0180300C00
0180600C00
0180600C00
0180C00C00
0181800C00
0181801800
0183001800
0186003800
018C07F000
019800F000
0130006000
0000000000
ENDCHAR

STARTCHAR cns3_224E
ENCODING 8782
SWIDTH 960 0
DWIDTH 34 0
BBX 34 34 0 -2
BITMAP
0000000000
0000000000
0000000600
000003FF00
0201FFFE00
03FFC00000
0300000000
0300000C00
03FFFFFE00
0300000C00
0300000C00
0300000C00
03FFFFFC00
0300000C00
0300060000
031FFF0000
03001E0000
0300380000
0300700000
0200600000
0200C00000
0601800000
0603000000
0606000000
040C000000
0418002000
0C30002000
0C30002000
0860002000
1860003000
1070007000
107FFFF000
003FFFE000
0000000000
ENDCHAR

STARTCHAR cns3_224F
ENCODING 8783
SWIDTH 960 0
DWIDTH 34 0
BBX 34 34 0 -2
BITMAP
0000000000
00E0000000
00C0000000
00C0000600
00C1FFFE00
00C00C0600
00C00C0600
00C00C0600
00CC0C0600
1FFE0C0600
00C00C0600
00C00C0600
00C00C0C00
00C0180C00
00C0180C00
00CC180C00
00F8180C00
00E0180C00
03C0180C00
1EC0300C00
18C0300C00
18C0300C00
00C0601800
00C0601800
00C0C01800
00C0C01800
00C1801800
00C3001800
00C6003000
01C40FF000
3FCC01E000
079800C000
0300000000
0000000000
ENDCHAR

STARTCHAR cns3_2250
ENCODING 8784
SWIDTH 960 0
DWIDTH 34 0
BBX 34 34 0 -2
BITMAP
0000000000
01C0380000
0180300000
0180300000
0180300000
0180300000
0180300000
0180300000
0198300000
7FFC300000
018030C000
0187FFE000
018030C000
018030C000
018030C000
018030C000
019C60C000
01F060C000
07C060C000
7F8060C000
798060C000
018060C000
018060C000
0180C0C100
0180C0C100
018180C100
018180C100
018300C180
018200C380
038600FF80
1F8C007F00
0718000000
0000000000
0000000000
ENDCHAR

STARTCHAR cns3_2251
ENCODING 8785
SWIDTH 960 0
DWIDTH 34 0
BBX 34 34 0 -2
BITMAP
0000000000
0380000000
0300000000
0300000000
0304000C00
0307FFFE00
0306000C00
0306000C00
0306000C00
0306000C00
0306000C00
0306000C00
0306000C00
0306000C00
0306000C00
0306000C00
0307FFFC00
0306000C00
0306000C00
0306000C00
0306000C00
0306000C00
0306000C00
0306000C00
0306000C00
0306000C00
0306000C00
0306000C00
0307FFFC00
0306000C00
0300000000
0300000000
0300000000
0000000000
ENDCHAR

STARTCHAR cns3_2252
ENCODING 8786
SWIDTH 960 0
DWIDTH 34 0
BBX 34 34 0 -2
BITMAP
0000000000
0000E00000
0000C30000
0000C18000
0000C0C000
0000C0E000
0000C06000
0000C06000
0000C00300
7FFFFFFF80
0001E00000
0003F00000
0002D00000
0006D80000
0004C80000
000CCC0000
0008CC0000
0018C60000
0030C30000
0020C30000
0060C1C000
00C0C0E000
0180C0F000
0300C03800
0600C01E00
0C00C00F80
3800C00600
6000C00000
0000C00000
0000C00000
0000C00000
0000C00000
0000C00000
0000000000
ENDCHAR

STARTCHAR cns3_2253
ENCODING 8787
SWIDTH 960 0
DWIDTH 34 0
BBX 34 34 0 -2
BITMAP
0000000000
00000E0000
00000C0000
00000C0000
00000C0000
00000C1800
00038FFC00
00030C0000
00030C0000
00060C1800
0007FFFC00
0006003800
000C003800
0018003000
0030007000
0078006000
00CC00E000
018601C000
0703818000
1C01C38000
0000C70000
0000460000
00000C0000
0000180000
0000300000
0000E00000
0001800000
0007000000
000C000000
0038000000
00E0000000
0780000000
0000000000
0000000000
ENDCHAR

STARTCHAR cns3_2254
ENCODING 8788
SWIDTH 960 0
DWIDTH 34 0
BBX 34 34 0 -2
BITMAP
0000000000
0000000000
0000000000
0003000000
1FFF870000
0007060000
0006060000
000E060000
000C060000
001C060000
0018061000
0030063800
0070377000
0067FFE000
00E0378000
00C036C000
018066C000
038066C000
0300C66000
0700C67000
0601863800
0C01063C00
0C03061F00
1806060800
1804060200
30000E0200
7001FC0200
60003C0200
6000180300
7800000700
7FFFFFFF00
1FFFFFFE00
0000000000
0000000000
ENDCHAR

STARTCHAR cns3_2255
ENCODING 8789
SWIDTH 960 0
DWIDTH 34 0
BBX 34 34 0 -2
BITMAP
0000000000
0003000000
0603000000
0303000000
0183000000
01C3000000
00C3000000
0003000000
0013000000
0013000000
3033000000
182300E000
0C2303C000
0E63070000
06430E0000
06431C0000
00C3780000
0083E00000
0183000000
0103000000
0303000000
0303000000
0703000000
1E03000000
1E03000000
0603000200
0603000200
0603000200
0603000200
0603000300
0603800700
0603FFFF00
0001FFFE00
0000000000
ENDCHAR

STARTCHAR cns3_2256
ENCODING 8790
SWIDTH 960 0
DWIDTH 34 0
BBX 34 34 0 -2
BITMAP
0000000000
000200C000
0603FFE000
030300C000
018300C000
01C300C000
00C300C000
00C300C000
001300C000
003300C000
302300C000
1C2300C000
0E6300C000
064300C000
06C300C000
008300C000
008300C000
018600C000
010600C000
010600C000
030600C000
020600C000
060C00C000
1E0C00C200
1C0C00C200
0C0C00C200
0C1800C200
0C1800C200
063000C300
063000E700
066000FF00
06C0007E00
0600000000
0000000000
ENDCHAR

STARTCHAR cns3_2257
ENCODING 8791
SWIDTH 960 0
DWIDTH 34 0
BBX 34 34 0 -2
BITMAP
0000000000
0000E00000
0000C00000
0000C00000
0000C00000
0300C00000
01C0C00000
00E0C00000
0070F00000
0070D00800
0030D01C00
0000D83C00
0018D86000
1FFCD9C000
0018CB0000
0018CE0000
0030C60000
0030C60000
0060C30000
0040C30000
00C0C18000
0180C18000
0300C0C000
0200C07000
0600C03800
0C00C01E00
1800C00F80
3000C00700
6001C00000
003FC00000
0007800000
0003000000
0000000000
0000000000
ENDCHAR

STARTCHAR cns3_2258
ENCODING 8792
SWIDTH 960 0
DWIDTH 34 0
BBX 34 34 0 -2
BITMAP
0000000000
0000380000
0C00300000
0700300000
0380300000
01C0300000
01C0300000
00C0300000
0000300000
0000300000
6010300000
3830300000
1C30300000
0E60780000
0E60680000
06C0680000
00C06C0000
0180CC0000
0180C40000
0300C60000
0300C60000
0301830000
0601838000
1E03018000
1C0300C000
0C0600E000
0C06007000
0C0C003800
0618001E00
0630000F80
0660000600
06C0000000
0600000000
0000000000
ENDCHAR

STARTCHAR cns3_2259
ENCODING 8793
SWIDTH 960 0
DWIDTH 34 0
BBX 34 34 0 -2
BITMAP
0000000000
0000000000
0C00000000
0700000000
0380000600
019FFFFF00
0180600000
0000400000
0000C00000
0020C00000
6060C00000
3841800000
1CC1800000
0C81800C00
0C83FFFE00
0183000C00
0106000C00
010C000C00
0300000C00
0200000C00
0600001800
0600001800
0C00001800
3C00001800
3800001800
1800001800
1800003000
0C00003000
0C00007000
0C000FF000
0C0001E000
0C0000C000
0C00000000
0000000000
ENDCHAR

STARTCHAR cns3_225A
ENCODING 8794
SWIDTH 960 0
DWIDTH 34 0
BBX 34 34 0 -2
BITMAP
0000000000
0000380000
0000300000
0000300000
000C300000
3FFE300000
0180300000
0180300000
0180300000
0180300000
0180300000
0180300000
0180300000
0180300000
0198300000
1FFC300000
0180300000
0180300000
0180300000
0180300000
0180300000
0180300000
0180300000
01B8300000
01E0300200
0F80300200
7E00300200
7800300200
3000300300
0000380700
00003FFF00
00001FFE00
0000000000
0000000000
ENDCHAR

STARTCHAR cns3_225B
ENCODING 8795
SWIDTH 960 0
DWIDTH 34 0
BBX 34 34 0 -2
BITMAP
0000000000
0000380000
0000300000
0000300000
0000300000
0200300300
03FFFFFF80
0300000000
6300000000
3300000000
3300000000
1B00000000
1B00000000
1B00000000
0300000000
0300000000
0300000000
0300000000
0F00000000
3B00000000
7300000000
6300000000
6600000000
0600000000
0600000000
0C00000000
0C00000000
0C00000000
1800000000
1800000000
3000000000
6000000000
0000000000
0000000000
ENDCHAR

STARTCHAR cns3_225C
ENCODING 8796
SWIDTH 960 0
DWIDTH 34 0
BBX 34 34 0 -2
BITMAP
0000000000
0000000000
0000000000
0000000000
0000000000
0000C04000
0FFFE0E000
0003E0C000
0303618700
0183330600
01C61C0E00
00C60C0C00
00CC061800
000C03B000
001801C000
007000E000
0060007800
01C0001F00
0700000F80
1C00000000
7000000000
0000000000
0000000000
0000000000
0000000000
0000000000
0000000000
0000000000
0000000000
0000000000
0000000000
0000000000
0000000000
0000000000
ENDCHAR

STARTCHAR cns3_225D
ENCODING 8797
SWIDTH 960 0
DWIDTH 34 0
BBX 34 34 0 -2
BITMAP
0000000000
0000000000
0000080600
00030FFF00
0FFF8C0600
00030C0C00
00030C0C00
00030C1800
00030C1800
18060C3000
0C060C3000
06060C6000
03060C6000
03060CC000
018C0CE000
00CC0C6000
00780C3000
00380C1800
00380C1800
00380C1800
002C0C0C00
006C0C0C00
004E0C0600
00C60C0E00
01870C0E00
01030C1C00
03030DFC00
06030C3000
04000C0000
0C000C0000
18000C0000
00000C0000
00000C0000
0000000000
ENDCHAR

STARTCHAR cns3_225E
ENCODING 8798
SWIDTH 960 0
DWIDTH 34 0
BBX 34 34 0 -2
BITMAP
0000000000
0000000000
0000080600
00006FFF00
3FFFFC0600
00180C0C00
00180C0C00
00180C0C00
00180C1800
00180C1800
00180C3000
00180C3000
00180C6000
00180C6000
00180C7000
00180C3800
00180C1800
00180C0C00
00180C0C00
00180C0600
00180C0600
00180C0600
00180C0600
00180C0600
00180C0600
00180C0C00
00180DFC00
00180C3800
00180C0000
00380C0000
07F80C0000
00F00C0000
00600C0000
0000000000
ENDCHAR

STARTCHAR cns3_225F
ENCODING 8799
SWIDTH 960 0
DWIDTH 34 0
BBX 34 34 0 -2
BITMAP
0000000000
0000000000
0206040300
03FF07FF80
0306060300
0306060600
0306060600
0306060C00
0306060C00
0306060C00
0306061C00
0306061800
0306063800
0306063000
0306063000
0306061800
0306060C00
0606060C00
0606060600
0606060600
0606060300
0606060300
0606060300
0606060300
0606060700
0C0626FE00
0C06261E00
0C06260C00
1806360000
3007760000
6007F60000
0003E60000
0000060000
0000000000
ENDCHAR

STARTCHAR cns3_2260
ENCODING 8800
SWIDTH 960 0
DWIDTH 34 0
BBX 34 34 0 -2
BITMAP
0000000000
2030000000
3FF8000000
3030000C00
3033FFFE00
3060018000
3060018000
30C0018000
30C0018000
3380018000
3300018000
3180018000
3180018000
30C0018000
3060018000
3060018000
3060018000
3030018000
3030018000
3030018000
3030018000
3070018000
3FF0018000
31E0018000
30C0018000
3000018000
3000018000
3000018000
3000018000
3000038000
30007F8000
30000F0000
3000060000
0000000000
ENDCHAR

STARTCHAR cns3_2261
ENCODING 8801
SWIDTH 960 0
DWIDTH 34 0
BBX 34 34 0 -2
BITMAP
0000000000
0000000000
0000000300
7FFFFFFF80
0000C00000
0000C00000
0000C00000
0000C00000
0000C00000
0800C00600
0FFFFFFF00
0C00C00600
0C00C00600
0C00C00600
0C38C1C600
0C30C18600
0C30C18600
0C30C18600
0C30C18600
0C30C18600
0C30C18600
0C30C18600
0C3FFF8600
0C30018600
0C00000600
0C00000600
0C00000600
0C00000600
0C00000E00
0C0001FE00
0C00003C00
0C00001800
0000000000
0000000000
ENDCHAR

STARTCHAR cns3_2262
ENCODING 8802
SWIDTH 960 0
DWIDTH 34 0
BBX 34 34 0 -2
BITMAP
0000000000
000E0E0000
000C0C0000
000C0C0000
000C0C0000
000C0C0000
000C0C0000
000C0C0000
000C0C0400
000C0C0E00
000C0C1E00
1FFC0C1800
000C0C3000
000C0CE000
000C0D8000
000C0F0000
000C0C0000
000C0C0000
000C0C0000
003C0C0200
006C0C0200
03CC0C0200
1E0C0C0300
380C0C0700
300C0FFF00
000C07FE00
000C000000
0000000000
0000000000
0000000300
7FFFFFFF80
0000000000
0000000000
0000000000
ENDCHAR

STARTCHAR cns3_2263
ENCODING 8803
SWIDTH 960 0
DWIDTH 34 0
BBX 34 34 0 -2
BITMAP
0000000000
0000003800
000000F000
00000FF000
0001FE0000
03FFC00000
0000C00000
0000C00000
0000C00000
0000C00000
0000C03000
03FFFFF800
0000C00000
0000C00000
0000C00000
0000C00000
0000C00600
3FFFFFFF00
0003000000
0003000000
0007000000
0006060000
000C030000
000C018000
0018018000
001800C000
0030007000
00301FF000
007FF83800
1FFC001C00
1F00001C00
0000000C00
0000000000
0000000000
ENDCHAR

STARTCHAR cns3_2264
ENCODING 8804
SWIDTH 960 0
DWIDTH 34 0
BBX 34 34 0 -2
BITMAP
0000000000
00E0070000
00C0060000
00C0060000
0180060000
0180060000
0180060000
0180060000
0302060000
0303060000
0601060000
0600860000
0600C60000
0C3FE60000
3FF0660000
3C00660000
0000060000
0000060000
1801860000
1FFFC60000
1801860000
1801860000
1801860000
1801860000
1801860100
1801860100
1801860100
1801860180
1801860180
1FFF860380
180187FF80
000003FF00
0000000000
0000000000
ENDCHAR

STARTCHAR cns3_2265
ENCODING 8805
SWIDTH 960 0
DWIDTH 34 0
BBX 34 34 0 -2
BITMAP
0000000000
0007000000
0006000000
000C060000
001FFF0000
0018060000
00300E0000
00601C0000
00C0180000
0180300000
0000603000
07FFFFF800
0000C03000
0000C03000
0000C03000
0000C03300
7FFFFFFF80
0000C03000
0000C03000
0000C03000
0000C03000
0000C03000
07FFFFF000
0000C03000
0000C00000
0000C00000
0000C00000
0000C00000
0000C00000
0001C00000
001FC00000
0007800000
0003000000
0000000000
ENDCHAR

STARTCHAR cns3_2266
ENCODING 8806
SWIDTH 960 0
DWIDTH 34 0
BBX 34 34 0 -2
BITMAP
0000000000
0000000000
0000000000
0000003000
07FFFFF800
0000000000
0000000000
0000000000
0000000000
010000C000
01FFFFE000
018000C000
018000C000
018000C000
018000C000
018000C000
018000C000
01FFFFC000
018000C000
018000C000
018000C000
018000C000
018000C000
018000C000
01FFFFC000
018000C000
0000000000
0000000000
0000000000
0000000300
7FFFFFFF80
0000000000
0000000000
0000000000
ENDCHAR

STARTCHAR cns3_2267
ENCODING 8807
SWIDTH 960 0
DWIDTH 34 0
BBX 34 34 0 -2
BITMAP
0000000000
00380E0000
00300C0000
00700C0000
00600C0000
00C00C3800
00C00C7000
01800DE000
01803F8000
0303FC0000
03C00C0000
07800C0000
05800C0000
0D800C0C00
1987FFFE00
11800C0000
31800C0000
61800C0000
01800C0000
01800C0000
01800C0600
019FFFFF00
01800C0000
01800C0000
01800C0000
01800C0000
01800C0000
01800C0000
01800C0000
01800C0000
01800C0000
01800C0000
01800C0000
0000000000
ENDCHAR

STARTCHAR cns3_2268
ENCODING 8808
SWIDTH 960 0
DWIDTH 34 0
BBX 34 34 0 -2
BITMAP
0000000000
0038070000
0070060000
0070060000
0060060000
00C0060000
00C0060000
0180066000
0180E63000
0300C61800
03C0C61C00
0781860E00
0581860700
0D83060700
0983060300
1983060000
3186061C00
6186061800
018C0E3800
018DFE7000
01983C6000
018018E000
018001C000
0180018000
0180030000
0180060000
01800C0000
0180380000
0180E00000
0181800000
018F000000
01B8000000
0180000000
0000000000
ENDCHAR

STARTCHAR cns3_2269
ENCODING 8809
SWIDTH 960 0
DWIDTH 34 0
BBX 34 34 0 -2
BITMAP
0000000000
0038060000
00307F0000
0070060000
0060060000
00C0060000
00C0060000
0180060000
0183060600
0303FFFF00
03C3060600
0783060600
0583060600
0D83070600
19830D0600
11830D8600
31830D8600
6183198600
018318C600
018310E600
0183307600
0183603600
0183400600
0183C00600
0183000600
0183000600
0183000600
0183000600
0183000600
0183000E00
018301FE00
0183003C00
0183001800
0000000000
ENDCHAR

STARTCHAR cns3_226A
ENCODING 8810
SWIDTH 960 0
DWIDTH 34 0
BBX 34 34 0 -2
BITMAP
0000000000
0038000000
00700E7000
00700C6000
00601C6000
00C0386000
00C0F06000
0181E06000
0187606000
030C606000
03C0606000
0780606000
0580606000
0D80606000
1980606600
118FFFFF00
3180606000
6180606000
0180606000
0180C06000
0180C06000
0180C06000
0180C06000
0180C06000
0181806000
0181806000
0183006000
0183006000
0186006000
0186006000
018C006000
0198006000
01B0006000
0000000000
ENDCHAR

STARTCHAR cns3_226B
ENCODING 8811
SWIDTH 960 0
DWIDTH 34 0
BBX 34 34 0 -2
BITMAP
0000000000
0038000000
0030007000
007000E000
006003C000
00C01F0000
00C0F80000
0187980000
0180180000
0300180000
03C0180000
0780180000
0580180000
0D80180C00
19BFFFFE00
11801C0000
31801C0000
6180160000
0180360000
0180320000
0180330000
0180630000
0180618000
0180418000
0180C0C000
0180C0E000
0181807000
0181003800
0183003C00
0186001F00
019C000C00
01B0000000
0180000000
0000000000
ENDCHAR

STARTCHAR cns3_226C
ENCODING 8812
SWIDTH 960 0
DWIDTH 34 0
BBX 34 34 0 -2
BITMAP
0000000000
0038000000
0070700000
0070E00000
0060C00000
00C0C00000
00C0C00000
0181800600
0181FFFF00
030318C600
03C318C600
078630C600
058630C600
0D8C30C600
1998618600
1180618600
3180618600
6180C18600
0180C30C00
0181830C00
0181860C00
0183060C00
01860C0C00
018C180C00
0198180C00
01B0300C00
0180601800
0180C01800
0181803800
01830FF000
018601E000
018000C000
0180000000
0000000000
ENDCHAR

STARTCHAR cns3_226D
ENCODING 8813
SWIDTH 960 0
DWIDTH 34 0
BBX 34 34 0 -2
BITMAP
0000000000
0070000000
0060001800
0063FFFC00
00C0003800
00C0007000
018000E000
0180218000
03003B0000
03001C0000
07800E0000
0F00060000
0F00070000
1B00000300
3307FFFF80
6300060700
0300060E00
0300060C00
0300061800
0300063000
0300060000
0300060000
0300060000
0300060000
0300060000
0300060000
0300060000
0300060000
0300060000
03000E0000
0301FE0000
03003C0000
0300180000
0000000000
ENDCHAR

STARTCHAR cns3_226E
ENCODING 8814
SWIDTH 960 0
DWIDTH 34 0
BBX 34 34 0 -2
BITMAP
0000000000
0038000000
0030000000
0070000000
0060000C00
00CFFFFE00
00C00C0000
01800C0000
01800C0000
03000C0000
03C00C0000
07800C0000
05800C0000
0D800C0000
19800C0000
11800C1800
3183FFFC00
61800C0000
01800C0000
01800C0000
01800C0000
01800C0000
01800C0000
01800C0000
01800C0000
01800C0000
01800C0000
01800C0000
01800C0300
019FFFFF80
0180000000
0180000000
0180000000
0000000000
ENDCHAR

STARTCHAR cns3_226F
ENCODING 8815
SWIDTH 960 0
DWIDTH 34 0
BBX 34 34 0 -2
BITMAP
0000000000
0070000000
0060000000
00E2000300
00C3FFFF80
0183000000
0183000000
0303000000
0303000000
0703000000
0783000000
0F83000C00
0B03FFFE00
1B03601C00
1303601800
3303603800
6303303000
0303303000
0306306000
0306186000
0306184000
03060CC000
03060C8000
030C078000
030C070000
030C070000
03180F8000
031818C000
0330306000
0320E03800
0361801F80
03C7000600
030C000000
0000000000
ENDCHAR

STARTCHAR cns3_2270
ENCODING 8816
SWIDTH 960 0
DWIDTH 34 0
BBX 34 34 0 -2
BITMAP
0000000000
0070380000
0060300000
00E0300000
00C0300000
01C0300000
0180300000
0380300300
031FFFFF80
0600600000
0780600000
0F00600000
0B00600000
1B00601800
13007FFC00
3300601800
6300F01000
0300D03000
0300D03000
0300D86000
0301986000
03018CC000
03018CC000
0303078000
0303030000
0306078000
03060EC000
030C0CE000
0318187000
0330703E00
0360C00F80
0303800600
0206000000
0000000000
ENDCHAR

STARTCHAR cns3_2271
ENCODING 8817
SWIDTH 960 0
DWIDTH 34 0
BBX 34 34 0 -2
BITMAP
0000000000
0070E00000
0061C00000
00E1C00000
00C1800000
0183001800
0183FFFC00
0306000000
0306000000
060C000000
078C006000
0F19FFF000
0B30000000
1B00000000
1300000000
330000C000
631FFFE000
030000C000
030000C000
030000C000
030000C000
030000C000
030000C000
030000C000
0300006100
0300006100
0300003100
0300003300
0300001B00
0300000F80
0300000780
0300000380
0300000000
0000000000
ENDCHAR

STARTCHAR cns3_2272
ENCODING 8818
SWIDTH 960 0
DWIDTH 34 0
BBX 34 34 0 -2
BITMAP
0000000000
0038380000
0070300000
0070700000
0060600000
00C0600000
00C0C00000
0180C00600
0181FFFF00
0301800600
03C3000600
07C2000600
0586000600
0D84000600
198C030600
1181FF8600
3180000600
6180000600
0180000600
0180000600
0180018600
0180070600
01801C0600
0180700C00
0181C00C00
0183800C00
0183000C00
0180001800
0180001800
0180003800
018007F000
018000F000
0100006000
0000000000
ENDCHAR

STARTCHAR cns3_2273
ENCODING 8819
SWIDTH 960 0
DWIDTH 34 0
BBX 34 34 0 -2
BITMAP
0000000000
0070380000
0060300000
00E0300000
00C0300000
01C030C000
018FFFE000
038030C000
030030C000
060060C000
078060C000
0F00C0C100
0F00C0C100
1B00C0C100
330180C180
63039CE380
030618FF80
030E187F00
0338180000
0360180000
0300180000
0300180600
033FFFFF00
0300180000
0300180000
0300180000
0300180000
0300180000
0300180000
0300180000
0300180000
0300180000
0300180000
0000000000
ENDCHAR

STARTCHAR cns3_2274
ENCODING 8820
SWIDTH 960 0
DWIDTH 34 0
BBX 34 34 0 -2
BITMAP
0000000000
0038000000
0030000000
003080C000
0070FFE000
0060C0C000
00C0C0C000
01C0C0C000
0180C0C100
0380C0C100
03C180C100
078180C180
0F8300E380
0D8300FF80
1986003F00
319C000000
6180003000
019FFFF800
0181807000
0180807000
0180C06000
018040E000
018061C000
0180338000
01801F0000
01800E0000
01801E0000
01803B8000
018061E000
0181C07C00
0187001F80
019C000600
0180000000
0000000000
ENDCHAR

STARTCHAR cns3_2275
ENCODING 8821
SWIDTH 960 0
DWIDTH 34 0
BBX 34 34 0 -2
BITMAP
0000000000
0000E00000
0000C00000
0001C00000
0003E00000
0003600000
0006300000
0006180000
000C0C0000
0018070000
0070038000
00E001E000
0180007800
0700001F80
1C00018E00
70FFFFC000
0000000000
0000000000
0000000000
0000003000
07FFFFF800
0003000000
0006000000
0006030000
000C018000
000C018000
001800C000
001800E000
0030007000
00607FF800
01FFF03800
01F8003800
0000000000
0000000000
ENDCHAR

STARTCHAR cns3_2276
ENCODING 8822
SWIDTH 960 0
DWIDTH 34 0
BBX 34 34 0 -2
BITMAP
0000000000
0000E00000
0000C00000
0001C00000
0001C00000
0003600000
0006300000
0004180000
000C0C0000
0018060000
0030038000
00E001E000
01C0007000
0300003F00
0E4000CF80
387FFFE000
6060000000
0060000000
0060000000
0060000000
0060000000
0060000000
0060018000
007FFFC000
0060000000
0060000000
0060000000
0060000000
0060000000
0060006000
007FFFF000
0060000000
0060000000
0000000000
ENDCHAR

STARTCHAR cns3_2277
ENCODING 8823
SWIDTH 960 0
DWIDTH 34 0
BBX 34 34 0 -2
BITMAP
0000000000
0000E00000
0000C00000
0000C00000
0000C00000
0000C00000
0001C00000
0001C00000
0001E00000
0003300000
0006180000
000C0C0000
0018060000
0030038000
00E001C000
0180007800
0700001F80
7CE0038600
00C0030000
00C0030000
00C0030000
00C0030000
00C0030000
00F0038000
01B0068000
019806C000
018C044000
030E0C6000
0307083000
0E03181C00
3803300E00
6000E00600
0000000000
0000000000
ENDCHAR

STARTCHAR cns3_2278
ENCODING 8824
SWIDTH 960 0
DWIDTH 34 0
BBX 34 34 0 -2
BITMAP
0000000000
0000060000
0001FF0000
0000060000
0070030000
0070030000
00C0018000
00C0018000
018380C000
0183007000
0306003C00
0306000F80
060C060600
0C0C030000
181801C000
703003E000
0033FE7000
03FE183000
03CC180000
000C180000
000C180000
000C180000
000C180000
0018180000
0018180400
0018180400
0030180400
0030180400
0060180600
00C01C0E00
03801FFE00
0E000FFC00
0000000000
0000000000
ENDCHAR

STARTCHAR cns3_2279
ENCODING 8825
SWIDTH 960 0
DWIDTH 34 0
BBX 34 34 0 -2
BITMAP
0000000000
0003800000
0003000000
0003800000
0001C00000
0003E00000
0003300000
0006180000
000C0C0000
0018060000
0030038000
00E001E000
018000F000
0300003F00
0E00001F00
390000C400
61FFFFE000
018000C000
018000C000
018000C000
018000C000
018000C000
01FFFFC000
018000C000
018000C000
018000C000
018000C000
018000C000
018000C000
01FFFFC000
018000C000
0000000000
0000000000
0000000000
ENDCHAR

STARTCHAR cns3_227A
ENCODING 8826
SWIDTH 960 0
DWIDTH 34 0
BBX 34 34 0 -2
BITMAP
0000000000
0000000000
0000001800
0FFFFFFC00
0000C00000
0000C00000
0000C00000
0000C00000
0000C06000
03FFFFF000
0000C00000
0000C00000
0000C00000
0000C00600
3FFFFFFF00
0000000000
0000060000
0001FF0000
0030060000
0030060000
0030030000
0060030000
0060018000
00C0018000
00C000C000
0180006000
0300006000
0300003000
0600001800
0C00000E00
1800000780
3000000000
6000000000
0000000000
ENDCHAR

STARTCHAR cns3_227B
ENCODING 8827
SWIDTH 960 0
DWIDTH 34 0
BBX 34 34 0 -2
BITMAP
0000000000
0000000000
0000000300
7FFFFFFF80
0000C00000
0000C00000
0000C00000
0000C00000
0300C01800
03FFFFFC00
0300C01800
0300C01800
0300C01800
0300C01800
0300C01B00
7FFFFFFF80
0300C01800
0300C01800
0300C01800
0300C01800
0300C01B00
7FFFFFFF80
0300001800
0300001800
0300001800
0300001800
0300001800
0300001800
0300001800
0300003800
030007F800
030000F000
0300006000
0000000000
ENDCHAR

STARTCHAR cns3_227C
ENCODING 8828
SWIDTH 960 0
DWIDTH 34 0
BBX 34 34 0 -2
BITMAP
0000000000
0000000000
0000000000
1000000C00
1C0FFFFE00
0E00018000
0600018000
0603818000
0003018000
0046018000
00C6018000
0086018000
0086018000
0186018600
030FFFFF00
030C078000
030C078000
06000D8000
06000D8000
0C00198000
3C00318000
3800618000
1800C18000
0C03818000
0C06018000
0C1C018000
0C70018000
0DC0018000
0C00038000
00007F8000
00000F0000
0000060000
0000000000
0000000000
ENDCHAR

STARTCHAR cns3_227D
ENCODING 8829
SWIDTH 960 0
DWIDTH 34 0
BBX 34 34 0 -2
BITMAP
0000000000
00001C0000
0000180000
3000180000
1800180000
0C00180000
0E00180000
0600181800
060FFFFC00
0040181800
00C0181800
0080181800
0080181800
0180181800
0100181800
0300181800
0300181800
0600181B00
061FFFFF80
0C003C0000
0C003C0000
3C00360000
3800760000
1800620000
0C00630000
0C00C18000
0C00C0C000
0C0180E000
0C03007000
000E003800
0018001E00
0070000780
01C0000200
0000000000
ENDCHAR

STARTCHAR cns3_227E
ENCODING 8830
SWIDTH 960 0
DWIDTH 34 0
BBX 34 34 0 -2
BITMAP
0000000000
0000070000
0000060000
3000060000
1800060000
0C00060000
0E00060000
0600060000
0604060300
0047FFFF80
0046060300
00C6060300
0086060300
0086060300
0186060300
0306060300
0306060300
0606060300
0606060300
0607FFFF00
0C06060300
3C00060000
3800060000
1800060000
0C00060000
0C00060000
0C00060000
0C00060000
0C00060000
0000060000
0000060000
0000060000
0000060000
0000000000
ENDCHAR

STARTCHAR cns3_2321
ENCODING 8993
SWIDTH 960 0
DWIDTH 34 0
BBX 34 34 0 -2
BITMAP
0000000000
0000003800
0000007000
300001E000
18000F8000
0C001C0000
0E01F80000
0607180000
0600180000
0060180000
0040180000
00C0180000
0080180000
0180180C00
033FFFFF00
03003C0000
0600340000
0600340000
0600360000
1C00360000
1C00330000
0C00630000
0C00630000
0600618000
0600C18000
060180C000
0603006000
0603007000
060E003800
001C001C00
0070000F00
00C0000000
0000000000
0000000000
ENDCHAR

STARTCHAR cns3_2322
ENCODING 8994
SWIDTH 960 0
DWIDTH 34 0
BBX 34 34 0 -2
BITMAP
0000000000
0000000000
0400001800
07FFFFFC00
0600001800
0600001800
0600001800
0600031800
061FFF9800
0600001800
0600001800
0600001800
0600001800
0600001800
0600019800
063FFFD800
0600C01800
0601801800
0C01801800
0C01801800
0C01801800
0C030C1800
0C03061800
1806070C00
1806030D00
180C038D00
180C078D00
301FFDC700
30FF81C700
307000C380
6000000380
0000000180
0000000000
0000000000
ENDCHAR

STARTCHAR cns3_2323
ENCODING 8995
SWIDTH 960 0
DWIDTH 34 0
BBX 34 34 0 -2
BITMAP
0000000000
0000E00000
0000C00000
0000C00000
0000C00000
0000C18000
00FFFFC000
0000000000
1C00000E00
18000E0C00
18000C0C00
18001C0C00
180C180C00
1806180C00
1803300C00
1801B00C00
1800E00C00
1800E00C00
1800F00C00
1801B00C00
1801180C00
18030C0C00
18060E0C00
180C070C00
1838070C00
18E0000C00
1BC0000C00
1800000C00
1800000C00
1FFFFFFC00
1800000C00
0000000000
0000000000
0000000000
ENDCHAR

STARTCHAR cns3_2324
ENCODING 8996
SWIDTH 960 0
DWIDTH 34 0
BBX 34 34 0 -2
BITMAP
0000000000
0038000700
0030000600
0030000600
0030038600
0030030600
0030030600
0030C30600
0FFFE30600
0030C30600
0030C30600
0030C30600
0030C30600
0030C30600
0030C30600
0030C30600
0030C30600
0030DB0600
1FFFFF0600
0030030600
0030030600
0060030600
0060030600
006C030600
00C6030600
00C3000600
0183800600
0181C00600
0300E00600
0600E00E00
1C0060FE00
7000003C00
0000001800
0000000000
ENDCHAR

STARTCHAR cns3_2325
ENCODING 8997
SWIDTH 960 0
DWIDTH 34 0
BBX 34 34 0 -2
BITMAP
0000000000
0000000380
01C0000300
0180000300
018001C300
0300018300
0300018300
0600C18300
07FFE18300
0C00018300
0800018300
1803018300
33FF818300
6000018300
0000018300
0003018300
07FF818300
0003018300
0006018300
000C018300
0018018300
0030018300
0060018300
00C0018300
0180098300
0300080300
0300080300
0600080300
06000C0300
06001C0700
07FFFCFF00
03FFF81E00
0000000C00
0000000000
ENDCHAR

STARTCHAR cns3_2326
ENCODING 8998
SWIDTH 960 0
DWIDTH 34 0
BBX 34 34 0 -2
BITMAP
0000000000
0000000000
0000006000
07FFFFF000
0003006000
0006006000
0006006000
0006006000
000C00C000
000C00C000
000C00C000
001800C000
0030018000
0030038000
00603F0000
01C00F0000
0700060000
1C00000000
0000000000
0000000000
00003FFF00
3FFFE30700
00C1830600
00C1830600
00C1830600
00C1860600
0181860600
0181860600
03030C0C00
0607181C00
0DFE33F800
383CE07800
6019803000
0000000000
ENDCHAR

STARTCHAR cns3_2327
ENCODING 8999
SWIDTH 960 0
DWIDTH 34 0
BBX 34 34 0 -2
BITMAP
0000000000
0000000700
0038000600
0030000600
0030070600
0030060600
0030C60600
1FFFE60600
0000060600
0000060600
0007060600
0006060600
0006060600
030C060600
010C060600
018C060600
00D8060600
0078060600
0070060600
0030060600
0038060600
0068060600
006E060600
00C7060600
00C3060600
0183800600
0301C00600
0700000600
0E00000600
1C00000E00
780001FE00
0000003C00
0000001800
0000000000
ENDCHAR

STARTCHAR cns3_2328
ENCODING 9000
SWIDTH 960 0
DWIDTH 34 0
BBX 34 34 0 -2
BITMAP
0000000000
000001C000
0000018000
0003018000
0FFF818000
0000018000
0000018000
0000018000
0000018300
00003FFF80
0000018300
0000018300
0000018300
0001818300
1FFFC18300
00C0018300
00C0030300
00C0030300
0180030300
0180030300
0180030600
0300030600
0318060600
030C060600
06060C0600
06070C0600
0C03980600
0CFF980C00
7FC1B00C00
7801E01C00
0000C7F800
000180F000
0003006000
0000000000
ENDCHAR

STARTCHAR cns3_2329
ENCODING 9001
SWIDTH 960 0
DWIDTH 34 0
BBX 34 34 0 -2
BITMAP
0000000000
0000E00000
0000C00000
0000C00000
0000C00000
0000C00000
0000C00C00
0FFFFFFE00
0000C00000
0000C00000
0000C00000
00E0C0E000
00C0C0C000
00C0C0C000
00C0C0C000
00C0C0C000
00C000C000
00CC00C300
7FFE3FFF80
00C000C000
00C000C000
018000C000
018000C000
018000C000
018000C000
018000C000
030000C000
030000C000
060000C000
060000C000
0C0000C000
180000C000
300000C000
0000000000
ENDCHAR

STARTCHAR cns3_232A
ENCODING 9002
SWIDTH 960 0
DWIDTH 34 0
BBX 34 34 0 -2
BITMAP
0000000000
0000E00000
0000C00000
0000C00000
0000C00000
0000C00000
0000C00C00
0FFFFFFE00
0000C00000
0000C00000
0000C00000
0000C00000
0000C00000
0070C1C000
0060C18000
0060C18000
0060018000
0060018000
0060018300
7FFFFFFF80
0060018000
0060018000
0060018000
0060018000
0060018000
0060018000
0060018000
0060018000
007FFF8000
0060018000
0000000000
0000000000
0000000000
0000000000
ENDCHAR

STARTCHAR cns3_232B
ENCODING 9003
SWIDTH 960 0
DWIDTH 34 0
BBX 34 34 0 -2
BITMAP
0000000000
01C00E0000
01800C0000
01800C0000
01800C0000
01800C0000
01800C0000
01800C0000
01800C3000
019CFFF800
3FFC0C3000
01800C3000
01800C3000
01800C3000
0180183000
0180983400
0181983400
0181183400
0183183600
0186183700
0186183300
018C183300
018C303380
018C303180
0180306000
0180606000
0180606000
0180C06000
0180C0C000
018181C000
01837F8000
018E0F0000
01B8060000
0000000000
ENDCHAR

STARTCHAR cns3_232C
ENCODING 9004
SWIDTH 960 0
DWIDTH 34 0
BBX 34 34 0 -2
BITMAP
0000000000
0000000000
0000000000
0000000600
1FFFFFFF00
0000380000
0000F00000
0003E70000
000F61E000
003C60F800
01F0603C00
0780601E00
3C00600E00
0000600600
0000600000
0000000000
0000E00000
0000C00000
0000C00000
0000C00000
0000C00000
0000C00300
7FFFFFFF80
0000C00000
0000C00000
0000C00000
0000C00000
0000C00000
0000C00000
0000C00000
0000C00000
0000C00000
0000C00000
0000000000
ENDCHAR

STARTCHAR cns3_232D
ENCODING 9005
SWIDTH 960 0
DWIDTH 34 0
BBX 34 34 0 -2
BITMAP
0000000000
0000000000
0000000000
0001800600
1801FFFF00
1801800000
1801800000
1801800000
1801800000
1801800000
1801800000
1801800000
1801800000
1801800000
1801800000
1801800600
1FFFFFFF00
1801800600
0001800600
0001800600
0001800600
0001800600
0001800600
0001800600
0001800600
0001800600
0001800600
0001800600
0001800600
1FFF800600
0001800600
0000000000
0000000000
0000000000
ENDCHAR

STARTCHAR cns3_232E
ENCODING 9006
SWIDTH 960 0
DWIDTH 34 0
BBX 34 34 0 -2
BITMAP
0000000000
0000000000
0000000000
0400000600
07FFFFFF00
0600000000
0600000000
0600000C00
06FFFFFE00
0600000000
0600000000
0600700000
0600600000
0600C00000
0600C00000
0601800000
0603000000
0636038000
061C030000
060C070000
0606060000
0C030C0000
0C010C0000
0C00180000
0C00300000
0C00608000
1800C0C000
1803806000
180E0FF000
307FF83000
3070003000
6000000000
0000000000
0000000000
ENDCHAR

STARTCHAR cns3_232F
ENCODING 9007
SWIDTH 960 0
DWIDTH 34 0
BBX 34 34 0 -2
BITMAP
0000000000
0000000000
0400000600
07FFFFFF00
0600000000
0600000000
0600380000
0600300000
0600300000
0600300000
0600300000
0600300000
0600300000
0600300000
0600300000
0600300C00
067FFFFE00
0600300000
0600300000
0600300000
0600300000
0600318000
0C0030C000
0C00306000
0C00303000
0C00303800
0C00301800
1800300000
1800300000
1800300300
13FFFFFF80
3000000000
0000000000
0000000000
ENDCHAR

STARTCHAR cns3_2330
ENCODING 9008
SWIDTH 960 0
DWIDTH 34 0
BBX 34 34 0 -2
BITMAP
0000000000
0000000000
0400000600
07FFFFFF00
0600000000
0600000000
0600300000
0600700000
0600F80000
0600CC0000
0601860000
0603830000
0607018000
060E00E000
0618037800
0637FF9F00
0660000600
06C0000000
0600000000
0600000000
0600006000
063FFFF000
0C00006000
0C0000E000
0C0000C000
0C00018000
0C00018000
1800030000
1800030000
1800060000
30000C0000
2000080000
0000000000
0000000000
ENDCHAR

STARTCHAR cns3_2331
ENCODING 9009
SWIDTH 960 0
DWIDTH 34 0
BBX 34 34 0 -2
BITMAP
0000000000
0000000000
000000C000
07FFFFE000
000000C000
000700C000
000600C000
000600C000
000600C000
000600C000
0006066000
07FFFF6100
0006006100
0006006100
0006003100
0006003380
0006001F80
000600CF80
3FFFFFE700
000C000000
0018000000
0038000000
0030300000
0060180000
00600C0000
00C0060000
01803F0000
0187E38000
07FE018000
1FC0018000
1C00000000
0000000000
0000000000
0000000000
ENDCHAR

STARTCHAR cns3_2332
ENCODING 9010
SWIDTH 960 0
DWIDTH 34 0
BBX 34 34 0 -2
BITMAP
0000000000
0000E00000
0000C00000
0000C00000
0000C00000
0100C03000
01FFFFF800
0180C03000
0180C03000
0180C03000
0180C03000
0180C03000
01FFFFF000
0180C03000
0000C00000
0000C00000
0000C00000
0000C00000
0000018000
01FFFFC000
00C0038000
0060030000
0030060000
00180C0000
000E180000
0007700000
0003E00000
0001F00000
00073C0000
001C0F8000
007003FF00
03C0007800
0E00000000
0000000000
ENDCHAR

STARTCHAR cns3_2333
ENCODING 9011
SWIDTH 960 0
DWIDTH 34 0
BBX 34 34 0 -2
BITMAP
0000000000
0000000000
0000008000
01FFFFC000
001003C000
0018030000
0008060000
000C0C0000
0006180000
0003300000
0001E00000
0001F00000
00073C0000
001C0F0000
00F003FE00
0380007C00
1C00000800
0001801800
07FFFFFC00
0003903800
0003103000
0007187000
00C6086000
006C0CC000
003C078000
003C030000
006E078000
00C70CE000
0183187800
0300703F00
0E01C01E00
3807000400
0000000000
0000000000
ENDCHAR

STARTCHAR cns3_2334
ENCODING 9012
SWIDTH 960 0
DWIDTH 34 0
BBX 34 34 0 -2
BITMAP
0000000000
0000000000
0000000E00
0003001C00
1031801800
1FF9803800
1830C07000
1830E06000
183070C000
1830718000
1830310000
1830030000
18300E0000
18300E0000
18300C0000
18300C0000
18300C0000
18300C0000
18300C0000
18300C0000
1FF00C0000
18300C0000
00000C0000
00000C0000
00000C0000
00000C0000
00000C0000
00000C0000
00000C0000
00000C0000
00000C0000
00000C0000
00000C0000
0000000000
ENDCHAR

STARTCHAR cns3_2335
ENCODING 9013
SWIDTH 960 0
DWIDTH 34 0
BBX 34 34 0 -2
BITMAP
0000000000
0000000000
0000000000
0000000000
2060000C00
3FF3FFFE00
3060060000
3060060000
3060060000
3060060000
3060060000
3060060000
3060060000
3060060000
3060060000
3060060000
3060060000
3060060000
3060060000
3060060000
3FE0060000
3060060000
0000060000
0000060000
0000060000
0000060000
0000060000
0000060000
0000060000
0000060600
000FFFFF00
0000000000
0000000000
0000000000
ENDCHAR

STARTCHAR cns3_2336
ENCODING 9014
SWIDTH 960 0
DWIDTH 34 0
BBX 34 34 0 -2
BITMAP
0000000000
0000000000
0001000600
0001FFFF00
2031800600
3FF9800600
3031800600
3031800600
3031800600
3031800600
3031800600
3031800600
3031FFFE00
3031800600
3031800000
3031800000
3031800000
3031800000
3031800000
3FF1800000
3031800000
0003000000
0003000000
0003000000
0003000000
0003000000
0006000000
0006000000
000C000000
000C000000
0018000000
0030000000
0000000000
0000000000
ENDCHAR

STARTCHAR cns3_2337
ENCODING 9015
SWIDTH 960 0
DWIDTH 34 0
BBX 34 34 0 -2
BITMAP
0000000000
0000001C00
0000007800
000001F000
40603F8000
7FF3FE0000
6060060000
6060060000
6060060000
6060060000
6060060000
6060060000
6060060000
6060060000
6060060600
606FFFFF00
6060060000
6060060000
6060060000
7FE0060000
6060060000
0000060000
0000060000
0000060000
0000060000
0000060000
0000060000
0000060000
0000060000
0000060000
0000060000
0000060000
0000060000
0000000000
ENDCHAR

STARTCHAR cns3_2338
ENCODING 9016
SWIDTH 960 0
DWIDTH 34 0
BBX 34 34 0 -2
BITMAP
0000000000
0000000000
008000C000
00FFFFE000
00C000C000
00C000C000
00C000C000
00C000C000
00C000C000
00C000C000
00C000C000
00C000C000
00FFFFC000
00C000C000
0000000000
0001C00000
0001800000
0001800000
0001800000
0001800C00
3FFFFFFE00
0003C00000
0003600000
0003200000
0006300000
000E180000
000C0C0000
0018070000
007003C000
01E001F000
0700007F80
1C00001E00
0000000000
0000000000
ENDCHAR

STARTCHAR cns3_2339
ENCODING 9017
SWIDTH 960 0
DWIDTH 34 0
BBX 34 34 0 -2
BITMAP
0000000000
0000000000
0000000000
0000000000
1006200C00
1FFF3FFE00
1806300C00
1806300C00
1806300C00
1806300C00
1806300C00
1806300C00
1806300C00
1806300C00
1806300C00
1806300C00
1806300C00
1806300C00
1806300C00
1806300C00
1806300C00
1806300C00
1806300C00
1806300C00
1806300C00
1806300C00
1FFE3FFC00
1806300C00
1806300C00
0000000000
0000000000
0000000000
0000000000
0000000000
ENDCHAR

STARTCHAR cns3_233A
ENCODING 9018
SWIDTH 960 0
DWIDTH 34 0
BBX 34 34 0 -2
BITMAP
0000000000
0000000000
0000000000
0000000300
206FFFFF80
3FF00C0000
30600C0000
30600C0000
30600C0000
30600C0000
30600E0000
30600F0000
30600D8000
30600CC000
30600CE000
30600C7000
30600C7000
30600C3000
30600C0000
30600C0000
3FE00C0000
30600C0000
00000C0000
00000C0000
00000C0000
00000C0000
00000C0000
00000C0000
00000C0000
00000C0000
00000C0000
00000C0000
00000C0000
0000000000
ENDCHAR

STARTCHAR cns3_233B
ENCODING 9019
SWIDTH 960 0
DWIDTH 34 0
BBX 34 34 0 -2
BITMAP
0000000000
0000000000
008000C000
00FFFFE000
00C000C000
00C000C000
00C000C000
00C000C000
00C000C000
00C000C000
00C000C000
00C000C000
00FFFFC000
00C000C000
0000000000
0000000000
0000000000
0000000000
0400001800
07FFFFFC00
0600001800
0600001800
0600001800
0600001800
0600001800
0600001800
0600001800
0600001800
0600001800
07FFFFF800
0600001800
0000000000
0000000000
0000000000
ENDCHAR

STARTCHAR cns3_233C
ENCODING 9020
SWIDTH 960 0
DWIDTH 34 0
BBX 34 34 0 -2
BITMAP
0000000000
0000000000
0000000000
00001C0000
2060180000
3FF0380000
3060300000
3060300000
3060600000
3060600000
3060C00000
3060C00000
3061800000
3063000000
30630E0000
30660C0000
306C1C0000
3078180000
3060380000
3060300000
3FE060C000
3060606000
0000C03000
0000C01800
0001800C00
0001807E00
000307C600
001FFC0700
001F000300
0000000300
0000000000
0000000000
0000000000
0000000000
ENDCHAR

STARTCHAR cns3_233D
ENCODING 9021
SWIDTH 960 0
DWIDTH 34 0
BBX 34 34 0 -2
BITMAP
0000000000
0000000000
1000000C00
1FFFFFFE00
1800000C00
180E1C0C00
180C180C00
180C180C00
180C180C00
180C180C00
180C180C00
180C180C00
180C180C00
180C18CC00
1BFFFFEC00
180C180C00
180C180C00
1818180C00
1818180C00
1818180C00
1818180C00
1818180C00
1830180C00
1830180C00
1860180C00
1860180C00
19C0180C00
1B00180C00
1800000C00
1FFFFFFC00
1800000C00
0000000000
0000000000
0000000000
ENDCHAR

STARTCHAR cns3_233E
ENCODING 9022
SWIDTH 960 0
DWIDTH 34 0
BBX 34 34 0 -2
BITMAP
0000000000
0000000000
1000000C00
1FFFFFFE00
1800000C00
1800380C00
1800300C00
1800300C00
1800300C00
1800300C00
1800318C00
19FFFFCC00
1800300C00
1800300C00
1800300C00
1860300C00
1830300C00
1838300C00
181C300C00
180C300C00
180C300C00
1800300C00
1800300C00
1800300C00
1800700C00
1807F00C00
1800F00C00
1800600C00
1800000C00
1FFFFFFC00
1800000C00
0000000000
0000000000
0000000000
ENDCHAR

STARTCHAR cns3_233F
ENCODING 9023
SWIDTH 960 0
DWIDTH 34 0
BBX 34 34 0 -2
BITMAP
0000000000
00001C0000
0000180000
0000180000
01C0180000
0180180000
0180180000
0180180000
0180180000
0180180000
0180180000
0198180000
1FFC180000
0180180000
0180180C00
01801FFE00
0180180000
0180180000
0180180000
0180180000
0180180000
0180180000
01B8180000
01E0180000
07C0180000
3F00180000
3C00180000
0000180000
0000180000
0000180600
001FFFFF00
0000000000
0000000000
0000000000
ENDCHAR

STARTCHAR cns3_2340
ENCODING 9024
SWIDTH 960 0
DWIDTH 34 0
BBX 34 34 0 -2
BITMAP
0000000000
0001C00000
0001800000
0001800000
0003000000
0003000000
0007000C00
3FFFFFFE00
000C180000
00180C0000
0030060000
0030070000
0060038000
00C001C000
0180E07800
0300C03E00
0600C00F80
1C00C00600
7000C00000
0000C00000
0000C06000
03FFFFF000
0000C00000
0000C00000
0000C00000
0000C00000
0000C00000
0000C00000
0000C00000
0000C00300
7FFFFFFF80
0000000000
0000000000
0000000000
ENDCHAR

STARTCHAR cns3_2341
ENCODING 9025
SWIDTH 960 0
DWIDTH 34 0
BBX 34 34 0 -2
BITMAP
0000000000
0007000000
000E000000
003C01C000
01F0018000
0FC0018000
0070018000
0060018000
0060018000
0060018000
0060018000
0060018000
0066018000
3FFF018C00
00607FFE00
0060018000
0060018000
0060018000
0060018000
0060018000
0060018000
0060018000
0060018000
0060018000
0060018000
0060018000
0060018000
0060018000
0060018000
0060018600
0063FFFF00
0060000000
0060000000
0000000000
ENDCHAR

STARTCHAR cns3_2342
ENCODING 9026
SWIDTH 960 0
DWIDTH 34 0
BBX 34 34 0 -2
BITMAP
0000000000
0000001C00
0000007800
000001F000
01C00FC000
0180FF0000
0180030000
0180030000
0180030000
0180030000
0180030000
0198030000
1FFC030000
0180030000
0180030600
0183FFFF00
0180030000
0180030000
0180030000
0180030000
0180030000
0180030000
019C030000
01F0030000
0780030000
3E00030000
7800030000
7000030000
0000030000
0000030000
0000030000
0000030000
0000030000
0000000000
ENDCHAR

STARTCHAR cns3_2343
ENCODING 9027
SWIDTH 960 0
DWIDTH 34 0
BBX 34 34 0 -2
BITMAP
0000000000
0038070000
0030060000
0030060000
0030060000
0030060000
1830060000
0E30060000
0330060000
03B0060000
01F0060000
00F0060000
00F0060600
0037FFFF00
0030060000
0030060000
0030060000
0030060000
0030060000
0030060000
01F0060000
0730060000
1E30060000
3830060000
3030060000
0030060000
0030060000
0030060000
0030060000
0030060600
0033FFFF00
0030000000
0030000000
0000000000
ENDCHAR

STARTCHAR cns3_2344
ENCODING 9028
SWIDTH 960 0
DWIDTH 34 0
BBX 34 34 0 -2
BITMAP
0000000000
0007000000
000E000000
000E000000
003800C000
003FFFE000
00F000C000
00D801C000
0398030000
070C060000
1C031C0000
3001B00000
0001E00000
0003BC0000
001E078000
0070E1FF80
07C0C01E00
1800C18000
00FFFFC000
0000C00000
00C0C00000
00C0C00000
00C0C00000
0180C00000
0180C01800
01FFFFFC00
0180C00000
0300C00000
0000C00000
0000C00000
0000C00000
0000C00000
0000C00000
0000000000
ENDCHAR

STARTCHAR cns3_2345
ENCODING 9029
SWIDTH 960 0
DWIDTH 34 0
BBX 34 34 0 -2
BITMAP
0000000000
0000007000
000003E000
00003F8000
003FF00000
07E3800000
0006000000
0006000000
0006000600
1FFFFFFF00
000C0C0000
00180C0000
0030060000
0060038000
00C001E000
019C077800
0718061F80
1C18060600
7018060000
0018060000
0018060000
0018060000
0018060000
0018060000
0038060000
0030060000
0030060000
0070060000
0060060000
0060060000
00C0060000
0180060000
0700060000
0000000000
ENDCHAR

STARTCHAR cns3_2346
ENCODING 9030
SWIDTH 960 0
DWIDTH 34 0
BBX 34 34 0 -2
BITMAP
0000000000
0001C00000
0001800000
0003800000
0003000000
0007000C00
3FFFFFFE00
000C180000
00180C0000
0038060000
0070030000
00C0018000
018000E000
0300007800
060E071E00
1C0C060F80
700C060600
000C060000
000C060000
000C060300
7FFFFFFF80
000C060000
000C060000
0018060000
0018060000
0018060000
0030060000
0060060000
0060060000
00C0060000
0380060000
0600060000
1C00060000
0000000000
ENDCHAR

STARTCHAR cns3_2347
ENCODING 9031
SWIDTH 960 0
DWIDTH 34 0
BBX 34 34 0 -2
BITMAP
0000000000
00E001C000
00C0018000
00C0018000
00C0018000
00C0018000
00C0018000
00C0018000
00C0018000
00C0018000
00C0018000
00C6018600
1FFF3FFF00
00C0018000
00E001C000
01A001C000
01A0034000
01A0034000
01B0036000
01B0036000
0330066000
0318063000
0318063000
06180C3000
060C0C1800
040E081C00
0C0E181C00
0C07180E00
1807B00F00
1003A00700
3003E00780
6001C00380
0000000000
0000000000
ENDCHAR

STARTCHAR cns3_2348
ENCODING 9032
SWIDTH 960 0
DWIDTH 34 0
BBX 34 34 0 -2
BITMAP
0000000000
0001C00000
0001800000
0001800000
0001800000
0001800C00
3FFFFFFE00
0003C00000
0003600000
0006300000
0006180000
001C0C0000
0038070000
00E001C000
018000FC00
0F00003F00
3800000C00
0001C00000
0001800000
0001800000
0001800C00
3FFFFFFE00
0003C00000
0003600000
0006300000
000C180000
001C0C0000
0038070000
006003C000
01C000F000
0F00007F80
7800000E00
0000000000
0000000000
ENDCHAR

STARTCHAR cns3_2349
ENCODING 9033
SWIDTH 960 0
DWIDTH 34 0
BBX 34 34 0 -2
BITMAP
0000000000
01C0000000
0180000000
0380003000
0303FFF800
0300183000
0300183000
0300183000
0318183000
3FFC183000
0618183000
0618183000
0618183000
0618183000
0C18183000
0C1BFFF000
0C30183000
1830183000
1830183000
1830183000
1060181800
3C60181800
3760181800
01C0181800
00E0181900
01F0181900
01B0180D00
0310180D80
0600180780
0C00180780
3800180380
6000180000
0000180000
0000000000
ENDCHAR

STARTCHAR cns3_234A
ENCODING 9034
SWIDTH 960 0
DWIDTH 34 0
BBX 34 34 0 -2
BITMAP
0000000000
01C0000000
01801C0000
0180198000
030018E000
0300187000
0300183000
0300183000
0318180000
3FFC181800
06181FFC00
061BFC0000
06180C0000
06180C0000
0C180C0000
0C180C0000
0C300C0000
0C300C0000
18300C0000
1830060000
1830060000
3660060000
3360030000
01E0030000
00E0018000
00F0018100
01B800C100
019800E100
030C007380
0600003F80
1C00001F80
3000000F00
0000000000
0000000000
ENDCHAR

STARTCHAR cns3_234B
ENCODING 9035
SWIDTH 960 0
DWIDTH 34 0
BBX 34 34 0 -2
BITMAP
0000000000
01C0000000
01801C0000
0380380000
0300380000
0300300000
0300300000
0300606000
03187FF000
3FFC606000
0618C0C000
0618C0C000
0418C0C000
0C1980C000
0C19818000
0833018000
0833018000
1836030000
1830030000
1860030000
1060078000
3C60048000
37600CC000
01C0184000
00C0306000
01E0303000
01B0603800
0330C01C00
0609800F00
0C07000780
180C000000
3038000000
00E0000000
0000000000
ENDCHAR

STARTCHAR cns3_234C
ENCODING 9036
SWIDTH 960 0
DWIDTH 34 0
BBX 34 34 0 -2
BITMAP
0000000000
0001C00000
0003800000
0003000000
0006000C00
1FFFFFFE00
000C030000
0018070000
0030060000
00600C0000
007C0C0000
00C7F80000
0000FF0000
0003C3C000
001E01F000
07F0007000
0000000000
0001C00000
0003800000
0003000000
0006000C00
1FFFFFFE00
000C030000
0018030000
0030060000
00700C0000
007F0C0000
00C1F80000
0000FF0000
000783C000
003C01F000
0FE0007000
0000000000
0000000000
ENDCHAR

STARTCHAR cns3_234D
ENCODING 9037
SWIDTH 960 0
DWIDTH 34 0
BBX 34 34 0 -2
BITMAP
0000000000
00700E0000
00600C0000
00600C0000
00600C0000
0060180000
3060180000
1860180000
0C60180000
0760300000
03E0300600
01E7FFFF00
00E0603000
0060603000
0060C03000
0060C03000
0060C06000
0061806000
0061806000
006180C000
03E300C000
0E63C0C000
3C62318000
30660F8000
3060038000
006006C000
00600C6000
0060183800
0060301C00
0060600E00
0061C00600
0067000000
0060000000
0000000000
ENDCHAR

STARTCHAR cns3_234E
ENCODING 9038
SWIDTH 960 0
DWIDTH 34 0
BBX 34 34 0 -2
BITMAP
0000000000
0038383800
0030303000
0070707000
006060C000
00C0C0C000
0181818000
0103030000
038181C000
01C1C0F000
00E0E07000
0060603000
0060603000
0000018000
00FFFFC000
0000030000
00000E0000
0000180000
0000F00000
0000E00000
0000C00000
3000C00300
7FFFFFFF80
0000C00000
0000C00000
0000C00000
0000C00000
0000C00000
0000C00000
0001C00000
003FC00000
0007800000
0003000000
0000000000
ENDCHAR

STARTCHAR cns3_234F
ENCODING 9039
SWIDTH 960 0
DWIDTH 34 0
BBX 34 34 0 -2
BITMAP
0000000000
0000E00000
0000C00000
0000C00000
0000C00000
0800C00600
0FFFFFFF00
1800000E00
1807000C00
3806000C00
700C001800
000C0C0000
001FFE0000
00100C0000
00300C0000
00600C0000
00C0180000
0180180000
0300300000
0600600000
0C00600000
0000D00000
0001980000
0003080000
00060C0000
000C060000
0018030000
0030018000
00E000E000
01C0007000
0700003E00
1C00001800
7000000000
0000000000
ENDCHAR

STARTCHAR cns3_2350
ENCODING 9040
SWIDTH 960 0
DWIDTH 34 0
BBX 34 34 0 -2
BITMAP
0000000000
0000E00000
0000C00000
0000C00000
0800C00000
0800C00600
0FFFFFFF00
1800000F00
1800000C00
380000C800
33FFFFE000
000000C000
000000C000
000000C000
008000C000
00FFFFC000
018000C000
0180000000
0180000000
0300000000
0300003000
03FFFFF000
0300003000
0600003000
0600003000
0000003000
0000006000
0000006000
000000C000
000003C000
00007F8000
00000F0000
0000060000
0000000000
ENDCHAR

STARTCHAR cns3_2351
ENCODING 9041
SWIDTH 960 0
DWIDTH 34 0
BBX 34 34 0 -2
BITMAP
0000000000
0000E00000
0000C00000
0000C00000
0000C00000
0180C07000
00C0C06000
00E0C0E000
0060C1C000
0070C18000
0030C30000
0030C30000
0000C20000
0000C01800
03FFFFFC00
0000001800
0000001800
0000001800
0000001800
0000001800
0000001800
07FFFFF800
0000001800
0000001800
0000001800
0000001800
0000001800
0000001800
0000001800
07FFFFF800
0000001800
0000000000
0000000000
0000000000
ENDCHAR

STARTCHAR cns3_2352
ENCODING 9042
SWIDTH 960 0
DWIDTH 34 0
BBX 34 34 0 -2
BITMAP
0000000000
0000700000
0000600000
0000600000
0000600000
0038600000
003060C000
0070606000
0060603000
00C0601800
0180600E00
0300600600
0E00E00700
381FE00300
0003C00300
0001800000
0000000000
0000000000
0000E00000
0000C00000
0000C00000
0000C00000
0000C00000
0000C06000
03FFFFF000
0000C00000
0000C00000
0000C00000
0000C00000
0000C00000
0000C00300
7FFFFFFF80
0000000000
0000000000
ENDCHAR

STARTCHAR cns3_2353
ENCODING 9043
SWIDTH 960 0
DWIDTH 34 0
BBX 34 34 0 -2
BITMAP
0000000000
0000000000
0200000C00
03FFFFFE00
0300000C00
0300000C00
0300000C00
0300000C00
0300000C00
03FFFFFC00
0300000C00
0300003000
030FFFF800
0300007000
030000C000
0300018000
03001A0000
03001C0000
0300180000
0300180000
0300180C00
037FFFFE00
0300180000
0600180000
0600180000
0600180000
0E00180000
0C00180000
0800180000
1800380000
3007F80000
0000F00000
0000600000
0000000000
ENDCHAR

STARTCHAR cns3_2354
ENCODING 9044
SWIDTH 960 0
DWIDTH 34 0
BBX 34 34 0 -2
BITMAP
0000000000
0000000000
0080003000
00FFFFF800
00C0003000
00C0003000
00C0003000
00C0003000
00C0003000
00C0003000
00C0003000
00C0003000
00C0003000
00FFFFF000
00C0603000
00C0303000
00C0300000
00C0180000
00C6180000
00C3180000
01818C0000
01818C0000
0180CC0000
0180C60000
0300070000
0300030000
060C038000
060701C000
040300F000
0C01807C00
3801803F80
6000000E00
0000000000
0000000000
ENDCHAR

STARTCHAR cns3_2355
ENCODING 9045
SWIDTH 960 0
DWIDTH 34 0
BBX 34 34 0 -2
BITMAP
0000000000
0000000000
0000000000
0380000000
0300000000
0300000E00
0301FFFF00
0300060000
0300060000
731C060000
6318060000
6318060000
6318060000
6318060000
6318060000
6318060000
6318060000
6318060000
6318060000
6318060000
6318060000
6318060000
6318060000
6318060000
6318060000
6318060000
6318060000
7FF8060000
6018060000
6000060000
0000060300
000FFFFF80
0000000000
0000000000
ENDCHAR

STARTCHAR cns3_2356
ENCODING 9046
SWIDTH 960 0
DWIDTH 34 0
BBX 34 34 0 -2
BITMAP
0000000000
0000000000
0380000000
0300000C00
03007FFE00
0300000C00
0300001800
3B1C003000
3318006000
331800C000
3318038000
3318030000
3318030000
3318030000
3318030300
331FFFFF80
3318030000
3318030000
3318030000
3318030000
3318030000
3318030000
3318030000
3318030000
3FF8030000
3018030000
0000030000
0000030000
0000030000
0000070000
0000FF0000
00001E0000
00000C0000
0000000000
ENDCHAR

STARTCHAR cns3_2357
ENCODING 9047
SWIDTH 960 0
DWIDTH 34 0
BBX 34 34 0 -2
BITMAP
0000000000
0001C00000
0001800000
0001800000
0001800000
0001800000
0001800300
7FFFFFFF80
0003C00000
0003600000
0006300000
000E180000
001C0C0000
0018070000
007003C000
00C000F000
0380007F80
1E00E01E00
7000C00000
0000C00000
0000C00000
0380C01C00
0300C01800
0300C01800
0300C01800
0300C01800
0300C01800
0300C01800
0300C01800
03FFFFF800
0300001800
0000000000
0000000000
0000000000
ENDCHAR

STARTCHAR cns3_2358
ENCODING 9048
SWIDTH 960 0
DWIDTH 34 0
BBX 34 34 0 -2
BITMAP
0000000000
0000000000
0000006000
0FFFFFF000
0000006000
0000006000
0000006000
0000006000
0300006000
03FFFFE000
0300006000
0300000000
0300000000
0300000400
0300000400
0300000400
0300000600
0380000E00
03FFFFFE00
01FFFFFC00
0000000000
0001C00000
0001800000
0701803800
0601803000
0601803000
0601803000
0601803000
0601803000
0601803000
07FFFFF000
0600003000
0000000000
0000000000
ENDCHAR

STARTCHAR cns3_2359
ENCODING 9049
SWIDTH 960 0
DWIDTH 34 0
BBX 34 34 0 -2
BITMAP
0000000000
0380000000
0300000000
0300800C00
0300FFFE00
0300C00C00
0300C00C00
3B1CC00C00
3318C00C00
3318C00C00
3318C00C00
3318C00C00
3318C00C00
3318C00C00
3318FFFC00
3318C00C00
3318C00000
3318C00000
3318C00000
3318C00000
3318C00000
3318C00000
3318C00000
3318C00000
3318C00000
3FF8C00100
3018C00100
0000C00100
0000C00180
0000E00380
0000FFFF80
00007FFF00
0000000000
0000000000
ENDCHAR

STARTCHAR cns3_235A
ENCODING 9050
SWIDTH 960 0
DWIDTH 34 0
BBX 34 34 0 -2
BITMAP
0000000000
0001C00000
0001800000
0001800000
0001800000
0701803800
0601803000
0601803000
0601803000
0601803000
0601803000
0601803000
0601803000
0601803000
07FFFFF000
0600003000
0000000000
0001C00000
0001800000
0001800000
0001800000
0701803800
0601803000
0601803000
0601803000
0601803000
0601803000
0601803000
0601803000
07FFFFF000
0600003000
0000000000
0000000000
0000000000
ENDCHAR

STARTCHAR cns3_235B
ENCODING 9051
SWIDTH 960 0
DWIDTH 34 0
BBX 34 34 0 -2
BITMAP
0000000000
0380E00000
0300C00000
0300C00000
0300C00000
0300C00000
0300C00000
0301F00000
0303180000
03020F0000
0306030000
039C00C000
03FFFFE000
01FFFFE000
0000000000
00E0E1C000
00C0C18000
00C0C18000
00C0C18000
00C0C18000
00C0C18000
00C0C18000
00C0C18000
0180C18000
0180C18100
0180C18100
0180C18100
0180C18180
0300C1C380
0600C1FF80
0C00C0FF00
3800C00000
6000C00000
0000000000
ENDCHAR

STARTCHAR cns3_235C
ENCODING 9052
SWIDTH 960 0
DWIDTH 34 0
BBX 34 34 0 -2
BITMAP
0000000000
0000000000
01C0000600
018FFFFF00
01800C0000
01800C0000
01800C0000
01800C0000
31800C0000
19840C0C00
1987FFFE00
1D860C0C00
0D860C0C00
0D860C0C00
0D860C0C00
01860C0C00
01860C0C00
01860C0C00
01860C0C00
01860C0C00
01860C0C00
03060C0C00
03060C0C00
03060C1C00
03060FFC00
06060C7800
0C060C3000
0C060C0000
18000C0000
30000C0000
60000C0000
00000C0000
00000C0000
0000000000
ENDCHAR

STARTCHAR cns3_235D
ENCODING 9053
SWIDTH 960 0
DWIDTH 34 0
BBX 34 34 0 -2
BITMAP
0000000000
0380038000
0300070000
0300060000
03000E0000
03001C0000
0300380000
0300E00000
4318000000
7FFC418000
63187FC000
6318618000
6318618000
6318618000
6318618000
6318618000
6318618000
6318618000
6318618000
6318C18000
6318C18000
6318C18000
6318C18000
6338C18200
63F9818200
6331818200
0303018200
0303018300
030601C700
030C01FF00
031800FE00
0330000000
0300000000
0000000000
ENDCHAR

STARTCHAR cns3_235E
ENCODING 9054
SWIDTH 960 0
DWIDTH 34 0
BBX 34 34 0 -2
BITMAP
0000000000
0000700000
0000600000
0000600000
0800600600
0FFFFFFF00
0C00000000
0C00000000
0C00700000
0C00E00000
0C00E00000
0C01C00000
0C01818000
0C03FFC000
0C03018000
0C06018000
0C06030000
0C0C030000
0C0C060000
0C180E0000
0C300C0000
0C601A0000
0C001B0000
0C00718000
1800618000
1801C0C000
1803806000
3006007000
301C003C00
2030001E00
60E0000F80
0180000600
0000000000
0000000000
ENDCHAR

STARTCHAR cns3_235F
ENCODING 9055
SWIDTH 960 0
DWIDTH 34 0
BBX 34 34 0 -2
BITMAP
0000000000
0000700000
0000600000
0000600000
0800600600
0FFFFFFF00
0C00000000
0C00000000
0C00000000
0C00006000
0C1FFFF000
0C00180000
0C00180000
0C00180000
0C00180000
0C00180000
0C00180600
0CFFFFFF00
0C00180000
0C00180000
0C00180000
0C00180000
0C00180000
0C00180000
1800180000
1800180000
1800180000
1800180000
3000180000
3000380000
6007F80000
0000F00000
0000600000
0000000000
ENDCHAR

STARTCHAR cns3_2360
ENCODING 9056
SWIDTH 960 0
DWIDTH 34 0
BBX 34 34 0 -2
BITMAP
0000000000
0000700000
0000600000
0000600000
0000600000
0800600600
0FFFFFFF00
0C00000000
0C00038000
0C000F0000
0C003C0000
0C00F80000
0C07E00000
0C3C600000
0C60600000
0C00600380
0C00600F00
0C00607E00
0C007FE000
0C07F80000
0DFC600000
0C00600000
0C00600000
0C00600000
1800600000
1800600200
1800600200
3000600200
3000600300
2000700700
60007FFF00
00003FFE00
0000000000
0000000000
ENDCHAR

STARTCHAR cns3_2361
ENCODING 9057
SWIDTH 960 0
DWIDTH 34 0
BBX 34 34 0 -2
BITMAP
0000000000
0000000000
0060000000
3FF071C700
0060618600
0060618600
00C0618600
01C0618C00
0180C30C00
0380C31800
0300C31800
0700C31800
0631863000
0FF9863000
0C330C6000
08330C6000
00330C6000
0061863000
3C61863000
3460C31800
34C0C31800
34C0C30C00
66C0618C00
6380618600
0380618600
038030C300
06C030C300
066030C300
0C3C000000
1807FFFF80
3003FFFE00
6000000000
0000000000
0000000000
ENDCHAR

STARTCHAR cns3_2362
ENCODING 9058
SWIDTH 960 0
DWIDTH 34 0
BBX 34 34 0 -2
BITMAP
0000000000
00001C0000
0000198000
000018E000
0000187000
0000183000
0000183000
0000180000
0000180C00
7FFFFFFE00
0000180000
0000180000
0000180000
0000180000
00018C0000
0FFFCC0000
00000C0000
00000C0000
00000C0000
0000060000
0003060000
07FF860000
0000030000
0000030000
0000018000
000061C100
1FFFF0C100
0000006100
0000007300
0000003F80
0000001F80
0000000F80
0000000300
0000000000
ENDCHAR

STARTCHAR cns3_2363
ENCODING 9059
SWIDTH 960 0
DWIDTH 34 0
BBX 34 34 0 -2
BITMAP
0000000000
00001C0000
0030180000
1FF8380000
0030300000
0030300000
0030300000
0030600600
00307FFF00
1830C00600
1FF0C00600
1830C00600
1801800600
1801800600
1803000600
1800300600
1800180600
18300E0600
1FF8070600
3030038C00
3030038C00
0030018C00
0030000C00
0060000C00
0060000C00
0060000C00
0060001800
0060001800
0060003800
00E00FF000
3FC001E000
078000C000
0300000000
0000000000
ENDCHAR

STARTCHAR cns3_2364
ENCODING 9060
SWIDTH 960 0
DWIDTH 34 0
BBX 34 34 0 -2
BITMAP
0000000000
0000000000
0030000000
1FF8001800
0033FFFC00
0030000000
0030000000
0030000000
0030000000
1830000000
1FF0000600
1837FFFF00
1830300000
1800300000
1800300000
1800600000
1800600000
1830601800
1FF8FFFC00
3030C01800
3030C01800
0031801800
0031801800
0060003000
0060003000
0060003000
0060003000
0060003000
0060003000
00E0006000
1FC01FE000
03C003C000
0180018000
0000000000
ENDCHAR

STARTCHAR cns3_2365
ENCODING 9061
SWIDTH 960 0
DWIDTH 34 0
BBX 34 34 0 -2
BITMAP
0000000000
0000000000
0000000000
000000F000
00C000E000
007001C000
001E038000
0007830000
0001E60000
00007C0000
00003E0000
0000778000
0000E1E000
0001C0F000
0007007800
003C003C00
01E0001800
0F00000000
0000000000
0000000000
0001800000
0000E00000
0038703000
0430381800
0430180C00
0430010E00
0C30010700
0C30010700
3830018300
3838038000
303FFF8000
001FFF0000
0000000000
0000000000
ENDCHAR

STARTCHAR cns3_2366
ENCODING 9062
SWIDTH 960 0
DWIDTH 34 0
BBX 34 34 0 -2
BITMAP
0000000000
01C0000000
0180000000
0180001800
0181FFFC00
0180060000
0180060000
01A0060000
09A0060000
09B0060000
1998060000
1998060000
3998060000
7180060000
7180060600
0187FFFF00
0180060000
0180060000
0180060000
0180060000
0180060000
0180060000
0180060000
0180060000
0180060000
0180060000
0180060000
0180060000
0180060000
0180060000
0180060000
0180060000
0180060000
0000000000
ENDCHAR

STARTCHAR cns3_2367
ENCODING 9063
SWIDTH 960 0
DWIDTH 34 0
BBX 34 34 0 -2
BITMAP
0000000000
01C0070000
0180060000
0180060000
0180060000
0181C60000
0181860000
01A1860C00
09A1860E00
19B1867C00
19B187EC00
31998F0C00
3199FE0C00
3181E60C00
318F860C00
019D860C00
0181860C00
0181860C00
0181860C00
0181860C00
0181861800
018186F800
0181863000
0181860000
0181860000
0181800200
0181800200
0181800200
0181800300
0181C00700
0180FFFF00
01807FFE00
0180000000
0000000000
ENDCHAR

STARTCHAR cns3_2368
ENCODING 9064
SWIDTH 960 0
DWIDTH 34 0
BBX 34 34 0 -2
BITMAP
0000000000
01C0000000
0180000000
0180000000
0180000600
0181FFFF00
0180060600
01A0060600
05A0060600
0DB0060600
1998060600
1998060600
3198060600
3180C60600
3180660600
0180360600
01801E0C00
01800C0C00
01800E0C00
01800F0C00
0180198C00
0180198C00
018030CC00
018030CC00
0180300C00
0180600C00
0180C01800
0180C01800
0181801800
0183003800
018607F000
019C00F000
01B0006000
0000000000
ENDCHAR

STARTCHAR cns3_2369
ENCODING 9065
SWIDTH 960 0
DWIDTH 34 0
BBX 34 34 0 -2
BITMAP
0000000000
01C0000000
0180000000
0181006000
0181FFF000
0181806000
0181806000
01A1806000
09A1806000
09B1806000
19B1806000
1199806000
3199806000
3181906000
3181986000
01818C6000
01818C6000
0181866000
0181866000
0181866000
0181806000
0183006000
0183006000
0183006000
0183006000
0183006100
0186006100
0186006100
018C006180
018C006180
0198007380
01B0007F80
0180003F00
0000000000
ENDCHAR

STARTCHAR cns3_236A
ENCODING 9066
SWIDTH 960 0
DWIDTH 34 0
BBX 34 34 0 -2
BITMAP
0000000000
0001C00000
0001800000
0001860000
0001838000
000181C000
000180CC00
3FFFFFFE00
0001800000
0001800000
0001801800
1FFFFFFC00
0001800000
0001800000
0001800600
3FFFFFFF00
0001800000
0001807000
000180E000
000180C000
0000C18000
0000C18000
0000630000
0000660000
00003C0000
0000380100
00007C0100
0001C60100
000F838180
001C01E380
0070007F80
07C0000F00
0000000000
0000000000
ENDCHAR

STARTCHAR cns3_236B
ENCODING 9067
SWIDTH 960 0
DWIDTH 34 0
BBX 34 34 0 -2
BITMAP
0000000000
00001C0000
0000180000
0000180000
0018186000
1FFC186000
0018187000
0018183000
0018181800
0018180000
0018180600
001819FF00
0031FF0000
1830180000
0C30180000
0430180000
0630180000
03300C1C00
01E00C1800
00E00C3800
00C00C3000
00E0066000
01E006E000
01B003C000
0330038000
0218078100
061C07C100
0C0C1CC100
080C38E180
1800607380
3001C03F80
6003000F00
0000000000
0000000000
ENDCHAR

STARTCHAR cns3_236C
ENCODING 9068
SWIDTH 960 0
DWIDTH 34 0
BBX 34 34 0 -2
BITMAP
0000000000
01C0000000
0180000000
0180000C00
0181FFFE00
0180000000
0180000000
0180000000
0198000000
1FFC000000
0180000600
0183FFFF00
0180180000
0180380000
0180300000
0180300000
019C700000
01F0601800
07C0FFFC00
1F80C01800
3D80C01800
3181801800
0180001800
0180001800
0180001800
0180003000
0180003000
0180003000
0180003000
0380007000
7F800FF000
0F0001E000
060000C000
0000000000
ENDCHAR

STARTCHAR cns3_236D
ENCODING 9069
SWIDTH 960 0
DWIDTH 34 0
BBX 34 34 0 -2
BITMAP
0000000000
01C0000000
0180000000
0180003000
0183FFF800
0180183000
0180183000
0180183000
0198183000
3FFC183000
0180183000
0180183000
0180183000
0180183000
0180183000
019BFFF000
01F0183000
01C0183000
0780183000
1F80183000
3980181800
3180181800
0180181800
0180181800
0180181900
0180181900
0180180D00
0180180D80
0180180780
0380180780
7F80180300
0F00180000
0600180000
0000000000
ENDCHAR

STARTCHAR cns3_236E
ENCODING 9070
SWIDTH 960 0
DWIDTH 34 0
BBX 34 34 0 -2
BITMAP
0000000000
01C00E0000
01800C0000
01800C0000
01800C0000
01800C0000
01800C0000
01800C0000
01980C0000
1FFC0C3000
0181FFF800
01800C3000
01800C3000
01800C3000
01800C3000
01998C3000
01F0EC3000
01C03C3000
07801C3000
1F801E3000
3D801B3000
31801BB000
018031B000
0180319800
0180301900
0180601900
0180C01900
0180C00D00
0181800D80
0383000780
7F8E000780
0F18000300
0600000000
0000000000
ENDCHAR

STARTCHAR cns3_236F
ENCODING 9071
SWIDTH 960 0
DWIDTH 34 0
BBX 34 34 0 -2
BITMAP
0000000000
01C0070000
0180060000
0180060000
0180060000
0180060000
0180060000
0180060000
0198060000
7FFC060000
0180060000
0180060000
0180060C00
0183FFFE00
0180060000
0190060000
01E0060000
01C0060000
0380060000
0F80060000
1D80060000
3980060000
3180060000
0180060000
0180060000
0180060000
0180060000
0180060000
0180060000
0380060600
7F87FFFF00
0F00000000
0600000000
0000000000
ENDCHAR

STARTCHAR cns3_2370
ENCODING 9072
SWIDTH 960 0
DWIDTH 34 0
BBX 34 34 0 -2
BITMAP
0000000000
0000E00000
0000C00000
0000C00000
0000C00300
7FFFFFFF80
0060038000
0020070000
00300E0000
00181C0000
000E380000
0007600000
0003E00000
0007FC0000
001C1FF000
00F001FE00
0F80000000
3838038000
0030030000
0030030000
0030030000
0030030000
0030030000
0030030000
0030030000
0030030000
0060030000
0060030000
00C0030000
00C0030000
0180030000
0300030000
0E00030000
0000000000
ENDCHAR

STARTCHAR cns3_2371
ENCODING 9073
SWIDTH 960 0
DWIDTH 34 0
BBX 34 34 0 -2
BITMAP
0000000000
00E0038000
00C0030000
00C0030000
00C0030000
00C0030000
00C0030000
00C1830000
3FFFC30000
0300030000
0300030000
0300030000
0300030000
0306030000
03FF03C000
030607C000
030606C000
030606C000
060606C000
06060CC000
06060CC000
06060C6000
0606186000
060C186000
0C0C183000
0C0C301800
0C0C301800
180C600C00
180C600E00
181CC00700
33FD800380
607B000100
0030000000
0000000000
ENDCHAR

STARTCHAR cns3_2372
ENCODING 9074
SWIDTH 960 0
DWIDTH 34 0
BBX 34 34 0 -2
BITMAP
0000000000
0000000000
0000000C00
0003FFFE00
10300C0C00
1FF80C0C00
18300C0C00
18300C0C00
18300C0C00
18300C0C00
18301C0C00
1830180C00
1830180C00
1830180C00
1FF0180C00
1830180C00
1830180C00
1830181800
1830181800
1830301800
1830301800
1830301800
1830601800
1830601800
1FF0C01800
1830C01800
0001801800
0003803000
0003007000
00060FF000
001C01E000
007000C000
0000000000
0000000000
ENDCHAR

STARTCHAR cns3_2373
ENCODING 9075
SWIDTH 960 0
DWIDTH 34 0
BBX 34 34 0 -2
BITMAP
0000000000
0000070000
0000060000
0000060000
2030060000
3FF8060000
3030060000
3030060000
3030060000
3030060000
3030060000
3030060000
3030060600
303FFFFF00
3FF0060000
3030060000
3030060000
3030060000
3030060000
3030060000
3030060000
3030060000
3030060000
3030060000
3FF0060000
3030060000
0000060000
0000060000
0000060000
0000060000
0000060000
0000060000
0000060000
0000000000
ENDCHAR

STARTCHAR cns3_2374
ENCODING 9076
SWIDTH 960 0
DWIDTH 34 0
BBX 34 34 0 -2
BITMAP
0000000000
0001C00000
0001800000
0001800000
0401803000
07FFFFF800
0601803000
0601803000
0601803000
0601803000
0601803000
07FFFFF000
0601803000
0601803000
0601803000
0601803000
0601803000
0601803000
07FFFFF000
0601803000
0003800000
0003C00000
0006600000
0006300000
000C180000
00180C0000
0018060000
0030070000
00E001C000
01C000F800
0300003F80
0E00000E00
3800000000
0000000000
ENDCHAR

STARTCHAR cns3_2375
ENCODING 9077
SWIDTH 960 0
DWIDTH 34 0
BBX 34 34 0 -2
BITMAP
0000000000
00E0000000
00C0000000
00C0000000
00C0000600
00C0FFFF00
00C0060600
00C6060600
3FFF060600
01C0060600
01C0060600
01C00C0600
03E00C0600
03F00C0600
06D80C0600
06CC0C0600
06CC0C0C00
0CC00C0C00
0CC00C0C00
18C00C0C00
18C0180C00
30C0180C00
60C0180C00
00C0300C00
00C0600C00
00C0600C00
00C0C00C00
00C0C00C00
00C1801800
00C1803800
00C307F800
00C600F000
00DC006000
0000000000
ENDCHAR

STARTCHAR cns3_2376
ENCODING 9078
SWIDTH 960 0
DWIDTH 34 0
BBX 34 34 0 -2
BITMAP
0000000000
00E0000000
00C0000000
00C0003000
00C3FFF800
00C0603000
00C0606000
00CC606000
3FFE606000
01C0606000
01C060C000
01C060C000
03E060C600
03F060FF00
06D860C600
06CC60C600
0CCC600600
0CC0600600
0CC0600600
18C0600600
18C0C00600
30C0C00600
60C0C00C00
00C1800C00
00C1800C00
00C1800C00
00C3000C00
00C3001800
00C6003800
00C407F800
00CC00F000
00D8006000
00F0000000
0000000000
ENDCHAR

STARTCHAR cns3_2377
ENCODING 9079
SWIDTH 960 0
DWIDTH 34 0
BBX 34 34 0 -2
BITMAP
0000000000
01C00E0000
01800C0000
01800C0000
01800C0000
01800C0000
01800C0000
018C0C0000
3FFE0C0000
01800C0000
03800C0000
03801C0000
07C01C0000
07E01F0000
0DB01B0000
0D981B0000
0D981B0000
19801B0000
1980330000
1180318000
3180318000
618060C000
018060C000
0180C06000
0180C06000
0181803000
0181803800
0183001C00
0183001F00
0186000F80
018C000600
0198000000
0180000000
0000000000
ENDCHAR

STARTCHAR cns3_2378
ENCODING 9080
SWIDTH 960 0
DWIDTH 34 0
BBX 34 34 0 -2
BITMAP
0000000000
0000000000
00000C0000
07FFFE0000
000C0C0000
000C0C0000
000C0C0000
00080C0C00
00181FFC00
0018180C00
0010181800
0030301800
0030001800
0060001800
00C0003000
0180EFF000
0300C3E000
0C00C0C000
1000C00000
0000C00C00
1FFFFFFE00
0003E00000
0007F00000
000ED80000
001CCE0000
0078C30000
00E0C1C000
0380C07800
0700C01F80
3C00C00600
6000C00000
0000C00000
0000C00000
0000000000
ENDCHAR

STARTCHAR cns3_2379
ENCODING 9081
SWIDTH 960 0
DWIDTH 34 0
BBX 34 34 0 -2
BITMAP
0000000000
0000000000
00001C0000
0008180000
001C180000
1FFC100000
0018100000
0018300600
00183FFF00
0018200E00
0018600C00
0010671800
1030471000
0830C62000
0830860000
0421060000
0621070000
0360050000
01E0050000
00C0050000
00C0058000
00E00C8000
00A00CC000
01B008C000
0138186000
0318306000
061C303000
040C603800
0C0CC01C00
1804800F00
1001000700
2002000000
0000000000
0000000000
ENDCHAR

STARTCHAR cns3_237A
ENCODING 9082
SWIDTH 960 0
DWIDTH 34 0
BBX 34 34 0 -2
BITMAP
0000000000
0070000000
00E0000000
00C0000000
0180000300
01FFFFFF80
0300000000
0300000000
0600000000
0680006000
0CFFFFF000
18C0406000
30C0406000
60C0406000
00C0C06000
00C0C06000
00C0C04000
00C0C04600
3FFFFFFF00
0180804000
010080C000
010180C000
030180C000
030180C000
030180C000
030100C000
030100C600
03FFFFFF00
060000C000
060001C000
00007F8000
00001F0000
0000060000
0000000000
ENDCHAR

STARTCHAR cns3_237B
ENCODING 9083
SWIDTH 960 0
DWIDTH 34 0
BBX 34 34 0 -2
BITMAP
0000000000
001C000000
0018000000
0038000000
0070003000
01E1FFE000
03800C6000
1F800C6000
39800C6000
01800C6000
01870C6000
018E18C000
01BC18C600
01F018FF00
0F80188600
3980188600
0183980600
0183300600
0187300600
01BC600C00
07F0600C00
3F80C00C00
0180801800
0181801800
0183001800
0182003100
01860FF100
018C01E100
019800C100
0180000380
01C0000780
00FFFFFF80
00FFFFFF00
0000000000
ENDCHAR

STARTCHAR cns3_237C
ENCODING 9084
SWIDTH 960 0
DWIDTH 34 0
BBX 34 34 0 -2
BITMAP
0000000000
0000000E00
0600003C00
030000F800
038007C000
0180FE0000
0187860000
0000060000
0030060000
0020060000
3060060000
1840060000
1C40060000
0E40060000
06C0060600
008FFFFF00
0080060000
0180060000
0100060000
0300060000
0300060000
0200060000
0E00060000
1E00060000
1C00060000
0C00060000
0400060000
0600060000
0600060000
0600060000
0600060000
0600060000
0000060000
0000000000
ENDCHAR

STARTCHAR cns3_237D
ENCODING 9085
SWIDTH 960 0
DWIDTH 34 0
BBX 34 34 0 -2
BITMAP
0000000000
0000000000
0C00003000
070000F800
038001C000
0180078000
01803C0000
0001F80000
0007180000
0030180000
0020180000
3060180000
1840180000
1C40180000
0CC0180C00
0C80183E00
00801FE000
018FF80000
018F180000
0180180000
0300180000
0300180000
0600180000
1E00180200
1C00180200
0C00180200
0C00180200
0600180200
0600180300
06001C0700
06001FFF00
06000FFE00
0000000000
0000000000
ENDCHAR

STARTCHAR cns3_237E
ENCODING 9086
SWIDTH 960 0
DWIDTH 34 0
BBX 34 34 0 -2
BITMAP
0000000000
0000380000
0C00700000
0700700000
0380600000
0180600000
0080C00000
0000C00000
0030C06000
0021FFF000
0021806000
3061806000
1C43806000
0CC3806000
0CC6806000
04C6C0C000
018CC0C000
019860C000
0330618000
0300318000
0300318000
06001B0000
06001B0000
1E000E0000
1C000E0000
0C001F0000
0C00318000
040060C000
0601C07000
0603003E00
060E000F80
0638000400
0000000000
0000000000
ENDCHAR

STARTCHAR cns3_2421
ENCODING 9249
SWIDTH 960 0
DWIDTH 34 0
BBX 34 34 0 -2
BITMAP
0000000000
0000700000
0000600000
0000600000
000C701C00
0FFE783800
000C687000
001C6CC000
0018670000
0030630000
006061C000
00C0606000
0380603E00
0E00E00F80
380FE00000
6003C00000
0001800000
0000E00000
0000C00000
0000C00000
0000C00000
0000C00000
0001E00000
0001E00000
0003300000
0006180000
000C0C0000
0038070000
007003C000
01C000F800
0700003F80
3C00000E00
0000000000
0000000000
ENDCHAR

STARTCHAR cns3_2422
ENCODING 9250
SWIDTH 960 0
DWIDTH 34 0
BBX 34 34 0 -2
BITMAP
0000000000
00380E0000
00300C0000
00700C0000
00600C0000
00C00C0000
00C00C0000
01800C0000
01800C0000
03000C0C00
07C0CC0E00
079FEE1C00
0D80CF3000
1980CF6000
3180CDC000
6180CD8000
0180CD8000
01818C8000
01818CC000
01818C4000
01830C6000
01830C6000
01830C3000
01860C3800
01860C1800
018C0C0C00
018C0C0E00
01980C0780
01800C0200
01801C0000
0183FC0000
0180780000
0180300000
0000000000
ENDCHAR

STARTCHAR cns3_2423
ENCODING 9251
SWIDTH 960 0
DWIDTH 34 0
BBX 34 34 0 -2
BITMAP
0000000000
0000000000
0C00000000
0700000E00
030FFFFE00
0380180000
0180180000
0180180000
0020100000
0020300000
6060300700
305FFFFF00
18C0600000
1C80600000
0C80E00000
0D80C00000
0180C00000
0301C00C00
0301FFFE00
0603800C00
0603000C00
0606000C00
0C00000C00
3C00000C00
3800001800
1800001800
1800001800
0C00001800
0C00003000
0C00007000
0C000FF000
0C0001E000
000000C000
0000000000
ENDCHAR

STARTCHAR cns3_2424
ENCODING 9252
SWIDTH 960 0
DWIDTH 34 0
BBX 34 34 0 -2
BITMAP
0000000000
0000000000
0C00001800
060FFFFC00
0300001800
0380001800
0180001800
0180001800
0020001800
0020001800
6060001800
3040001800
1840001800
1CC3001800
0C83FFF800
0D83001800
0183000000
0303000000
0303000000
0303000000
0603000000
0603000000
0E03000000
1C03000000
1C03000000
0C03000200
0C03000200
0C03000200
0603000300
0603800700
0603FFFF00
0601FFFE00
0000000000
0000000000
ENDCHAR

STARTCHAR cns3_2425
ENCODING 9253
SWIDTH 960 0
DWIDTH 34 0
BBX 34 34 0 -2
BITMAP
0000000000
0000000000
0600001800
0303FFFC00
0380003800
0180003000
0180006000
000000C000
0020018000
00200F0000
30600E0000
18600C0000
1C400C0000
0CC00C0000
0CC00C0600
0D9FFFFF00
01800C0000
01800C0000
03000C0000
03000C0000
03000C0000
03000C0000
06000C0000
1E000C0000
1C000C0000
0C000C0000
0C000C0000
06000C0000
06000C0000
06001C0000
0603FC0000
0600780000
0000300000
0000000000
ENDCHAR

STARTCHAR cns3_2426
ENCODING 9254
SWIDTH 960 0
DWIDTH 34 0
BBX 34 34 0 -2
BITMAP
0000000000
01C0000000
0180000000
0180000300
0181FFFF80
018000C000
018000C000
018000C000
019C00C000
019800C000
09B800C000
09B000C000
19E000C000
198000C000
118000C000
318000C000
310000C000
310000C000
010000C000
010000C000
010000C000
030000C000
03C000C000
036000C000
063800C000
061C00C000
0C0C00C000
0C0C00C000
080000C000
180001C000
30003FC000
6000078000
0000030000
0000000000
ENDCHAR

STARTCHAR cns3_2427
ENCODING 9255
SWIDTH 960 0
DWIDTH 34 0
BBX 34 34 0 -2
BITMAP
0000000000
00E0000700
00C0000600
00C0000600
00C00E0600
00C00C0600
00C00C0600
00C38C0600
00C30C0600
00C70C0600
04CE0C0600
04D80C0600
0CF00C0600
0CC00C0600
0CC00C0600
18C00C0600
18C00C0600
18C00C0600
00C00C0600
00C00C0600
00C00C0600
01C00C0600
01E00C0600
01B80C0600
031C0C0600
030E000600
0606000600
0600000600
0C00000600
1800000E00
300001FE00
6000003C00
0000001800
0000000000
ENDCHAR

STARTCHAR cns3_2428
ENCODING 9256
SWIDTH 960 0
DWIDTH 34 0
BBX 34 34 0 -2
BITMAP
0000000000
0000E00000
0000C00000
0000C00000
0000C00000
0000C07000
0080C0E000
0081E38000
0181B00000
0303180000
07030C0000
060E070000
001C038000
007000E000
00C0007C00
078E0E1F00
3C0C0C0400
000C0C0000
000C0C0000
000C0C0000
000C0C0000
000C0C0000
001C0C0000
00180C0000
00180C0000
00380C0100
00300C0100
00600C0100
00C00C0180
01800E0380
07000FFF80
1C0007FF00
7000000000
0000000000
ENDCHAR

STARTCHAR cns3_2429
ENCODING 9257
SWIDTH 960 0
DWIDTH 34 0
BBX 34 34 0 -2
BITMAP
0000000000
0000000000
0080000600
00FFFFFF00
00C0000000
00C0000000
00C0380000
00C0300000
00C0300000
00C0300000
00C0300000
00C0300000
00C0300000
0184380000
0184381C00
0184383800
018C7C7000
01986CE000
01986F8000
01B8670000
0330660000
0300C30000
0300C30000
0601C18000
0601818000
060300C000
0C03006000
1806007000
180C003800
3038001F00
6060000F80
03C0000000
0000000000
0000000000
ENDCHAR

STARTCHAR cns3_242A
ENCODING 9258
SWIDTH 960 0
DWIDTH 34 0
BBX 34 34 0 -2
BITMAP
0000000000
0000000000
0400001800
07FFFFFC00
0600001800
0600001800
0601C01800
0601801800
0601801800
0601801800
0601801800
0619839800
0611831800
0631871800
0631861800
0631CC1800
0661DC1800
0661F01800
0C63401800
0C03601800
0C03601800
0C06301800
0C06301800
180C180C00
180C180D00
18180C0D00
1830070D00
1060038F00
31C001C780
2700000780
6000000380
4000000180
0000000000
0000000000
ENDCHAR

STARTCHAR cns3_242B
ENCODING 9259
SWIDTH 960 0
DWIDTH 34 0
BBX 34 34 0 -2
BITMAP
0000000000
0038000000
0030000000
0070000000
0060000000
0060000000
00C0000600
00FFFFFF00
0180000600
0187000600
0306000600
0606000600
0406000600
0C06000600
1806000C00
3067000C00
6047070C00
00C70E0C00
00C71C0C00
018DF01800
018C803800
000CC7F800
000CC0F000
0018606000
0018600000
0030300000
0030180000
00601C0000
00C00E0000
0180070000
030003C000
0E00008000
1800000000
0000000000
ENDCHAR

STARTCHAR cns3_242C
ENCODING 9260
SWIDTH 960 0
DWIDTH 34 0
BBX 34 34 0 -2
BITMAP
0000000000
00000E0000
000E0C0000
000C0C0000
061C0C0000
03300C0000
01F00C0000
00E00C0000
01C00C0000
03600C3000
0661FFF800
0C200C3000
00300C3000
00300C3000
00700C3000
00798C3000
00D86C3000
00D83C3000
01981C3000
03981E3000
03181F3000
06181BB000
1C1831B000
301830B100
0018301900
0018601900
0018601900
0030C00D00
0031800F80
0073000F80
07F6000780
00FC000300
0060000000
0000000000
ENDCHAR

STARTCHAR cns3_242D
ENCODING 9261
SWIDTH 960 0
DWIDTH 34 0
BBX 34 34 0 -2
BITMAP
0000000000
0000007000
000E006000
040C006000
061C006000
0338006000
01B0006000
01E0006000
01C0006300
03C3FFFF80
066000E000
086001E000
083001E000
003003E000
0070036000
0070066000
00D80E6000
01D80C6000
0398186000
0318306000
0618306000
0C18606000
1818C06000
1019806000
001B006000
001E006000
0030006000
0030006000
0030006000
007000E000
0FE01FE000
01E003C000
00C0018000
0000000000
ENDCHAR

STARTCHAR cns3_242E
ENCODING 9262
SWIDTH 960 0
DWIDTH 34 0
BBX 34 34 0 -2
BITMAP
0000000000
0000000000
0000000000
0000038000
000C030000
3FFE030000
0180060000
0180060000
0180060000
0180060000
0180060000
0180060000
01800C0000
01800C0000
01980C0000
1FFC0C0000
0180180000
0180180000
0180180000
0180300000
0180302000
0180603000
0180601800
01B8601800
01E0C00C00
0780C01C00
1E0183F600
78019F0600
7007F00700
000F800300
000C000300
0000000000
0000000000
0000000000
ENDCHAR

STARTCHAR cns3_242F
ENCODING 9263
SWIDTH 960 0
DWIDTH 34 0
BBX 34 34 0 -2
BITMAP
0000000000
0000070000
0000060000
0000060000
000C060000
3FFE060000
0180060000
0180060000
0180060000
0180060600
0180FFFF00
0180060600
0180060600
0180060600
0198060600
1FFC060600
0180060600
01800C0600
01800C0600
01800C0600
0180180600
0180180600
0180180600
0198300600
01F0300C00
03C0600C00
1F00C00C00
7C00C00C00
7001800C00
0003001800
000607F800
000C00F000
0038006000
0000000000
ENDCHAR

STARTCHAR cns3_2430
ENCODING 9264
SWIDTH 960 0
DWIDTH 34 0
BBX 34 34 0 -2
BITMAP
0000000000
00001C0000
0000180000
0000180000
000C180000
3FFE180000
0180180000
0180180000
0180180000
0180180000
0180180000
0180180000
01801C0000
01801F0000
019819C000
1FFC187000
0180183800
0180181C00
0180180E00
0180180E00
0180180600
0180180000
0186180000
019C180000
01F0180000
03C0180000
1F00180000
7C00180000
7000180000
0000180000
0000180000
0000180000
0000180000
0000000000
ENDCHAR

STARTCHAR cns3_2431
ENCODING 9265
SWIDTH 960 0
DWIDTH 34 0
BBX 34 34 0 -2
BITMAP
0000000000
0000000700
0000000600
0000000600
0001870600
3FFFC60600
0060060600
0060060600
0060060600
0060060600
0060060600
0060060600
0060060600
0060060600
0063060600
1FFF860600
0060060600
0060060600
0060060600
0060060600
0060060600
0060060600
0060C60600
0063860600
007E060600
01F8000600
0FC0000600
7E00000600
7800000600
6000000E00
000001FE00
0000003C00
0000001800
0000000000
ENDCHAR

STARTCHAR cns3_2432
ENCODING 9266
SWIDTH 960 0
DWIDTH 34 0
BBX 34 34 0 -2
BITMAP
0000000000
0000000000
0000000000
0000000600
1FFFFFFF00
0003000000
0006000000
0006C00000
0006400000
0006600000
000C300000
000C180000
00181C0000
00300C0000
00300C1800
007FFFFC00
00E0001800
00E0001800
01E0001800
01E0001800
0360001800
0660001800
0C60001800
1860001800
3060001800
0060001800
0060001800
0060001800
007FFFF800
0060001800
0000000000
0000000000
0000000000
0000000000
ENDCHAR

STARTCHAR cns3_2433
ENCODING 9267
SWIDTH 960 0
DWIDTH 34 0
BBX 34 34 0 -2
BITMAP
0000000000
00E0380000
00C0300000
00C0300000
00C0300000
00C0300000
00C0300000
00C3300000
1FFFB00000
0007300000
000E300000
000C300000
001C300000
0038300000
0070300000
00F0300000
00F8300000
01EC300000
0367300000
0663B00000
0C61B00000
3860300000
6060300000
0060300000
0060300200
0060300200
0060300200
0060300200
0060300300
0060380700
00603FFF00
00601FFE00
0060000000
0000000000
ENDCHAR

STARTCHAR cns3_2434
ENCODING 9268
SWIDTH 960 0
DWIDTH 34 0
BBX 34 34 0 -2
BITMAP
0000000000
0000E00000
0000C00000
0000C00000
0000C00000
0000C01800
0FFFFFFC00
0000000000
00C001C000
0060018000
0060030000
0030030000
0038060000
0018040000
00180C0300
7FFFFFFF80
0000C00000
0000C00000
0000C00000
0000C00000
0000C00000
0000C00000
0000C00000
0000C00000
0000C00000
0000C00000
0000C00000
0000C00000
0000C00000
0000C00000
0000C00000
0000C00000
0000C00000
0000000000
ENDCHAR

STARTCHAR cns3_2435
ENCODING 9269
SWIDTH 960 0
DWIDTH 34 0
BBX 34 34 0 -2
BITMAP
0000000000
0000380000
0830300000
0FF8300000
0C30300000
0C30300000
0C30300000
0C30300000
0C30300000
0C30300000
0C3030C000
0FF7FFE000
0C3030C000
0C3030C000
0C3030C000
0C3030C000
0C3060C000
0C3060C000
0C3060C000
0FF060C000
0C3060C000
0C3060C000
0C3060C000
1830C0C100
1830C0C100
1830C0C100
183180C180
183180C180
103300E380
307200FF80
2FF6007F00
61EC000000
00C0000000
0000000000
ENDCHAR

STARTCHAR cns3_2436
ENCODING 9270
SWIDTH 960 0
DWIDTH 34 0
BBX 34 34 0 -2
BITMAP
0000000000
0000000000
0000000000
0400000C00
07FFFFFE00
0C00000C00
1800001800
3A0001B000
33FFFFC000
0300018000
0300018000
0370018000
0338018000
031E018000
030F818000
0307C18000
0301E18000
0300018000
0300018000
0300718000
0301E18000
0307C18000
030F818000
031C018000
0330018000
0360018000
0300018000
0300018000
0300018000
0300038000
0F007F8000
1E000F0000
3000060000
0000000000
ENDCHAR

STARTCHAR cns3_2437
ENCODING 9271
SWIDTH 960 0
DWIDTH 34 0
BBX 34 34 0 -2
BITMAP
0000000000
001C070000
0018060000
0018060000
0018060000
0018060300
7FFFFFFF80
0018060000
0018060000
0018060000
0018060000
0000001800
0FFFFFFC00
0018000000
0018000000
0030000000
0030000000
0030018000
003FFFC000
0060018000
0060018000
00C0018000
0000030000
0000030000
0000030000
0000060000
0000060000
00000C0000
00000C0000
0000380000
0007F80000
0000F00000
0000600000
0000000000
ENDCHAR

STARTCHAR cns3_2438
ENCODING 9272
SWIDTH 960 0
DWIDTH 34 0
BBX 34 34 0 -2
BITMAP
0000000000
001C070000
0018060000
0018060000
0018060000
0018060300
7FFFFFFF80
0018060000
0018060000
0018060000
0019C60000
0001800000
0001800000
0001800600
0FFFFFFF00
0001800600
0001800600
0001800600
0003000600
0003000600
0006000C00
0006000C00
000C000C00
000C000C00
0018000C00
0018000C00
0030000C00
0060000C00
00C0000C00
0180001800
070007F800
1C0000F000
0000006000
0000000000
ENDCHAR

STARTCHAR cns3_2439
ENCODING 9273
SWIDTH 960 0
DWIDTH 34 0
BBX 34 34 0 -2
BITMAP
0000000000
001C070000
0018060000
0018060000
0018060000
0018060300
7FFFFFFF80
0018060000
0018060000
0018060000
0000000000
00000C0000
0000FE0000
0000040000
001C040000
0018040000
0018040000
0030040000
0030040000
0030060000
0030020000
0060020000
0060030000
00C0018000
00C0018000
018000C000
030000E000
0300007000
0600003800
0C00001E00
1800000F80
7000000000
0000000000
0000000000
ENDCHAR

STARTCHAR cns3_243A
ENCODING 9274
SWIDTH 960 0
DWIDTH 34 0
BBX 34 34 0 -2
BITMAP
0000000000
0000700000
0000600000
0000600000
0000600000
0000600000
0000600000
0000601800
03FFFFFC00
0000600000
0000600000
0000600000
0000600000
0000600600
1FFFFFFF00
0000000000
0000000000
000001C000
0040018000
0060038000
0030030000
0018060000
001C0C0000
000E1C0000
000E300000
0000600000
0001C00000
0003800000
000E000000
007FF80000
0FC0FFFF80
780007FE00
0000000000
0000000000
ENDCHAR

STARTCHAR cns3_243B
ENCODING 9275
SWIDTH 960 0
DWIDTH 34 0
BBX 34 34 0 -2
BITMAP
0000000000
00000E0000
00000C0000
00000C0000
00000C0000
0C000C0000
06000C0000
07000C0600
0387FFFF00
01800C0600
00000C0600
00000C0600
01800C0600
3FC00C0600
01C0180600
01C0180600
0180180600
0300300600
0300300600
0600600C00
0600C00C00
0C00C00C00
1FC1801800
18C3003800
01860FF000
018C01E000
039800C000
06C0000000
1C30000000
381F800000
3003FFFF00
00001FFE00
0000000000
0000000000
ENDCHAR

STARTCHAR cns3_243C
ENCODING 9276
SWIDTH 960 0
DWIDTH 34 0
BBX 34 34 0 -2
BITMAP
0000000000
0070000000
0060040300
006007FF80
0060060300
0060060600
0060060600
3860E60C00
3060C60C00
3060C61800
3060C61800
3060C61800
3060C63000
3060C63000
3060C63000
3060C61800
3060C60C00
3060C60C00
3060C60600
3060C60600
3060C60300
3060C60300
3060C60300
3060C60600
3FFFC60600
3000C60E00
000007FC00
0000063C00
0000061800
0000060000
0000060000
0000060000
0000060000
0000000000
ENDCHAR

STARTCHAR cns3_243D
ENCODING 9277
SWIDTH 960 0
DWIDTH 34 0
BBX 34 34 0 -2
BITMAP
0000000000
0038000000
0030080600
00600FFF00
00600C0600
00600C0C00
00600C0C00
00C00C1800
00C18C1800
1FFFCC1800
00818C3000
01818C3000
01818C6000
01030C6000
03030C7000
03030C3000
06060C1800
06060C1C00
06060C0C00
0C0C0C0600
0F0C0C0600
198C0C0600
10D80C0600
00700C0600
00380C0600
006C0C0E00
00CE0FFC00
01860C7800
03000C3000
06000C0000
1C000C0000
30000C0000
00000C0000
0000000000
ENDCHAR

STARTCHAR cns3_243E
ENCODING 9278
SWIDTH 960 0
DWIDTH 34 0
BBX 34 34 0 -2
BITMAP
0000000000
2030000000
3FF8000000
3030000C00
3030FFFE00
3060000C00
3060001800
3060003000
30C0006000
30C000C000
30C0038000
3180030000
3180030000
30C0030000
30C0030300
3067FFFF80
3060030000
3060030000
3030030000
3030030000
3030030000
3070030000
3FF0030000
31E0030000
30C0030000
3000030000
3000030000
3000030000
3000070000
3000FF0000
30001E0000
30000C0000
0000000000
0000000000
ENDCHAR

STARTCHAR cns3_243F
ENCODING 9279
SWIDTH 960 0
DWIDTH 34 0
BBX 34 34 0 -2
BITMAP
0000000000
0000000000
0000000000
0000000300
7FFFFFFF80
000C0C0000
000C0C0000
000C0C0000
000C0C0000
040C0C1800
07FFFFFC00
060C0C1800
060C0C1800
060C0C1800
0618181800
0618181800
061C1C1800
06361E1800
0633B31800
0621B19800
0660E1D800
0640E0D800
064040D800
06C0C01800
0600001800
0600001800
0600001800
0600001800
0600001800
0600003800
060007F800
060000F000
0600006000
0000000000
ENDCHAR

STARTCHAR cns3_2440
ENCODING 9280
SWIDTH 960 0
DWIDTH 34 0
BBX 34 34 0 -2
BITMAP
0000000000
0001CE0000
00038C0000
001F0C0000
00FC0C0000
0FE00C0000
00600C0000
00600C0000
00600C0000
00600C0000
00600C0000
00618C0000
7FFFCC0000
00600C0000
00600C0000
00600C0000
00600C0000
00600C0000
00600C0000
08630C0000
0FFF8C0000
0C030C0000
0C030C0000
0C030C0000
0C030C0200
0C030C0200
0C030C0200
0C030C0200
0C030C0300
0FFF0C0700
0C030FFF00
000007FE00
0000000000
0000000000
ENDCHAR

STARTCHAR cns3_2441
ENCODING 9281
SWIDTH 960 0
DWIDTH 34 0
BBX 34 34 0 -2
BITMAP
0000000000
0000000000
0000000000
0002000C00
0003FFFE00
0003000C00
0003000C00
0063000C00
1FF3000C00
0003000C00
0003000C00
0003000C00
0003000C00
0003000C00
0003FFFC00
0003318C00
0030318000
3FF8318000
0000318000
0000318000
0000318000
0000618000
0000618000
0000618100
0000618100
0000C18100
0000C18100
0001818180
000301C380
000601FF80
001C007F00
0070000000
0000000000
0000000000
ENDCHAR

STARTCHAR cns3_2442
ENCODING 9282
SWIDTH 960 0
DWIDTH 34 0
BBX 34 34 0 -2
BITMAP
0000000000
0000000000
0000000000
0000000600
1FFFFFFF00
000C0C0000
000C0C0000
000C0C0000
000C0C0000
000C0C0000
040C0C0C00
07FFFFFE00
060C0C0C00
060C0C0C00
060C0C0C00
060C0C0C00
060C0C0C00
060C0C0C00
060C0C0C00
060C0C0C00
060C0C0C00
07FFFFFC00
060C0C0C00
000C0C0000
000C0C0000
000C0C0000
000C0C0000
000C0C0000
000C0C0000
000C0C0300
7FFFFFFF80
0000000000
0000000000
0000000000
ENDCHAR

STARTCHAR cns3_2443
ENCODING 9283
SWIDTH 960 0
DWIDTH 34 0
BBX 34 34 0 -2
BITMAP
0000000000
00381C0000
0030180000
0070180000
0060180000
00C0180000
00C0180000
0180183000
0187FFF800
0300180000
03C0180000
0780180000
0D80180000
0980180000
1980180600
318FFFFF00
61807C0000
01807E0000
01805A0000
0180DB0000
0181998000
0181998000
018318C000
018218E000
0186187000
018C183800
0198181C00
01B0180F80
01E0180600
0180180000
0180180000
0180180000
0180180000
0000000000
ENDCHAR

STARTCHAR cns3_2444
ENCODING 9284
SWIDTH 960 0
DWIDTH 34 0
BBX 34 34 0 -2
BITMAP
0000000000
0070070000
0060060000
00E0060000
00C0060000
01C0060000
0182060600
0383FFFF00
0303060700
0703060C00
0783061800
0F03061000
0F03060000
1B03060000
3303060000
6303061800
0307FFFC00
0306C01800
0306601800
0306203000
0306203000
0306306000
030C186000
030C08C000
030C0D8000
030C078000
030C038000
031807C000
03100C6000
0330183C00
0360701F80
03C3C00400
030E000000
0000000000
ENDCHAR

STARTCHAR cns3_2445
ENCODING 9285
SWIDTH 960 0
DWIDTH 34 0
BBX 34 34 0 -2
BITMAP
0000000000
0038000000
0030000000
0071003000
0061FFF800
00C1803000
00C1803000
0181803000
0181803000
0301803000
03C1803000
0781803000
0581803000
0D81FFF000
1981803000
3181803000
6181803000
0181803000
0181803000
0181803000
0181803000
0181FFF000
0181803000
0181803000
0181803000
0181803000
0181803000
0181803000
0181803000
0181803600
01FFFFFF00
0180000000
0180000000
0000000000
ENDCHAR

STARTCHAR cns3_2446
ENCODING 9286
SWIDTH 960 0
DWIDTH 34 0
BBX 34 34 0 -2
BITMAP
0000000000
0038070000
0070060000
0070060000
0060060000
00C0060000
00C0060000
0180060000
0180060000
0308060300
03CFFFFF80
07CC060300
058C060300
0D8C060300
198C060300
318C060300
618C060300
018C060300
018C060300
018C060300
018FFFFF00
018C060300
018C060300
018C060300
018C060300
018C060300
018C060300
018C060300
018C060300
018C060300
018FFFFF00
018C000300
0180000000
0000000000
ENDCHAR

STARTCHAR cns3_2447
ENCODING 9287
SWIDTH 960 0
DWIDTH 34 0
BBX 34 34 0 -2
BITMAP
0000000000
003800E000
0070E0C000
0070C0C000
0060C0C000
00C180C000
00C180C000
018180C000
018300C000
030300C600
03C207FF00
078600C600
059438C600
099830C600
198C60C600
118460C600
218660C600
0186C0C600
0180C18600
0181818600
0181818600
0183218C00
0183118C00
01861B0C00
018C1B0C00
018DEE0C00
01BF0C0C00
01B00C0C00
0180180C00
0180181C00
018037F800
018060F000
0180C06000
0000000000
ENDCHAR

STARTCHAR cns3_2448
ENCODING 9288
SWIDTH 960 0
DWIDTH 34 0
BBX 34 34 0 -2
BITMAP
0000000000
0038000000
0030000000
0074000C00
0067FFFE00
00C6000C00
00C6000C00
0186000C00
0186000C00
0306000C00
03C6000C00
0787FFFC00
0786000C00
0D86000000
1986380000
3186300000
6186300000
0186300000
0186300000
0186300000
018C300000
018C301800
018C3FFC00
018C300200
0198300200
0198300200
0198300200
0198300300
0190380700
01B03FFF00
01A01FFE00
01E0000000
0180000000
0000000000
ENDCHAR

STARTCHAR cns3_2449
ENCODING 9289
SWIDTH 960 0
DWIDTH 34 0
BBX 34 34 0 -2
BITMAP
0000000000
0070000000
0060000000
00E0000600
00C7FFFF00
01C0060000
0180060000
0380060000
0300060000
0700060000
0780060000
0F03860000
0F03060000
1B03060000
3303060000
6303060C00
030307FE00
0303060000
0303060000
0303060000
0303060000
0303060000
0303060000
0303060000
0303060000
0303060000
0303060000
0303060000
0303060000
0303060300
033FFFFF80
0300000000
0300000000
0000000000
ENDCHAR

STARTCHAR cns3_244A
ENCODING 9290
SWIDTH 960 0
DWIDTH 34 0
BBX 34 34 0 -2
BITMAP
0000000000
0070000000
0060000000
00E0000300
00C7FFFF80
0180060000
0180060000
0300060000
0300060000
0600060000
0784060600
0F07FFFF00
0F060C0600
1B060C0600
33060C0600
63060C0600
03061E0600
03061B0600
030611C600
030630E600
0306607600
0306403600
0306C01600
0307800600
0306000600
0306000600
0306000600
0306000600
0306000600
0306000E00
030600FE00
0306003C00
0306001800
0000000000
ENDCHAR

STARTCHAR cns3_244B
ENCODING 9291
SWIDTH 960 0
DWIDTH 34 0
BBX 34 34 0 -2
BITMAP
0000000000
0070E03800
0060C03000
00E0C03000
00C0C03000
01C0C03000
0180C03000
0380C03000
0300C03300
071FFFFF80
0780C03000
0F00C03000
0F00C03000
1B00C03000
3300C03000
6300C03000
0300C03000
0300C03000
0300C03000
0300FFF000
0300C03000
0300C03000
0300C03000
0300C03000
0300C03000
0300C03000
0300C03000
0300C03000
0300C03000
0300FFF000
0300C03000
0300000000
0300000000
0000000000
ENDCHAR

STARTCHAR cns3_244C
ENCODING 9292
SWIDTH 960 0
DWIDTH 34 0
BBX 34 34 0 -2
BITMAP
0000000000
0038000000
0030000000
0070000600
006FFFFF00
00C0180600
00C0180600
0180180600
0180180600
0300300C00
07C0300C00
0D80600C00
1980600C00
3180C01C00
618083F800
018180F000
0183006000
0186000000
019C000000
0182000C00
0183FFFE00
0183000C00
0183000C00
0183000C00
0183000C00
0183000C00
0183000C00
0183000C00
0183000C00
0183FFFC00
0183000C00
0180000000
0180000000
0000000000
ENDCHAR

STARTCHAR cns3_244D
ENCODING 9293
SWIDTH 960 0
DWIDTH 34 0
BBX 34 34 0 -2
BITMAP
0000000000
0038000000
0032001800
0073FFFC00
0063001800
00C3001800
00C3001800
0183181800
01830C1800
03030C1800
03C3061800
0786063000
0D86063000
1986003000
3186003600
619FFFFF00
0186003000
0186003000
0186303000
0186183000
018C183000
018C0C3000
018C0C3000
018C0C3000
018C006000
0198006C00
019FFFFE00
0198006000
0198006000
018000C000
01803FC000
0180078000
0180030000
0000000000
ENDCHAR

STARTCHAR cns3_244E
ENCODING 9294
SWIDTH 960 0
DWIDTH 34 0
BBX 34 34 0 -2
BITMAP
0000000000
0070000000
0062000C00
0063FFFE00
0063000C00
00C3000C00
00C3000C00
0183000C00
0183000C00
0303000C00
03C3000C00
0783000C00
0D83FFFC00
1983000C00
3183000000
6183000000
0183000000
0183000000
0183000000
0183000600
0183FFFF00
0183000600
0183000600
0183000600
0183000600
0183000600
0183000600
0183000600
0183000600
0183FFFE00
0183000600
0180000000
0180000000
0000000000
ENDCHAR

STARTCHAR cns3_244F
ENCODING 9295
SWIDTH 960 0
DWIDTH 34 0
BBX 34 34 0 -2
BITMAP
0000000000
0038000000
0030000000
0074000300
0067FFFF80
00C6198300
00C6198300
0186198300
0186198300
0306198300
03C6198300
0786198300
0D86198300
1986198300
3186198300
6186198300
0186318B00
0186318B00
0186318B00
0186618F00
018661DF00
0186C1FF00
018780FB00
0186000300
0186000300
0186000300
0186000300
0186000300
0186000300
0186000300
0187FFFF00
0186000300
0180000000
0000000000
ENDCHAR

STARTCHAR cns3_2450
ENCODING 9296
SWIDTH 960 0
DWIDTH 34 0
BBX 34 34 0 -2
BITMAP
0000000000
00380E0000
00300C0000
00701C0000
00601E0000
00C03B0000
00C0710000
0180618000
0180C0C000
0301806000
03C3007000
0786003C00
0D8C071E00
1998060780
31B0060200
6180060000
0180060000
0181860000
0181C64000
0181866000
0183063000
0183061800
0186060C00
0186060E00
018C060600
0188060700
0198060300
01B0060300
01E0060100
01800E0000
0181FE0000
01803C0000
0180180000
0000000000
ENDCHAR

STARTCHAR cns3_2451
ENCODING 9297
SWIDTH 960 0
DWIDTH 34 0
BBX 34 34 0 -2
BITMAP
0000000000
0300038000
01C0070000
00E00F0000
00700C0000
0070180000
0030180000
0030300000
0200030000
03FFFF8000
0300030000
0300030000
0300030000
0300030000
0300030000
0300030000
0300030000
03FFFF0000
0318630000
0018600000
0018600000
0018600000
0018600000
0030600000
0030600100
0030600100
0060600100
0060600100
00C0600180
0180700380
07007FFF80
7C003FFF00
0000000000
0000000000
ENDCHAR

STARTCHAR cns3_2452
ENCODING 9298
SWIDTH 960 0
DWIDTH 34 0
BBX 34 34 0 -2
BITMAP
0000000000
0000000000
0000000000
0000006000
07FFFFF000
0003006000
0003006000
000300C000
000601C000
000C7F8000
00380F0000
00F0060000
01C0003000
0FFFFFF800
3D80C03000
0180C03000
0180C03000
0180C03000
0180C03000
0180C03000
01FFFFF000
0181B03000
0001B00000
0001B00000
0003300000
0003300200
0002300200
0006300200
000C300300
0018380700
00703FFF00
03C01FFE00
0E00000000
0000000000
ENDCHAR

STARTCHAR cns3_2453
ENCODING 9299
SWIDTH 960 0
DWIDTH 34 0
BBX 34 34 0 -2
BITMAP
0000000000
0380000000
0308003000
030FFFF800
030C003000
030C003000
030C003000
030C003000
030FFFF000
030C003000
030C003000
030C003000
030C003000
030C003000
030FFFF000
030C003000
0300000000
0300000000
001C0E0000
00180C0000
00180C0000
00180C0000
00180C0000
00300C0000
00300C0000
00300C0000
00600C0200
00600C0200
00C00C0200
03800C0300
07000E0700
1C000FFF00
780007FE00
0000000000
ENDCHAR

STARTCHAR cns3_2454
ENCODING 9300
SWIDTH 960 0
DWIDTH 34 0
BBX 34 34 0 -2
BITMAP
0000000000
0000007000
000000E000
000007E000
0000FF8000
007FF00000
0000C00000
0000C00000
0000C00000
0200C01800
03FFFFFC00
0300C01800
0300C01800
0300C01800
0300C01800
0300C01800
0300C01800
0300C01800
03FFFFF800
0306C01800
0006C00000
0006C00000
0006C30000
000CC18000
000CC0C100
0018C0E100
0018C06100
0030C06100
0060C00180
01C0E00380
0F00FFFF80
7C007FFF00
0000000000
0000000000
ENDCHAR

STARTCHAR cns3_2455
ENCODING 9301
SWIDTH 960 0
DWIDTH 34 0
BBX 34 34 0 -2
BITMAP
0000000000
0000000000
0000000000
1000000600
1FFFFFFF00
1800C00600
1800C00600
1800C00600
1830C00600
1BF8C18600
1870DFC600
1860C38600
1860C30600
1860C30600
1870C38600
1850C28600
1850C28600
18D0C6C600
18D8C6C600
18D8C6C600
198CCC6600
198CCC6600
1906C83600
1B06D83600
1800C00600
1800C00600
1800C00600
1800C00600
1800C00600
1800C00E00
1800C1FE00
1800C03C00
1800001800
0000000000
ENDCHAR

STARTCHAR cns3_2456
ENCODING 9302
SWIDTH 960 0
DWIDTH 34 0
BBX 34 34 0 -2
BITMAP
0000000000
0000000000
0100006000
01FFFFF000
0180006000
0181C06000
0181806000
0181806000
0181806000
0181806000
0181806000
0183C06000
0183606000
0186386000
01861E6000
019C076000
01B0036000
0180006000
0180006000
0180006000
0000000300
7FFFFFFF80
0000000000
0007000000
0006060000
0006060000
000C030000
000C030000
0018018000
003000E000
00E0007800
0380003E00
0000000000
0000000000
ENDCHAR

STARTCHAR cns3_2457
ENCODING 9303
SWIDTH 960 0
DWIDTH 34 0
BBX 34 34 0 -2
BITMAP
0000000000
0000000000
0000000000
0400000600
0FFFFFFF00
0C00000600
1C00000C00
1800000800
0000000000
0040018000
007FFFC000
0060018000
0060018000
0060018000
0060018000
0060018000
007FFF8000
0060018000
0060018000
0060018000
0060018000
0060018000
0060018000
007FFF8000
0060018000
0060018000
0060018000
0060018000
0060018000
0060018000
0060018300
7FFFFFFF80
0000000000
0000000000
ENDCHAR

STARTCHAR cns3_2458
ENCODING 9304
SWIDTH 960 0
DWIDTH 34 0
BBX 34 34 0 -2
BITMAP
0000000000
0000000000
0000000000
1800000300
0C0FFFFF80
0E00180000
0600180000
0600180000
0060300000
0040300000
00C0300000
0080600000
0180600000
0100C00000
0300C00000
0601C00C00
0601FFFE00
0603C00C00
0C03C00C00
0C06C00C00
3C06C00C00
380CC00C00
1838C00C00
0C60C00C00
0C00C00C00
0C00C00C00
0C00C00C00
0C00C00C00
0C00FFFC00
0000C00C00
0000000000
0000000000
0000000000
0000000000
ENDCHAR

STARTCHAR cns3_2459
ENCODING 9305
SWIDTH 960 0
DWIDTH 34 0
BBX 34 34 0 -2
BITMAP
0000000000
0000000000
0000000000
3008001800
1C0FFFFC00
0E0C001800
0E0C001800
060C001800
064C001800
00CC001800
008C001800
008C001800
018C001800
010C001800
030FFFF800
020CC31800
0200C30000
0600C30000
0400C30000
0C00C30000
3800C30000
3801830000
1801830100
1801830100
0C01830100
0C03030100
0C03030180
0C06030180
0C0C038380
001803FF80
007001FF00
01C0000000
0000000000
0000000000
ENDCHAR

STARTCHAR cns3_245A
ENCODING 9306
SWIDTH 960 0
DWIDTH 34 0
BBX 34 34 0 -2
BITMAP
0000000000
0000070000
0000060000
3004060100
1C06060300
0E07060700
0E03860E00
0601860C00
0601C61C00
0040C63000
00C0666000
0080168000
0180060000
0100061800
0301FFFC00
0300060000
0600060000
0600060000
0600060000
1C00060000
1C00060600
0C0FFFFF00
0600060000
0600060000
0600060000
0600060000
0600060000
0600060000
0600060000
0000060000
0000060000
0000060000
0000060000
0000000000
ENDCHAR

STARTCHAR cns3_245B
ENCODING 9307
SWIDTH 960 0
DWIDTH 34 0
BBX 34 34 0 -2
BITMAP
0000000000
0000000000
0400001800
07FFFFFC00
0600001800
0600001800
0600001800
0600031800
067FFF9800
0600001800
0600001800
0600001800
0620031800
063FFF9800
0630031800
0630031800
0630031800
0630031800
0C3FFF1800
0C30031800
0C30031800
0C30031800
0C30031800
183FFF0D00
1830030D00
1800000D00
1800000D00
1800000F00
3000000F80
2000000780
6000000380
0000000300
0000000000
0000000000
ENDCHAR

STARTCHAR cns3_245C
ENCODING 9308
SWIDTH 960 0
DWIDTH 34 0
BBX 34 34 0 -2
BITMAP
0000000000
0038000700
0070000600
0070000600
006001C600
00C0018600
00C0018600
00C6018600
0182018600
0183018600
0303018600
0303018600
0601818600
063FC18600
3FF0C18600
3C00718600
0000318600
0000018600
0801818600
0FFFC18600
0C01818600
0C01818600
0C01818600
0C01818600
0C01818600
0C01800600
0C01800600
0C01800600
0C01800600
0FFF800E00
0C0181FE00
0000003C00
0000001800
0000000000
ENDCHAR

STARTCHAR cns3_245D
ENCODING 9309
SWIDTH 960 0
DWIDTH 34 0
BBX 34 34 0 -2
BITMAP
0000000000
0070000000
0060000000
0060000000
0060000600
00603FFF00
0060030600
0063030600
0FFF830600
0060030600
0060030600
0060030600
0060030600
0060060600
0060060600
0061860600
3FFFC60600
00C0060600
00C0060600
0180060600
0180060600
01800C0600
01860C0C00
03020C0C00
0303180C00
0607180C00
067DB00C00
0FC1E00C00
3E01E01800
3800C03800
00018FF000
000301E000
000600C000
0000000000
ENDCHAR

STARTCHAR cns3_245E
ENCODING 9310
SWIDTH 960 0
DWIDTH 34 0
BBX 34 34 0 -2
BITMAP
0000000000
0070000380
0060000300
006001C300
0060018300
0060018300
0060018300
0060018300
0061818300
1FFFC18300
0060018300
0060018300
0060018300
0060018300
0060018300
0060618300
3FFFF18300
00C0018300
00C0018300
0180018300
0180018300
0180018300
0306018300
0303018300
0601818300
0603800300
067EC00300
1FE0C00300
7E00C00300
7000000700
000000FF00
0000001E00
0000000C00
0000000000
ENDCHAR

STARTCHAR cns3_245F
ENCODING 9311
SWIDTH 960 0
DWIDTH 34 0
BBX 34 34 0 -2
BITMAP
0000000000
0000000700
0000600600
1FFFF00600
0060638600
0060630600
0060630600
0060630600
0060630600
00C0630600
00C0C30600
00C0C30600
0181C30600
01FF830600
030F030600
0E06030600
3800030600
0000030600
0400C30600
07FFE30600
0600C30600
0600C30600
0600C30600
0600C30600
0600C30600
0600C00600
0600C00600
0600C00600
0600C00600
07FFC00E00
0600C1FE00
0000003C00
0000001800
0000000000
ENDCHAR

STARTCHAR cns3_2460
ENCODING 9312
SWIDTH 960 0
DWIDTH 34 0
BBX 34 34 0 -2
BITMAP
0000000000
0000000700
0400C00600
07FFE00600
0600C38600
0600C30600
0600C30600
0600C30600
0600C30600
0600C30600
0600C30600
0600C30600
07FFC30600
0600C30600
0070030600
0060030600
0060030600
0060C30600
1FFFE30600
0060C30600
0060C30600
0060C30600
00C0C30600
00C0C30600
00C0C30600
00C0C00600
0181800600
0181800600
0303800600
067F800E00
1C0F01FE00
7006003C00
0000001800
0000000000
ENDCHAR

STARTCHAR cns3_2461
ENCODING 9313
SWIDTH 960 0
DWIDTH 34 0
BBX 34 34 0 -2
BITMAP
0000000000
0864300700
0FF7F80600
0C66300600
0C66300600
0C6630E600
0C6630C600
0C6630C600
0C6630C600
0C6630C600
0C6630C600
0C6630C600
0C6630C600
0C6630C600
0C6630C600
0C6636C600
7FFFFFC600
0C6630C600
0C6630C600
0C6630C600
0C6630C600
0C6630C600
0C6630C600
0C6630C600
0C66300600
0C66300600
0C66300600
0C66300600
0C66300600
0C66300E00
0C6631FE00
0DE6F03C00
0CC6601800
0000000000
ENDCHAR

STARTCHAR cns3_2462
ENCODING 9314
SWIDTH 960 0
DWIDTH 34 0
BBX 34 34 0 -2
BITMAP
0000000000
0000000000
030100E000
018301C000
0181830000
00C1830000
00C1860000
00C1840000
00000C0000
0800000300
0FFFFFFF00
1800000780
1800000700
1800000600
3001C00C00
3001800000
0001800000
0001806000
03FFFFF000
0003006000
0003006000
0003006000
0003006000
0003006000
0006006000
0006006000
0006006000
000C00C000
001C00C000
001801C000
00707F8000
01C00F0000
0700060000
0000000000
ENDCHAR

STARTCHAR cns3_2463
ENCODING 9315
SWIDTH 960 0
DWIDTH 34 0
BBX 34 34 0 -2
BITMAP
0000000000
001C070000
0018060000
0018060000
0018060000
0018060300
7FFFFFFF80
0018060000
0018060000
0018060000
0800000300
0FFFFFFF80
1800000300
1800000700
1800C00600
3001C00C00
3001800000
3001800000
0001806000
03FFFFF000
0003006000
0003006000
0003006000
0003006000
0006006000
0006006000
000C006000
001800C000
007000C000
00E0018000
03807F8000
0E000F0000
0000060000
0000000000
ENDCHAR

STARTCHAR cns3_2464
ENCODING 9316
SWIDTH 960 0
DWIDTH 34 0
BBX 34 34 0 -2
BITMAP
0000000000
007001C000
0060018000
0060018000
0E63818000
0C63018000
0C63018000
0C63018000
0C63018300
0C633FFF00
0C63018300
0C63018300
0C63018300
0C63018300
0C63018300
0FFF018300
0C63030300
0060030300
0060030300
0060030300
3861C30300
3061830300
3061860300
3061860300
3061860600
30618C0600
30618C0600
3061980C00
3061980C00
3FFFB01800
3001E7F800
0001C0F000
0003006000
0000000000
ENDCHAR

STARTCHAR cns3_2465
ENCODING 9317
SWIDTH 960 0
DWIDTH 34 0
BBX 34 34 0 -2
BITMAP
0000000000
0000000000
0000000000
0000000300
7FFFFFFF80
0600000000
0600E00000
0600C00000
0600C00000
0601800000
0603830000
060301C000
060600E000
06061FF000
063FF83000
063C003000
0603870000
0603060000
0603060000
0603063000
06FFFFF800
0603060000
0603060000
0606060000
0606060000
060C060000
0618060000
0630060000
0660060000
0700000600
07FFFFFF00
03FFFFFF00
0000000000
0000000000
ENDCHAR

STARTCHAR cns3_2466
ENCODING 9318
SWIDTH 960 0
DWIDTH 34 0
BBX 34 34 0 -2
BITMAP
0000000000
0000000000
0000000000
0000000000
0000000300
7FFFFFFF80
0600000000
0607000000
0606000000
060C000000
060C00C000
061FFFE000
0618600000
0630600000
0660600000
0600600000
0600603000
06FFFFF800
0600600000
0600C00000
0600CC0000
0600C60000
0601830000
0601838000
060301C000
060600E000
061C00E000
0630006000
0600006000
0700000600
07FFFFFF00
03FFFFFF00
0000000000
0000000000
ENDCHAR

STARTCHAR cns3_2467
ENCODING 9319
SWIDTH 960 0
DWIDTH 34 0
BBX 34 34 0 -2
BITMAP
0000000000
0070000000
0060000000
0060080600
00600FFF00
00600C0600
00600C0600
00618C0600
1FFFCC0600
00600C0600
00600C0600
00600C0600
00600C0600
00600C0600
00600C0600
0060CC0600
3FFFEC0600
00C00C0600
00C00C0600
00C00C0600
01800C0600
01800C0600
03060C0600
03030C0600
06018C0600
06018DFE00
063FCC3C00
1FE0CC1800
3E00CC0000
30000C0000
00000C0000
00000C0000
00000C0000
0000000000
ENDCHAR

STARTCHAR cns3_2468
ENCODING 9320
SWIDTH 960 0
DWIDTH 34 0
BBX 34 34 0 -2
BITMAP
0000000000
0000000000
0000000000
0400000C00
07FFFFFE00
0600000000
0600000000
0600700000
0600600000
0600600000
0600600000
0600600000
0600601800
06FFFFFC00
0600000000
0600038000
0630030000
0618030000
060C030000
060C030000
0606030000
0606060000
0606060000
0C03060000
0C03060000
0C03860000
0C018C0000
18018C0000
18000C0000
1000180300
37FFFFFF80
6000000000
0000000000
0000000000
ENDCHAR

STARTCHAR cns3_2469
ENCODING 9321
SWIDTH 960 0
DWIDTH 34 0
BBX 34 34 0 -2
BITMAP
0000000000
0000000000
0000000000
0400000C00
07FFFFFE00
0600000000
0600380000
0600300000
0600300000
0600300000
0600300000
0600300600
07FFFFFF00
0600300000
0600300000
0600300000
0600300000
0600300000
0600300000
0610306000
061FFFF000
0618006000
0618006000
0C18006000
0C18006000
0C18006000
0C18006000
1818006000
1818006000
101FFFE000
3018006000
6000000000
0000000000
0000000000
ENDCHAR

STARTCHAR cns3_246A
ENCODING 9322
SWIDTH 960 0
DWIDTH 34 0
BBX 34 34 0 -2
BITMAP
0000000000
0000000000
0000000000
0400000C00
07FFFFFE00
0600000000
0600000000
0640001800
067FFFFC00
0660301800
0660301800
0660301800
0660301800
067FFFF800
0660301800
0660301800
0660301800
0660301800
0660301800
067FFFF800
0660301800
0600300000
0600300000
0C00300000
0C00300000
0C00300000
0C00300000
1800300000
1800300000
1000300000
3000300000
6000300000
0000300000
0000000000
ENDCHAR

STARTCHAR cns3_246B
ENCODING 9323
SWIDTH 960 0
DWIDTH 34 0
BBX 34 34 0 -2
BITMAP
0000000000
00000E0000
00000C0000
00000C0000
20600C0000
3FF00C0000
30600C0000
30600C0600
3063FFFF00
3060300000
3060300000
3060300000
3060300000
3060300000
3060300C00
30603FFE00
3060300C00
3060300C00
3060300C00
3060600C00
3FE0600C00
3060600C00
0000601800
0000C01800
0000C01800
0001801800
0001801800
0003001800
0003003000
0006007000
000C1FE000
003803C000
00E0018000
0000000000
ENDCHAR

STARTCHAR cns3_246C
ENCODING 9324
SWIDTH 960 0
DWIDTH 34 0
BBX 34 34 0 -2
BITMAP
0000000000
0000070000
0000060000
0000060000
2060060000
3FF0060E00
3070063C00
306007F000
30601F8000
3063FE0000
3060060000
3060060000
3060060000
3060060C00
3063FFFE00
3060060000
3060060000
3060060000
3060060000
3060060000
3FE0060300
306FFFFF80
0000060000
0000060000
0000060000
0000060000
0000060000
0000060000
0000060000
0000060000
0000060000
0000060000
0000060000
0000000000
ENDCHAR

STARTCHAR cns3_246D
ENCODING 9325
SWIDTH 960 0
DWIDTH 34 0
BBX 34 34 0 -2
BITMAP
0000000000
0000000000
0000000000
0000000000
2060000C00
3FF1FFFE00
3060000000
3060000000
3060000000
3060000000
3060000000
3060000000
3060000000
3060000600
3067FFFF00
3060060000
3060060000
3060060000
30600C0000
30600C0000
3FE0180000
3060180000
0000182000
0000183000
0000301800
0000300C00
0000600600
000063FF00
0001FF8300
0003F00380
0003000180
0000000000
0000000000
0000000000
ENDCHAR

STARTCHAR cns3_246E
ENCODING 9326
SWIDTH 960 0
DWIDTH 34 0
BBX 34 34 0 -2
BITMAP
0000000000
0000070000
0000060000
0000060000
2060060000
3FF0060000
3060060000
3060060000
3060060600
306FFFFF00
30600F0000
30600F0000
30600F0000
30601F8000
30601F8000
306036C000
306066E000
3060666000
3060C67000
3060C63800
3FE1861C00
3061860E00
0003060F00
000E060780
0018060000
0000060000
0000060000
0000060000
0000060000
0000060000
0000060000
0000060000
0000060000
0000000000
ENDCHAR

STARTCHAR cns3_246F
ENCODING 9327
SWIDTH 960 0
DWIDTH 34 0
BBX 34 34 0 -2
BITMAP
0000000000
00000E0000
00000C0000
00000C0000
20600CC000
3FF00C6000
30600C7000
30600C3000
30600C3000
30600C0000
30600C0600
306FFFFF00
30600C0000
30600C0000
30601F0000
30601E0000
30601E0000
30601E0000
3060360000
3060360000
3FE0360000
3060360000
0000360000
0000660000
0000660200
0000C60200
0000C60200
0001860200
0001860300
0003070700
000607FF00
001C03FE00
0000000000
0000000000
ENDCHAR

STARTCHAR cns3_2470
ENCODING 9328
SWIDTH 960 0
DWIDTH 34 0
BBX 34 34 0 -2
BITMAP
0000000000
0000406000
00007FF000
0000606000
2030606000
3FF8606000
3030606000
3030606000
3030606100
3030606100
3030C06100
3030C06180
3031807380
3031807F80
3033003F00
3036000000
3030000000
3030001800
3037FFFC00
3031801800
3FF0C01800
3030403000
0000603000
0000306000
000018C000
00000D8000
0000070000
0000078000
00000DE000
0000187800
0000703F80
0001C00F00
0007000000
0000000000
ENDCHAR

STARTCHAR cns3_2471
ENCODING 9329
SWIDTH 960 0
DWIDTH 34 0
BBX 34 34 0 -2
BITMAP
0000000000
0000000000
0000000000
000000C000
203007E000
3FF800C000
303870C000
303060C000
3030606000
3030606000
3030E03000
3030C03000
3030C01800
3031801C00
3031800E00
30330E0700
30320C0380
30360C0000
3034180000
303C180000
3FF0180000
3030180000
000030C000
0000306000
0000603000
0000603800
0000C01800
0000C0FC00
00019F8E00
0007FC0E00
000F800600
0000000600
0000000000
0000000000
ENDCHAR

STARTCHAR cns3_2472
ENCODING 9330
SWIDTH 960 0
DWIDTH 34 0
BBX 34 34 0 -2
BITMAP
0000000000
0000000000
0000C00000
007FE00000
0000C00000
0000C00000
0000C00000
0800C00600
0FFFFFFF00
0C00C00600
0C01E00600
0C01300600
0C03180600
0C061E0600
0C1C0F8600
0C3003E600
0CE0000600
0C10060600
0C1FFF0600
0C18060600
0C18060600
0C18060600
0C18060600
0C18060600
0C18060600
0C1FFE0600
0C18060600
0C00000600
0C00000600
0C00000E00
0C0001FE00
0C00003C00
0C00001800
0000000000
ENDCHAR

STARTCHAR cns3_2473
ENCODING 9331
SWIDTH 960 0
DWIDTH 34 0
BBX 34 34 0 -2
BITMAP
0000000000
0000000000
00000C0000
07FFFE0000
000C0C0000
000C0C0000
000C0C0000
00180C0C00
00181FFE00
0018180C00
0030180C00
0030300C00
0060001800
0060001800
00C0003800
0180EFF000
0700C1E000
1C00C00000
0000C00C00
3FFFFFFE00
0000C00000
0000C00000
0100C0C000
01FFFFE000
018000C000
018000C000
018000C000
018000C000
018000C000
018000C000
01FFFFC000
018000C000
0000000000
0000000000
ENDCHAR

STARTCHAR cns3_2474
ENCODING 9332
SWIDTH 960 0
DWIDTH 34 0
BBX 34 34 0 -2
BITMAP
0000000000
0000003800
0000003000
0000003000
1030003000
1FF8603000
1830303000
1830183000
18301C3000
18300C3000
18300C3000
1830003000
1830003000
1830C03000
1830603000
1830303000
1830383000
1830183000
1830183000
1830003300
1FF0003F80
183003F000
00003F3000
0003F03000
001F003000
0000003000
0000003000
0000003000
0000003000
0000003000
0000003000
0000003000
0000003000
0000000000
ENDCHAR

STARTCHAR cns3_2475
ENCODING 9333
SWIDTH 960 0
DWIDTH 34 0
BBX 34 34 0 -2
BITMAP
0000000000
0000000000
0000000000
0000000000
0000000000
1030070000
1FF801C000
183000E000
1830007000
1830007000
1830383000
1830300000
1830300000
1830300000
1830300000
1830300000
1831B01800
1831300C00
1833300C00
1833300600
1FF6300600
1836300300
0006300300
000C301300
000C301300
000C301000
0000301000
0000301000
0000301800
0000383800
00003FF800
00001FF000
0000000000
0000000000
ENDCHAR

STARTCHAR cns3_2476
ENCODING 9334
SWIDTH 960 0
DWIDTH 34 0
BBX 34 34 0 -2
BITMAP
0000000000
0000000000
0000000000
0000003000
1031FFF800
1FF80C3000
18300C3000
18300C3000
18300C3000
18300C3000
18300C3300
183FFFFF80
18300C3000
18300C3000
18300C3000
18300C3000
18300C3000
18300C3000
1830183000
1833FFF000
1FF0183000
1830180000
0000300000
0000300000
0000300000
0000600000
0000600000
0000C00000
0001C00000
0003000000
0006000000
0000000000
0000000000
0000000000
ENDCHAR

STARTCHAR cns3_2477
ENCODING 9335
SWIDTH 960 0
DWIDTH 34 0
BBX 34 34 0 -2
BITMAP
0000000000
0000000700
0000000600
0000030600
1063FF8600
1FF0030600
1860030600
1860030600
1860030600
1860030600
1860030600
1861FF0600
1861830600
1861800600
1861800600
1861800600
1863000600
1863010600
1863FF8600
1862030600
1FE6030600
1860030600
0000030600
0000030600
0000030600
0000060600
0000060600
0000060600
00000C0600
0003FC0600
0000780600
0000300600
0000000600
0000000000
ENDCHAR

STARTCHAR cns3_2478
ENCODING 9336
SWIDTH 960 0
DWIDTH 34 0
BBX 34 34 0 -2
BITMAP
0000000000
0000070000
0000060000
0000060000
1030060000
1FF8060000
1830060000
1830060000
1830060000
1830060C00
1833FFFE00
1830060000
1830060000
1830060000
1830060000
18300C0000
18300C0300
1837FFFF80
18300C0000
18300E0000
1FF01B0000
18301B0000
0000198000
0000318000
000030C000
000060C000
0000606000
0000C07000
0000C03800
0001801C00
0003000F00
000E000780
0038000000
0000000000
ENDCHAR

STARTCHAR cns3_2479
ENCODING 9337
SWIDTH 960 0
DWIDTH 34 0
BBX 34 34 0 -2
BITMAP
0000000000
000381C000
0003018000
0003018000
1063018000
1FF3018000
1863018000
1863018000
1863018000
1863018000
1863018000
1863018000
1863198600
1863FDFF00
1863018000
1863018000
1863018000
1863018000
1863018000
1863018000
1FE3018000
1863018000
0003018000
0003018000
0003018100
0003018100
0003018100
0003398100
0003E18180
000F01C380
007C01FF80
007000FF00
0000000000
0000000000
ENDCHAR

STARTCHAR cns3_247A
ENCODING 9338
SWIDTH 960 0
DWIDTH 34 0
BBX 34 34 0 -2
BITMAP
0000000000
0000000000
0000000000
0000007000
1032006700
1FFB806600
1833006600
183340C600
183360C600
183320C600
183330C600
183310C600
1833198600
18330D8600
18330D8600
1833070600
1833070600
1833030600
1833070600
1833078600
1FF30C8600
18330CC600
000318E600
0003186600
0003306600
0003203600
0003603600
0003C00600
0003000600
0003000600
0003FFFE00
0003000600
0000000000
0000000000
ENDCHAR

STARTCHAR cns3_247B
ENCODING 9339
SWIDTH 960 0
DWIDTH 34 0
BBX 34 34 0 -2
BITMAP
0000000000
0000000000
0100006000
01FFFFF000
0180006000
0180006000
0180006000
0180006000
0180006000
0180006000
0180006000
01FFFFE000
0180006000
0000000000
0000001800
07FFFFFC00
0000C00000
0000C00000
0000C00000
0000C00000
0000C00300
7FFFFFFF80
0001C00000
0001E00000
0003300000
0003300000
0006180000
000C1E0000
0018070000
003003E000
00E001FC00
0380007F80
1E00000E00
0000000000
ENDCHAR

STARTCHAR cns3_247C
ENCODING 9340
SWIDTH 960 0
DWIDTH 34 0
BBX 34 34 0 -2
BITMAP
0000000000
0000000000
0080006000
00FFFFF000
00C0006000
00C0006000
00C0006000
00C0006000
00C0006000
00C0006000
00FFFFE000
00C6006000
0006000000
000C000000
0018000000
0030003000
007FFFF800
0000003000
0000006000
000000C000
0000018000
0000030300
7FFFFFFF80
0000000000
0018030000
0018018000
0038018000
003000C000
006000C000
00C0006000
0380003000
0E00001C00
0000000000
0000000000
ENDCHAR

STARTCHAR cns3_247D
ENCODING 9341
SWIDTH 960 0
DWIDTH 34 0
BBX 34 34 0 -2
BITMAP
0000000000
0000070000
0000060000
0000060000
0000060000
0000060000
1060060000
1FF2060600
1863FFFF00
1863060600
1863060600
1863060600
1863070600
18630D0600
18630D0600
18630D8600
1863198600
186318C600
186318C600
1863306600
1863607600
1863C03600
1FE3000600
1863000600
0003000600
0003000600
0003000600
0003000600
0003000600
0003000E00
000301FE00
0003003C00
0003001800
0000000000
ENDCHAR

STARTCHAR cns3_247E
ENCODING 9342
SWIDTH 960 0
DWIDTH 34 0
BBX 34 34 0 -2
BITMAP
0000000000
001C000000
0018000000
0018000000
0018C00000
0018603000
0418301800
0418380C00
0C18188E00
1818188700
1818008300
3018008300
301800C000
001C01C000
001FFFC000
000FFF8000
0000000000
0000000000
0400006000
07FFFFF000
0600006000
0600006000
0600006000
0600006000
0600006000
0600006000
0600006000
0600006000
07FFFFE000
0600006000
0000000000
0000000000
0000000000
0000000000
ENDCHAR

STARTCHAR cns3_2521
ENCODING 9505
SWIDTH 960 0
DWIDTH 34 0
BBX 34 34 0 -2
BITMAP
0000000000
0038E00000
0030C00000
0030C00000
0060C00000
0060C00000
00C0C03000
00FFFFF800
0180C00000
0100C00000
0300C00000
0600C00000
0C00C00000
0000C00000
0000C00300
7FFFFFFF80
0000C00000
0000C00000
0000C00000
0000C00000
0080006000
00FFFFF000
00C0006000
00C0006000
00C0006000
00C0006000
00C0006000
00C0006000
00C0006000
00C0006000
00FFFFE000
00C0006000
0000000000
0000000000
ENDCHAR

STARTCHAR cns3_2522
ENCODING 9506
SWIDTH 960 0
DWIDTH 34 0
BBX 34 34 0 -2
BITMAP
0000000000
0000007000
000001E000
00000FC000
0000FC0000
003F800000
07F1800000
0003800000
0003000000
0003000000
0006000600
3FFFFFFF00
000C0C0000
000C0C0000
0018060000
0038038000
003001C000
00E000F000
01C000FC00
07FFFFFF80
1CC000E600
70C000C000
00C000C000
00C000C000
00C000C000
00C000C000
00C000C000
00C000C000
00C000C000
00C000C000
00FFFFC000
00C000C000
0000000000
0000000000
ENDCHAR

STARTCHAR cns3_2523
ENCODING 9507
SWIDTH 960 0
DWIDTH 34 0
BBX 34 34 0 -2
BITMAP
0000000000
0000380000
0000300000
0000300000
0000700000
0000600000
2060600000
3FF0C00000
3060C00600
3061FFFF00
3061806000
3061806000
3063806000
3063806000
306680C000
3066C0C000
306C40C000
307860C000
3060218000
3060318000
3060118000
30601B0000
3FE00F0000
30600E0000
0000070000
00000F8000
000019C000
000030E000
0000607800
0001C03E00
0003001F80
000E000400
0038000000
0000000000
ENDCHAR

STARTCHAR cns3_2524
ENCODING 9508
SWIDTH 960 0
DWIDTH 34 0
BBX 34 34 0 -2
BITMAP
0000000000
0000000000
0000038000
0200FFF000
03FFE00000
0300000000
0300000C00
03FFFFFE00
0300000C00
0300000C00
0300000C00
0300000C00
0300000C00
0300000C00
03FFFFFC00
0300000C00
0300000000
0300000000
0380003000
03FFFFF800
06C0003000
06C0003000
06C0003000
06C0003000
06C0003000
06C0003000
0CC0003000
0CC0003000
0CFFFFF000
18C0003000
30C0003000
6000000000
0000000000
0000000000
ENDCHAR

STARTCHAR cns3_2525
ENCODING 9509
SWIDTH 960 0
DWIDTH 34 0
BBX 34 34 0 -2
BITMAP
0000000000
0000000000
0000000000
0000000000
0000000C00
0007FFFE00
10600C0000
1FF00C0000
18600C0000
18600C0000
18600C0000
18600C0000
18600C0000
1860180000
1860183000
1863FFF800
1860183000
1860183000
1860183000
1860303000
1860303000
1860303000
1FE0303000
1860303000
0000603000
0000603000
0000603000
0000C03000
0000C03300
001FFFFF80
0000000000
0000000000
0000000000
0000000000
ENDCHAR

STARTCHAR cns3_2526
ENCODING 9510
SWIDTH 960 0
DWIDTH 34 0
BBX 34 34 0 -2
BITMAP
0000000000
0000000000
0000000000
1000000C00
1FFFFFFE00
1800000C00
1800000C00
1800030C00
183FFF8C00
1800000C00
1800000C00
1800000C00
1800000C00
180000CC00
19FFFFEC00
1803000C00
1803000C00
1803000C00
1806000C00
18060C0C00
1806060C00
180C030C00
1818038C00
1818018C00
1831FFCC00
187FC0CC00
187800CC00
1800000C00
1800000C00
1800000C00
1FFFFFFC00
1800000C00
0000000000
0000000000
ENDCHAR

STARTCHAR cns3_2527
ENCODING 9511
SWIDTH 960 0
DWIDTH 34 0
BBX 34 34 0 -2
BITMAP
0000000000
0000000000
0000000000
1000000C00
1FFFFFFE00
1800000C00
180E0E0C00
180C0C0C00
180C0C0C00
180C0C0C00
180C0D8C00
18FFFFCC00
180C0C0C00
180C0C0C00
180C0C0C00
180C0C0C00
180C0C0C00
180C0C6C00
19FFFFFC00
18180C0C00
18180C0C00
18180C0C00
18300C0C00
18300C0C00
18600C0C00
18600C0C00
18C00C0C00
18800C0C00
19800C0C00
18000C0C00
1FFFFFFC00
1800000C00
0000000000
0000000000
ENDCHAR

STARTCHAR cns3_2528
ENCODING 9512
SWIDTH 960 0
DWIDTH 34 0
BBX 34 34 0 -2
BITMAP
0000000000
0000000000
1000000C00
1FFFFFFE00
1800000C00
1800038C00
1831830C00
1818C70C00
180C670C00
180C660C00
18E00E0C00
18300C0C00
181C1C0C00
1806180C00
1803380C00
1801B00C00
1801F00C00
1800E00C00
1800F00C00
1800F80C00
18019C0C00
18038E0C00
1807070C00
1806038C00
181C03CC00
181801EC00
187001EC00
19C000EC00
1800000C00
1FFFFFFC00
1800000C00
0000000000
0000000000
0000000000
ENDCHAR

STARTCHAR cns3_2529
ENCODING 9513
SWIDTH 960 0
DWIDTH 34 0
BBX 34 34 0 -2
BITMAP
0000000000
0000000000
1000000C00
1FFFFFFE00
1800000C00
1800000C00
1800018C00
18FFFFCC00
1801800C00
1801800C00
1801800C00
1801800C00
1801800C00
1801800C00
1801800C00
1801830C00
187FFF8C00
1801800C00
1801800C00
1801800C00
1801800C00
1801800C00
1801800C00
1801800C00
180180CC00
1BFFFFEC00
1800000C00
1800000C00
1800000C00
1FFFFFFC00
1800000C00
0000000000
0000000000
0000000000
ENDCHAR

STARTCHAR cns3_252A
ENCODING 9514
SWIDTH 960 0
DWIDTH 34 0
BBX 34 34 0 -2
BITMAP
0000000000
0000000000
1000000C00
1FFFFFFE00
1800000C00
1800000C00
1800060C00
183FFF0C00
1800000C00
1800000C00
1800000C00
1800000C00
1800018C00
18FFFFCC00
1806300C00
1806300C00
1806300C00
1806300C00
180C300C00
180C300C00
180C304C00
180C304C00
1818304C00
1818306C00
183030EC00
18603FEC00
19C01FCC00
1F00000C00
1800000C00
1FFFFFFC00
1800000C00
0000000000
0000000000
0000000000
ENDCHAR

STARTCHAR cns3_252B
ENCODING 9515
SWIDTH 960 0
DWIDTH 34 0
BBX 34 34 0 -2
BITMAP
0000000000
0000000000
0800000600
0FFFFFFF00
0C18060600
0C18060600
0C18060600
0C18060600
0C18060600
0C18060600
0C18060600
0C18060600
0C1FFE0600
0C18060600
0C18060600
0C18060600
0C18060600
0C18060600
0C18060600
0C18060600
0C1FFE0600
0C18060600
0C18060600
0C18060600
0C18060600
0C18060600
0C18060600
0C18060600
0C18060600
0C18060600
0FFFFFFE00
0C00000600
0000000000
0000000000
ENDCHAR

STARTCHAR cns3_252C
ENCODING 9516
SWIDTH 960 0
DWIDTH 34 0
BBX 34 34 0 -2
BITMAP
0000000000
0000000000
1000000C00
1FFFFFFE00
1800000C00
1800E00C00
1800C00C00
1800C00C00
1800C00C00
1800C00C00
1800C1CC00
1800C38C00
1806C78C00
19FFFE0C00
1806F80C00
180CD00C00
180CD80C00
1818C80C00
1818CC0C00
1830C60C00
1820C70C00
1860C3CC00
18C0C1EC00
1880C08C00
1980C00C00
1800C00C00
180F800C00
1801800C00
1800000C00
1FFFFFFC00
1800000C00
0000000000
0000000000
0000000000
ENDCHAR

STARTCHAR cns3_252D
ENCODING 9517
SWIDTH 960 0
DWIDTH 34 0
BBX 34 34 0 -2
BITMAP
0000000000
01C0000000
0180000000
0181000600
0181FFFF00
0183000600
0183000C00
0186000800
0186000800
0180000000
0198000000
3FFC70E000
018060C000
018060C000
018060C000
018060C000
018060C000
018060C000
018060C000
018060C000
018060C000
019C60C000
01F060C000
03C0C0C000
3F00C0C000
7800C0C100
7000C0C100
000180C100
000180C180
000300E380
000600FF80
000C007F00
0000000000
0000000000
ENDCHAR

STARTCHAR cns3_252E
ENCODING 9518
SWIDTH 960 0
DWIDTH 34 0
BBX 34 34 0 -2
BITMAP
0000000000
01C0000000
0180000C00
0181FFFE00
0180001C00
0180003800
0180006000
018018C000
01800D8000
0180060000
0198070000
3FFC030000
0180030000
0180000300
0187FFFF80
0180030700
0180030C00
0180030800
0180030800
0180030000
0180030000
019C030000
01F0030000
03C0030000
3F00030000
3800030000
0000030000
0000030000
0000030000
0000070000
0000FF0000
00001E0000
00000C0000
0000000000
ENDCHAR

STARTCHAR cns3_252F
ENCODING 9519
SWIDTH 960 0
DWIDTH 34 0
BBX 34 34 0 -2
BITMAP
0000000000
0380000000
0300406000
03007FF000
0300606000
0300606000
0300606000
0300606000
0300606100
0330C06100
3FF8C06100
0300C06180
0301807380
0301807F80
0303003F00
0306000000
0300001800
0307FFFC00
0300801800
0300C01800
0338403000
03E0606000
0380206000
1E0030C000
7800198000
60000F0000
0000070000
00000FC000
00001CE000
0000307C00
0000E01F80
0003800600
001E000000
0000000000
ENDCHAR

STARTCHAR cns3_2530
ENCODING 9520
SWIDTH 960 0
DWIDTH 34 0
BBX 34 34 0 -2
BITMAP
0000000000
03800E0000
03000C0000
03000C0000
03000E0000
03001E0000
03001B0000
0300330000
0300318000
0300618000
033060C000
3FF8C06000
0301803800
0303001E00
030670E780
030C60C000
033860C000
030060C000
030060C000
030060C000
030060C000
033860C000
03E060C000
078060C000
3E0060C000
3800C0C000
0000C0C000
0000C0C000
000180C000
000180C000
000300C000
000E00C000
001800C000
0000000000
ENDCHAR

STARTCHAR cns3_2531
ENCODING 9521
SWIDTH 960 0
DWIDTH 34 0
BBX 34 34 0 -2
BITMAP
0000000000
0000000000
0000000000
0100006000
01FFFFF000
0180006000
0180006000
0180006000
0180006000
01FFFFE000
0180006000
0180006000
0180006000
0180006000
0180006000
01FFFFE000
0180006000
0000E00000
0000C00000
0000C00000
0000C00000
0000C06000
03FFFFF000
0000C00000
0000C00000
0000C00000
0000C00000
0000C00000
0000C00000
0000C00300
7FFFFFFF80
0000000000
0000000000
0000000000
ENDCHAR

STARTCHAR cns3_2532
ENCODING 9522
SWIDTH 960 0
DWIDTH 34 0
BBX 34 34 0 -2
BITMAP
0000000000
000E0E0000
000C0C0000
000C0C0000
000C0C0000
000C0C6000
01FFFFF000
000C0C0000
000C0C0000
000C0C0000
000C0C0000
000C0C0C00
0FFFFFFE00
00180C0000
00180C0000
00180C0000
00300C0000
00300C0000
00600C0000
01C0EC0000
0700CC0000
0000C00000
0000C00000
0000C06000
03FFFFF000
0000C00000
0000C00000
0000C00000
0000C00000
0000C00300
7FFFFFFF80
0000000000
0000000000
0000000000
ENDCHAR

STARTCHAR cns3_2533
ENCODING 9523
SWIDTH 960 0
DWIDTH 34 0
BBX 34 34 0 -2
BITMAP
0000000000
0000000000
0000000000
0000018000
03FFFFC000
0000000000
0000000000
0000000000
0000000C00
1FFFFFFE00
000C180000
000C180000
000C180000
0018180200
0018180200
0030180200
0030180300
00601C0700
00C01FFF00
0180EFFE00
0700C00000
1C00C00000
0000C00000
0000C06000
03FFFFF000
0000C00000
0000C00000
0000C00000
0000C00000
0000C00000
0000C00300
7FFFFFFF80
0000000000
0000000000
ENDCHAR

STARTCHAR cns3_2534
ENCODING 9524
SWIDTH 960 0
DWIDTH 34 0
BBX 34 34 0 -2
BITMAP
0000000000
0380003800
0300003000
0300003000
0300C03000
0300603000
0300303000
0300383000
0300183000
0330183000
3FF8003000
0300003000
0300003000
0301803000
0300C03000
0300603000
0300603000
0300303000
0300303000
0300003300
031C003F80
03F003F800
03803FB000
1F03F03000
780E003000
6000003000
0000003000
0000003000
0000003000
0000003000
0000003000
0000003000
0000003000
0000000000
ENDCHAR

STARTCHAR cns3_2535
ENCODING 9525
SWIDTH 960 0
DWIDTH 34 0
BBX 34 34 0 -2
BITMAP
0000000000
0380070000
0300060000
0300060000
0300060000
0300060000
0300060000
0300060300
0307FFFF80
0330C03000
3FF8403000
0300403000
0300403000
0300403000
0300406000
0300606000
0300206000
0300306000
030030C000
030018C000
031C198000
03F00D8000
03800F0000
1F00070000
78000F0000
70000D8000
000018C000
0000306000
0000607800
0000C03E00
0003800F80
000E000700
0038000000
0000000000
ENDCHAR

STARTCHAR cns3_2536
ENCODING 9526
SWIDTH 960 0
DWIDTH 34 0
BBX 34 34 0 -2
BITMAP
0000000000
0380000000
0300000000
0300003800
0301FFFC00
0300000000
0300000000
0300000000
0300000000
0330000000
3FF8000000
0300000000
0300000000
0300000600
0307FFFF00
0300618000
0300618000
0300618000
0300618000
0300618000
031C618000
03F0618000
0380618000
1F00C18000
7800C18000
7000C18100
0001818100
0001818100
0003018180
000601C380
001C01FF80
007000FF00
01C0000000
0000000000
ENDCHAR

STARTCHAR cns3_2537
ENCODING 9527
SWIDTH 960 0
DWIDTH 34 0
BBX 34 34 0 -2
BITMAP
0000000000
0380000000
0300000000
0300000000
0300000600
0307FFFF00
0300300000
0300300000
0300300000
0330300000
3FF8600000
0300603000
03007FF800
0300603000
0300603000
0300C03000
0300C03000
0300C06000
0300C06000
0300C06000
031D806000
03F1806000
03C1FFE000
1F01806000
7C01806000
700000C000
000000C000
000000C000
000000C000
000000C300
000FFFFF80
0000000000
0000000000
0000000000
ENDCHAR

STARTCHAR cns3_2538
ENCODING 9528
SWIDTH 960 0
DWIDTH 34 0
BBX 34 34 0 -2
BITMAP
0000000000
03800E0000
03000C0000
03000C0000
03000C0000
03000C0000
03000C0000
03000C1800
0301FFFC00
03300C1800
3FF80C1800
03000C1800
03000C1800
03000C1800
03000C1800
03000C1800
03000C1B00
0307FFFF80
03001C0000
03001E0000
03381A0000
03E0320000
0380330000
1F00610000
7800618000
7000C0C000
0000C04000
0001807000
0003003C00
0006001F80
001C000E00
0070000000
0000000000
0000000000
ENDCHAR

STARTCHAR cns3_2539
ENCODING 9529
SWIDTH 960 0
DWIDTH 34 0
BBX 34 34 0 -2
BITMAP
0000000000
038381C000
0303018000
0303018000
0303018000
0303018000
0303018000
0303018000
0303018000
0363018000
3FF3018000
0303018000
0303198600
0303FDFF00
0303018000
0303018000
0303018000
0303018000
0303018000
0303018000
033B018000
03E3018000
0383018000
1F03018000
7C03018100
7003018100
0003018100
0003398100
0003E18180
000F01C380
003C01FF80
003800FF00
0000000000
0000000000
ENDCHAR

STARTCHAR cns3_253A
ENCODING 9530
SWIDTH 960 0
DWIDTH 34 0
BBX 34 34 0 -2
BITMAP
0000000000
0380000000
0300003800
0300007000
030001E000
0300078000
03001E0000
0300FC0000
03078C0000
03000C0000
03300C0E00
3FF80C1C00
03000CF000
03003F8000
0307EC0000
03000C0000
03000C0000
03000C0000
03000C0380
03000C0700
03000CFC00
03387FC000
03E3CC0000
07800C0000
3E000C0000
78000C0000
60000C0100
00000C0100
00000C0100
00000C0180
00000E0380
00000FFF80
000007FF00
0000000000
ENDCHAR

STARTCHAR cns3_253B
ENCODING 9531
SWIDTH 960 0
DWIDTH 34 0
BBX 34 34 0 -2
BITMAP
0000000000
01C00E0000
01800C0000
01800C0000
0180180000
0180180000
0180300600
01803FFF00
0180600000
0180C00000
0199870000
1FFC060000
0180060000
0180060000
0180060600
0181FFFF00
0180060600
0180060600
0180060600
0180060600
0180060600
019C060600
01F00C0600
07C00C0C00
3F00180C00
3800180C00
0000300C00
0000300C00
0000601800
0000C03800
00038FF000
000E01E000
000000C000
0000000000
ENDCHAR

STARTCHAR cns3_253C
ENCODING 9532
SWIDTH 960 0
DWIDTH 34 0
BBX 34 34 0 -2
BITMAP
0000000000
01C0380000
0180300000
0180700000
0180600000
0180600000
0180600000
0180C00000
0180C00600
0180FFFF00
0199C06000
1FFD806000
0181806000
0183C06000
0182406000
018640C000
018460C000
018C60C000
018830C000
0180318000
0180198000
01981D8000
01F00F0000
03C0070000
3F00070000
3800078000
30000DC000
000018E000
0000307800
0000E03E00
0003800F80
000E000400
0038000000
0000000000
ENDCHAR

STARTCHAR cns3_253D
ENCODING 9533
SWIDTH 960 0
DWIDTH 34 0
BBX 34 34 0 -2
BITMAP
0000000000
0000380000
0000300000
0000700000
0700600000
0600C00000
0600C00000
0601800600
0601FFFF00
0603000600
0603000600
0666000600
7FF40E0600
060C0C0600
06000C0600
0600180600
0600180600
0600300600
0600360600
0600630600
0600C18600
06019FC600
06E3F8E600
0783806C00
1E00000C00
7800000C00
6000000C00
4000001800
0000001800
0000003000
00000FF000
000001E000
000000C000
0000000000
ENDCHAR

STARTCHAR cns3_253E
ENCODING 9534
SWIDTH 960 0
DWIDTH 34 0
BBX 34 34 0 -2
BITMAP
0000000000
0000380000
0000300000
0000300000
0380600000
0300600000
0300C00000
0300C00600
0300FFFF00
03018C6600
03018C6600
0333186600
3FFB18C600
030618C600
030C18C600
030030C600
0300318600
0300318600
0300618600
0300630600
0300C30600
0300C60C00
0331860C00
03E30C0C00
0F0E0C0C00
7C38180C00
7000180C00
0000301800
0000601800
0001C03000
00070FF000
000001E000
000000C000
0000000000
ENDCHAR

STARTCHAR cns3_253F
ENCODING 9535
SWIDTH 960 0
DWIDTH 34 0
BBX 34 34 0 -2
BITMAP
0000000000
0380000000
0300700000
0300600000
0300600000
0300600600
0300C3FF00
0300C00600
0300C00600
0301800600
0361800600
3FF31C0600
030A180600
030E180600
0306300600
0303300600
0303B00600
0301E00600
0300600600
0300C00600
0301800600
0331B00C00
03E3180C00
0703180C00
3E030C0C00
78067E0C00
600FC60C00
001C060C00
0018000C00
0000001800
000007F800
000000F000
0000006000
0000000000
ENDCHAR

STARTCHAR cns3_2540
ENCODING 9536
SWIDTH 960 0
DWIDTH 34 0
BBX 34 34 0 -2
BITMAP
0000000000
0380000000
0300000000
0302000600
0303FFFF00
0303000000
0303000000
0303000000
0303000000
0303000000
0333000000
3FFB001800
0303FFFC00
0303401800
0303603800
0303203000
0303203000
0303207000
0303306000
0303106000
030318C000
033608C000
03E60D8000
0786078000
3E0C070000
380C070000
00180D8000
001818C000
0030706000
0020E03C00
0063801F80
00CE000600
0000000000
0000000000
ENDCHAR

STARTCHAR cns3_2541
ENCODING 9537
SWIDTH 960 0
DWIDTH 34 0
BBX 34 34 0 -2
BITMAP
0000000000
0000700000
0000600000
0000600000
0000601C00
0004603800
0FFE607800
000E786000
000C6CC000
0018678000
0018630000
0030618000
006060E000
01C0607800
0300601F80
0E00E00E00
381FE00000
0003C00000
0001800000
0000E00000
0000C00000
0000C00000
0000C00000
0000C06000
03FFFFF000
0000C00000
0000C00000
0000C00000
0000C00000
0000C00000
0000C00300
7FFFFFFF80
0000000000
0000000000
ENDCHAR

STARTCHAR cns3_2542
ENCODING 9538
SWIDTH 960 0
DWIDTH 34 0
BBX 34 34 0 -2
BITMAP
0000000000
0000000000
000000C000
00001FE000
011FFF8000
01FF810000
0181818000
0181808000
0181808000
018180C000
030180C000
0301806000
0301806000
0301803000
0601803000
0601801800
0401801C00
0C01800E00
0801800780
1800C00200
3000E00000
0000C00000
0000C00000
0000C06000
03FFFFF000
0000C00000
0000C00000
0000C00000
0000C00000
0000C00000
0000C00300
7FFFFFFF80
0000000000
0000000000
ENDCHAR

STARTCHAR cns3_2543
ENCODING 9539
SWIDTH 960 0
DWIDTH 34 0
BBX 34 34 0 -2
BITMAP
0000000000
0000E00000
0000C00000
0000C00000
0000C01800
0FFFFFFC00
0000C00000
0000C00000
0000C0C000
03FFFFE000
0000000000
0400000600
07FFFFFF00
0C00000600
1800000C00
3800000800
3038000000
0030000000
003001C000
0030038000
0030070000
00301C0000
0030700000
0031C00000
003F000000
0030000800
0030000800
0030000800
0030000800
0030000C00
0038001C00
003FFFFC00
001FFFF800
0000000000
ENDCHAR

STARTCHAR cns3_2544
ENCODING 9540
SWIDTH 960 0
DWIDTH 34 0
BBX 34 34 0 -2
BITMAP
0000000000
0000E00000
0000C00000
0000C00000
0000C01800
0FFFFFFC00
0000C00000
0000C00000
0000C0C000
03FFFFE000
0000000000
0400000600
07FFFFFF00
0C00000600
0C00000C00
180E0E0800
180C0E0000
000C0C0000
000C0C0000
000C0C0000
000C0C0000
000C0C0000
001C0C0000
00180C0000
00180C0000
00180C0100
00300C0100
00300C0100
00600C0180
00C00E0380
03800FFF80
0E0007FF00
3800000000
0000000000
ENDCHAR

STARTCHAR cns3_2545
ENCODING 9541
SWIDTH 960 0
DWIDTH 34 0
BBX 34 34 0 -2
BITMAP
0000000000
0000380000
0000300000
0000300000
0000300600
03FFFFFF00
0000300000
0000300000
0000303000
00FFFFF800
0000000000
0000000000
0200000600
03FFFFFF00
0300600600
0300600600
0300600600
0300600600
03FFFFFE00
0300000600
0300000000
0300000000
0300000000
0600000000
0600000000
0600000000
0C00000000
0C00000000
0C00000000
1800000000
3000000000
6000000000
0000000000
0000000000
ENDCHAR

STARTCHAR cns3_2546
ENCODING 9542
SWIDTH 960 0
DWIDTH 34 0
BBX 34 34 0 -2
BITMAP
0000000000
0007000000
0006000000
000E000000
000C030000
0018018000
003000E000
006007F000
0FFFFC3800
0FFC181800
0018180200
0018180200
0030180200
0030180300
00671C0700
00CE1FFF00
038C0FFE00
1E0C000000
0018018000
003FFFC000
0060038000
0070030000
00D8060000
018C0C0000
0706180000
1C03B00000
0000E00000
0003F80000
000F1E0000
003807E000
01E001FE00
0F00003800
0000000000
0000000000
ENDCHAR

STARTCHAR cns3_2547
ENCODING 9543
SWIDTH 960 0
DWIDTH 34 0
BBX 34 34 0 -2
BITMAP
0000000000
0001C00000
0001800000
0001800000
0001800C00
3FFFFFFE00
0001800000
0001800000
0001801800
1FFFFFFC00
0001800000
0001800000
0001800000
0001800300
7FFFFFFF80
0000000000
001C000000
0018000000
0038003000
003FFFF800
0060007000
00F000E000
019800C000
070C038000
1C06070000
00038C0000
0001F80000
0000F80000
00039F0000
001E07FC00
00F001FF80
1FC0001E00
0000000000
0000000000
ENDCHAR

STARTCHAR cns3_2548
ENCODING 9544
SWIDTH 960 0
DWIDTH 34 0
BBX 34 34 0 -2
BITMAP
0000000000
0003800000
0007000000
0006000000
0006000000
100C000C00
1FFFFFFE00
1800000C00
1800E00C00
1801C00C00
1801800C00
180300CC00
1807FFEC00
180600CC00
180C018C00
1818018C00
1836030C00
1863030C00
18C1860C00
1801CE0C00
1800DC0C00
1800180C00
1800300C00
1800600C00
1801C00C00
1803000C00
180E000C00
1878000C00
19E0000C00
1800000C00
1FFFFFFC00
1800000C00
0000000000
0000000000
ENDCHAR

STARTCHAR cns3_2549
ENCODING 9545
SWIDTH 960 0
DWIDTH 34 0
BBX 34 34 0 -2
BITMAP
0000000000
0000E00000
0000C00000
0001C00000
0001800000
0007000C00
3FFFFFFE00
000C180000
001C0C0000
0018060000
0030030000
0060018000
01C000E000
0380007800
060001BE00
1CFFFFCF80
7000000600
0000000000
0000000000
0000006000
07FFFFF000
0006000000
0006000000
000C030000
000C018000
0018018000
001800C000
0030006000
0061FFF000
01FFC03000
01F0003800
0000001800
0000000000
0000000000
ENDCHAR

STARTCHAR cns3_254A
ENCODING 9546
SWIDTH 960 0
DWIDTH 34 0
BBX 34 34 0 -2
BITMAP
0000000000
0001C00000
0001800000
0003800000
0003000000
0007000C00
3FFFFFFE00
000C080000
000C040000
0018030000
0030018000
00E0E0C000
0180C07800
0700C01E00
1C00C00780
7000C01800
0FFFFFFC00
0003E00000
0003F00000
0006D80000
0006CC0000
000CC70000
001CC3C000
0018C0F800
0070C07E00
03C0C00000
0000C00000
0000C00000
0000C00000
0000C00000
0000C00000
0000C00000
0000C00000
0000000000
ENDCHAR

STARTCHAR cns3_254B
ENCODING 9547
SWIDTH 960 0
DWIDTH 34 0
BBX 34 34 0 -2
BITMAP
0000000000
01C0070000
0180060000
0180060000
0300060000
0300060000
0300060000
0300060600
061BFFFF00
3FFC000000
0618000000
0618000000
0618000000
0C18406000
0C187FF000
0C18606000
1830606000
1830606000
1830606000
1860606000
1860606000
3E60606000
3360606000
01C0C06000
00C0C06000
01E1C06100
01F1806100
0333806100
0303006180
0606007380
1C0C007F80
7038003F00
0000000000
0000000000
ENDCHAR

STARTCHAR cns3_254C
ENCODING 9548
SWIDTH 960 0
DWIDTH 34 0
BBX 34 34 0 -2
BITMAP
0000000000
01C0383800
0180303000
0380303000
0300303000
0300303000
0300303000
0300303000
0318303000
3FFC303600
0619FFFF00
0618303000
0618303000
0618303000
0C18303000
0C18303000
0C30603000
1830603000
1830603000
1830603300
1863FFFF80
3E60603000
3360603000
01E0C03000
00E0C03000
01F1803000
01B1803000
0313003000
0303003000
0606003000
1C0C003000
7038003000
0000003000
0000000000
ENDCHAR

STARTCHAR cns3_254D
ENCODING 9549
SWIDTH 960 0
DWIDTH 34 0
BBX 34 34 0 -2
BITMAP
0000000000
01C0070000
0180060000
0380060000
030006E000
0300063000
0300063800
0300061800
0318060000
3FFC060000
0618060300
0619FFFF80
0618060000
0618060000
0C18078000
0C180D8000
0C300D8000
18300D8000
18300D8000
18300D8000
18600D8000
3E60198000
3360198000
01E0198000
00E0198100
00F0318100
01B0318100
0190618100
0300618180
0600C1C380
1C0181FF80
700700FF00
0000000000
0000000000
ENDCHAR

STARTCHAR cns3_254E
ENCODING 9550
SWIDTH 960 0
DWIDTH 34 0
BBX 34 34 0 -2
BITMAP
0000000000
01C00E0000
01800C0000
01800C0000
03000C0000
03000C0000
03000C0000
03000C1800
0319FFFC00
3FFC0C1800
06180C1800
06180C1800
06180C1800
06180C1800
0C180C1800
0C300C1800
0C300C1B00
1837FFFF80
18301C0000
18301E0000
18601A0000
3E60330000
3360330000
01C0618000
00E0618000
01F0C0C000
01B8C06000
0319803800
0301801C00
0603000E00
1C06000780
301C000000
0000000000
0000000000
ENDCHAR

STARTCHAR cns3_254F
ENCODING 9551
SWIDTH 960 0
DWIDTH 34 0
BBX 34 34 0 -2
BITMAP
0000000000
01C00E0000
01800C0000
01801C0000
0300380000
0300300000
0300300000
0300600300
03187FFF80
3FFCC00300
0618C00300
0619800300
0619800300
061B000300
0C18018300
0C307FC300
0C30000300
1830000300
1830000300
1830000600
186001C600
3C60030600
37600E0600
03C03C0C00
00E0F00C00
00E1C00C00
01B1800C00
01B0000C00
0318001800
0600003800
1C000FF000
700001E000
000000C000
0000000000
ENDCHAR

STARTCHAR cns3_2550
ENCODING 9552
SWIDTH 960 0
DWIDTH 34 0
BBX 34 34 0 -2
BITMAP
0000000000
0000000000
0380000000
030000C000
0307FFE000
020060C000
020060C000
020060C000
061860C000
3FF860C000
061860C000
041060C000
041060CC00
0C107FFE00
0C30600C00
0830600C00
1830E00C00
1820F01800
1820D01800
1860D03000
3060D83000
3C40CC6000
26418C6000
01C186C000
00C1838000
01E3018000
037307C000
03320EF000
06061C7800
0C0C301E00
1838E00F80
3073800000
0006000000
0000000000
ENDCHAR

STARTCHAR cns3_2551
ENCODING 9553
SWIDTH 960 0
DWIDTH 34 0
BBX 34 34 0 -2
BITMAP
0000000000
0000000000
0000000000
0100006000
01FFFFF000
0180006000
0180006000
0180006000
0180006000
01FFFFE000
0180006000
0180006000
0180006000
0180006000
01FFFFE000
0180006000
0007000000
0006000000
000C000300
7FFFFFFF80
0018060000
0030060000
00300C0000
00600C0000
00F8180000
00CFB00000
0001F00000
0000FC0000
0003870000
000F03C000
003C00F000
07F0007C00
0000000000
0000000000
ENDCHAR

STARTCHAR cns3_2552
ENCODING 9554
SWIDTH 960 0
DWIDTH 34 0
BBX 34 34 0 -2
BITMAP
0000000000
01C0000000
0380801800
0300FFFC00
0300C01800
0300C01800
0600C01800
0600C01800
0618C01800
3FFCC01B00
061FFFFF80
0618C01800
0618C01800
0C30C01800
0C30C01800
0C30C01800
1830C01B00
183FFFFF80
1860C01800
1860C01800
3060C01800
3C60C01800
37C0C01800
01C1801800
01C1801800
01E1801800
0371801800
0333001800
0603001800
0C06003800
380C07F800
601800F000
0030006000
0000000000
ENDCHAR

STARTCHAR cns3_2553
ENCODING 9555
SWIDTH 960 0
DWIDTH 34 0
BBX 34 34 0 -2
BITMAP
0000000000
0000E00000
0000C00000
0000C00000
0E00C00E00
0C00C00C00
0C00C00C00
0C00C00C00
0C00C00C00
0FFFFFFC00
0C00C00C00
0000C00000
0000C00000
0000C00000
0000C00300
1FFFFFFF80
0000000000
0007000000
0006000000
000E000600
3FFFFFFF00
0018060000
0030060000
00300C0000
00601C0000
00FE180000
00C7F00000
00007C0000
0001CF0000
000703E000
001C00F800
07F0003E00
0000000000
0000000000
ENDCHAR

STARTCHAR cns3_2554
ENCODING 9556
SWIDTH 960 0
DWIDTH 34 0
BBX 34 34 0 -2
BITMAP
0000000000
0380000000
0300000000
0300800300
0300FFFF80
0301800700
0601800600
0601800400
0633000400
3FFB000000
063020C000
06303FE000
0C3030C000
0C3030C000
0C3030C000
183030C000
183030C000
186030C000
186030C000
186030C000
306030C000
3C6030C000
366030C000
03C030C000
01C060C100
01E060C100
01F060C100
0330C0C100
0600C0C180
0C0180E380
380300FF80
600E007F00
0018000000
0000000000
ENDCHAR

STARTCHAR cns3_2555
ENCODING 9557
SWIDTH 960 0
DWIDTH 34 0
BBX 34 34 0 -2
BITMAP
0000000000
0380070000
0300060000
0300060000
0300060000
0300060000
0600060000
0600060000
0618860300
3FFDFFFF80
0619860700
0619860600
061B060C00
0C1B060800
0C1B060000
18180FC000
18300F8000
18300D8000
18300D8000
18300D8000
30600D8000
3C60198000
3760198000
01C0198000
00C0318100
00E0318100
01F0618100
0338618100
0618C18180
0C0181C380
380701FF80
600C00FF00
0000000000
0000000000
ENDCHAR

ENDFONT
